Cantarell-Regular.sfdir
StartChar: exclam
Encoding: 33 33 12
GlifName: exclam
Width: 232
Flags: HMW
LayerCount: 2
Back
SplineSet
166 192 m 5
 61 192 l 5
 53 707 l 5
 175 707 l 5
 166 192 l 5
114 -10 m 3
 76 -10 47 19 47 57 c 3
 47 95 76 124 114 124 c 3
 152 124 181 95 181 57 c 3
 181 19 152 -10 114 -10 c 3
EndSplineSet
Fore
SplineSet
143 166 m 1
 77 166 l 1
 65 692 l 1
 155 692 l 1
 143 166 l 1
111 -12 m 263
 80 -12 60 8 60 39 c 263
 60 70 80 90 111 90 c 263
 142 90 162 70 162 39 c 263
 162 8 142 -12 111 -12 c 263
EndSplineSet
EndChar
StartChar: quotedbl
Encoding: 34 34 83
Width: 388
VWidth: 1023
Flags: MW
LayerCount: 4
Fore
SplineSet
54 730 m 1
 144 730 l 1
 144 529 l 1
 54 529 l 1
 54 730 l 1
244 730 m 1
 334 730 l 1
 334 529 l 1
 244 529 l 1
 244 730 l 1
EndSplineSet
Validated: 1
Layer: 3
SplineSet
244.141 737.793 m 1
 334.473 737.793 l 1
 334.473 528.809 l 1
 244.141 528.809 l 1
 244.141 737.793 l 1
53.7109 737.793 m 1
 144.043 737.793 l 1
 144.043 528.809 l 1
 53.7109 528.809 l 1
 53.7109 737.793 l 1
EndSplineSet
EndChar
StartChar: numbersign
Encoding: 35 35 78
Width: 691
VWidth: 1023
Flags: MW
LayerCount: 4
Fore
SplineSet
180 694 m 1
 258 694 l 1
 258 506 l 1
 433 506 l 1
 433 694 l 1
 511 694 l 1
 511 506 l 1
 666 506 l 1
 666 433 l 1
 511 433 l 1
 511 261 l 1
 666 261 l 1
 666 188 l 1
 511 188 l 1
 511 0 l 1
 433 0 l 1
 433 188 l 1
 258 188 l 1
 258 0 l 1
 180 0 l 1
 180 188 l 1
 26 188 l 1
 26 261 l 1
 180 261 l 1
 180 433 l 1
 25 433 l 1
 25 506 l 1
 180 506 l 1
 180 694 l 1
258 261 m 1
 433 261 l 1
 433 433 l 1
 258 433 l 1
 258 261 l 1
EndSplineSet
Validated: 1
Layer: 3
SplineSet
24.97265625 502.9296875 m 25
 665.59765625 502.9296875 l 25
 665.59765625 429.688476562 l 25
 24.97265625 429.688476562 l 25
 24.97265625 502.9296875 l 25
25.94921875 257.811523438 m 25
 665.59765625 257.811523438 l 25
 665.59765625 184.5703125 l 25
 25.94921875 184.5703125 l 25
 25.94921875 257.811523438 l 25
433.17578125 693.84765625 m 1
 511.30078125 693.84765625 l 1
 511.30078125 -14.6484375 l 1
 433.17578125 -14.6484375 l 1
 433.17578125 693.84765625 l 1
180.24609375 693.84765625 m 1
 258.37109375 693.84765625 l 1
 258.37109375 -14.6484375 l 1
 180.24609375 -14.6484375 l 1
 180.24609375 693.84765625 l 1
EndSplineSet
EndChar
StartChar: dollar
Encoding: 36 36 79
Width: 587
Flags: HMW
LayerCount: 4
Back
SplineSet
307 198 m 0
 363 198 408 203 408 248 c 0
 408 260 401 269 387 276 c 128
 350 295 255 321 217 338 c 128
 165 361 118 407 118 482 c 0
 118 512 127 541 148 567 c 128
 169 593 209 611 269 619 c 1
 269 730 l 1
 376 730 l 1
 376 620 l 1
 417 616 460 606 506 593 c 1
 474 494 l 1
 419 510 373 518 337 518 c 0
 298 518 271 515 258 508 c 128
 245 501 238 490 238 477 c 0
 238 463 246 451 263 442 c 128
 300 422 400 396 439 378 c 128
 487 356 532 315 532 246 c 256
 532 213 520 182 497 153 c 128
 474 124 433 105 376 95 c 1
 376 -43 l 1
 269 -43 l 1
 269 90 l 1
 212 95 155 110 100 135 c 1
 136 236 l 1
 183 220 252 198 307 198 c 0
EndSplineSet
Fore
SplineSet
487 225 m 3
 487 143.689453125 412.567382812 97.392578125 332 89 c 1
 332 -25 l 1
 258 -25 l 1
 258 88 l 1
 202 92 149 104 100 125 c 1
 124 191 l 1
 182 170 237 160 289 160 c 0
 343.413085938 160 401 179.23828125 401 231 c 3
 401 296.110351562 315.6953125 308.702148438 259 333 c 24
 192.452148438 360.728515625 113 387.856445312 113 484 c 3
 113 567.6171875 178.743164062 607.993164062 258 617 c 1
 258 730 l 1
 332 730 l 1
 332 618 l 1
 382 615 427 605 467 586 c 1
 446 522 l 1
 417.059570312 533.576171875 357.337890625 547 316 547 c 0
 256.974609375 547 198 534.306640625 198 483 c 3
 198 427.372070312 258.071289062 418.02734375 308 396 c 24
 326 388 354 377 354 377 c 1
 431.884765625 343.62109375 487 318.095703125 487 225 c 3
EndSplineSet
Layer: 3
SplineSet
378.53125 142.08984375 m 21
 437.61328125 142.08984375 l 13
 437.61328125 -31.73828125 l 29
 378.53125 -31.73828125 l 29
 378.53125 142.08984375 l 21
378.53125 737.79296875 m 29
 437.61328125 737.79296875 l 29
 437.61328125 577.1484375 l 29
 378.53125 577.1484375 l 29
 378.53125 737.79296875 l 29
444.44921875 610.83984375 m 4
 506.94921875 610.83984375 532.33984375 601.561523438 567.0078125 591.30859375 c 5
 546.5 530.2734375 l 5
 514.76171875 539.061523438 480.09375 548.33984375 431.265625 548.33984375 c 4
 329.703125 548.33984375 314.56640625 498.53515625 314.56640625 477.05078125 c 4
 314.56640625 390.625 593.86328125 411.1328125 593.86328125 260.7421875 c 4
 593.86328125 200.1953125 555.2890625 109.86328125 383.90234375 109.86328125 c 4
 347.76953125 109.86328125 290.15234375 117.67578125 219.83984375 146.484375 c 5
 242.30078125 207.03125 l 5
 303.82421875 181.15234375 335.561523438 172.8515625 377.5546875 172.8515625 c 4
 448.35546875 172.8515625 506.4609375 188.4765625 506.4609375 251.46484375 c 4
 506.4609375 343.75 231.55859375 307.12890625 231.55859375 468.75 c 4
 231.55859375 522.94921875 275.9921875 610.83984375 444.44921875 610.83984375 c 4
EndSplineSet
EndChar
StartChar: percent
Encoding: 37 37 86
Width: 737
VWidth: 1023
Flags: HW
LayerCount: 4
Fore
SplineSet
93 538 m 3
 93 488 115 443 165 443 c 3
 215 443 237 488 237 538 c 3
 237 588 215 633 165 633 c 3
 115 633 93 588 93 538 c 3
165 370 m 3
 75 370 10 448 10 538 c 3
 10 628 75 706 165 706 c 3
 255 706 320 628 320 538 c 3
 320 448 255 370 165 370 c 3
500 158 m 3
 500 108 522 63 572 63 c 3
 622 63 644 108 644 158 c 3
 644 208 622 253 572 253 c 3
 522 253 500 208 500 158 c 3
572 -10 m 3
 482 -10 417 68 417 158 c 3
 417 248 482 326 572 326 c 3
 662 326 727 248 727 158 c 3
 727 68 662 -10 572 -10 c 3
574 692 m 1
 673 692 l 1
 144 0 l 1
 46 0 l 1
 574 692 l 1
EndSplineSet
Layer: 3
SplineSet
550.6484375 693.84765625 m 1
 633.65625 693.84765625 l 1
 160.51171875 0 l 1
 77.50390625 0 l 1
 550.6484375 693.84765625 l 1
516.95703125 309.08203125 m 0
 557.97265625 309.08203125 633.16796875 285.64453125 633.16796875 171.38671875 c 0
 633.16796875 82.51953125 578.48046875 27.34375 516.46875 27.34375 c 0
 460.31640625 27.34375 400.74609375 64.453125 400.74609375 171.875 c 0
 400.74609375 261.71875 461.29296875 309.08203125 516.95703125 309.08203125 c 0
516.46875 262.20703125 m 0
 487.66015625 261.71875 448.109375 240.234375 448.109375 172.36328125 c 0
 448.109375 91.796875 491.56640625 72.75390625 516.95703125 72.75390625 c 0
 544.30078125 72.75390625 585.31640625 93.75 585.31640625 169.921875 c 0
 585.31640625 244.140625 542.8359375 262.20703125 516.46875 262.20703125 c 0
195.66796875 665.52734375 m 0
 236.68359375 665.52734375 306.5078125 647.4609375 306.5078125 533.203125 c 0
 306.5078125 444.3359375 257.19140625 393.5546875 195.1796875 393.5546875 c 0
 139.02734375 393.5546875 83.8515625 426.26953125 83.8515625 533.69140625 c 0
 83.8515625 623.53515625 140.00390625 665.52734375 195.66796875 665.52734375 c 0
195.1796875 619.140625 m 0
 166.37109375 618.65234375 131.703125 602.05078125 131.703125 534.1796875 c 0
 131.703125 453.61328125 170.27734375 439.453125 195.66796875 439.453125 c 0
 223.01171875 439.453125 259.14453125 455.56640625 259.14453125 531.73828125 c 0
 259.14453125 605.95703125 221.546875 619.140625 195.1796875 619.140625 c 0
EndSplineSet
EndChar
StartChar: ampersand
Encoding: 38 38 91
GlifName: ampersand
Width: 775
VWidth: 1023
Flags: HMW
LayerCount: 2
Back
SplineSet
311 706 m 3
 441 706 507 617 507 534 c 3
 507 450 433 419 375 374 c 1
 500 243 l 1
 639 374 l 1
 715 297 l 1
 576 162 l 1
 730 -0 l 1
 571 0 l 1
 491 83 l 1
 442 37 381 -10 264 -10 c 3
 145 -10 63 79 63 178 c 3
 63 294 152 341 200 378 c 1
 158 420 116 465 116 534 c 3
 116 636 197 706 311 706 c 3
383 534 m 3
 383 565 350 587 311 587 c 3
 266 587 244 564 244 534 c 3
 244 507 267 482 299 449 c 1
 355 491 383 504 383 534 c 3
412 161 m 1
 280 297 l 1
 229 256 187 229 187 178 c 3
 187 135 210 101 264 101 c 3
 319 101 377 129 412 161 c 1
EndSplineSet
Fore
SplineSet
147 552 m 3
 147 652 225 704 323 704 c 3
 424 704 503 651 503 552 c 3
 503 461 434 414 366 369 c 1
 525 196 l 1
 655 326 l 1
 708 273 l 1
 578 141 l 1
 709 0 l 1
 610 0 l 1
 523 93 l 1
 473 47 425 -12 302 -12 c 3
 189 -12 98 77 98 166 c 3
 98 292 198 353 250 383 c 1
 208 423 147 488 147 552 c 3
420 552 m 3
 420 602 374 631 323 631 c 3
 261 631 230 608 230 552 c 3
 230 520 269 464 316 424 c 1
 364 456 420 495 420 552 c 3
181 166 m 3
 181 114 252 61 302 61 c 3
 385 61 428 111 471 148 c 1
 300 330 l 1
 243 294 181 253 181 166 c 3
EndSplineSet
EndChar
StartChar: quotesingle
Encoding: 39 39 84
Width: 164
Flags: HMW
LayerCount: 4
Fore
SplineSet
81 706 m 4
 110 706 124 688 124 661 c 7
 124 658 124 655 124 651 c 13
 103 485 l 5
 61 485 l 5
 40 651 l 5
 40 655 40 659 40 663 c 7
 40 690 53 706 81 706 c 4
EndSplineSet
Validated: 1
Layer: 3
SplineSet
36.7109375 737.79296875 m 5
 127.04296875 737.79296875 l 5
 127.04296875 528.80859375 l 5
 36.7109375 528.80859375 l 5
 36.7109375 737.79296875 l 5
EndSplineSet
EndChar
StartChar: parenleft
Encoding: 40 40 72
Width: 362
VWidth: 1023
Flags: HMW
LayerCount: 4
Back
SplineSet
227 730 m 1
 327 681 l 1
 261 573 186 439 186 263 c 3
 186 93 258 -60 327 -161 c 1
 230 -220 l 1
 159 -111 63 67 63 263 c 3
 63 458 160 618 227 730 c 1
EndSplineSet
Fore
SplineSet
190 260 m 3
 190 90 251 -67 323 -184 c 1
 260 -225 l 1
 181 -95 107 72 107 260 c 3
 107 445 182 604 259 730 c 1
 323 696 l 1
 252 579 190 428 190 260 c 3
EndSplineSet
Validated: 1
Layer: 3
SplineSet
258.789 755.859 m 1
 323.242 722.168 l 1
 281.284 651.978 247.925 576.572 225.098 498.047 c 0
 204.59 427.5 192.907 354.229 192.871 280.762 c 0
 192.835 207.29 204.458 133.989 225.098 63.4766 c 0
 247.863 -14.2988 281.212 -88.916 323.242 -158.203 c 1
 260.254 -199.219 l 1
 215.076 -124.729 177.422 -45.5488 149.902 37.1094 c 0
 123.746 115.673 107.46 197.959 107.422 280.762 c 0
 107.384 363.571 123.604 445.894 149.902 524.414 c 0
 177.035 605.43 214.155 683.008 258.789 755.859 c 1
EndSplineSet
EndChar
StartChar: parenright
Encoding: 41 41 73
Width: 362
VWidth: 1023
Flags: HMW
LayerCount: 4
Back
SplineSet
272 263 m 3
 272 64 174 -113 105 -220 c 1
 9 -161 l 1
 75 -55 149 89 149 262 c 3
 149 436 75 577 8 681 c 1
 108 730 l 1
 179 622 272 456 272 263 c 3
EndSplineSet
Fore
SplineSet
255 255 m 3
 255 70 180 -97 102 -225 c 1
 39 -184 l 1
 126 -41 172 105 172 255 c 3
 172 426 111 578 39 696 c 1
 104 730 l 1
 181 604 255 439 255 255 c 3
EndSplineSet
Validated: 1
Layer: 3
SplineSet
103.516 755.859 m 1
 148.149 683.008 185.27 605.43 212.402 524.414 c 0
 238.7 445.894 254.921 363.571 254.883 280.762 c 0
 254.845 197.959 238.559 115.673 212.402 37.1094 c 0
 184.883 -45.5488 147.229 -124.729 102.051 -199.219 c 1
 39.0625 -158.203 l 1
 81.0928 -88.916 114.441 -14.2988 137.207 63.4766 c 0
 157.847 133.989 169.47 207.29 169.434 280.762 c 0
 169.397 354.229 157.715 427.5 137.207 498.047 c 0
 114.38 576.572 81.0205 651.978 39.0625 722.168 c 1
 103.516 755.859 l 1
EndSplineSet
EndChar
StartChar: asterisk
Encoding: 42 42 77
Width: 583
VWidth: 1023
Flags: MW
LayerCount: 4
Fore
SplineSet
250 692 m 1
 333 692 l 1
 325 536 l 1
 455 622 l 1
 496 549 l 1
 357 480 l 1
 496 410 l 1
 455 337 l 1
 325 423 l 1
 333 268 l 1
 250 268 l 1
 259 423 l 1
 129 337 l 1
 88 410 l 1
 227 480 l 1
 88 549 l 1
 129 622 l 1
 259 536 l 1
 250 692 l 1
EndSplineSet
Validated: 1
Layer: 3
SplineSet
454.59 623.535 m 1
 496.094 551.27 l 1
 306.641 456.055 l 1
 129.395 339.355 l 1
 87.8906 411.621 l 1
 277.344 506.836 l 1
 454.59 623.535 l 1
87.8906 551.27 m 1
 129.395 623.535 l 1
 306.641 506.836 l 1
 496.094 411.621 l 1
 454.59 339.355 l 1
 277.344 456.055 l 1
 87.8906 551.27 l 1
250.488 693.359 m 1
 333.496 693.359 l 1
 321.289 481.445 l 1
 333.496 269.531 l 1
 250.488 269.531 l 1
 262.695 481.445 l 1
 250.488 693.359 l 1
EndSplineSet
EndChar
StartChar: plus
Encoding: 43 43 76
Width: 683
VWidth: 1023
Flags: MW
LayerCount: 4
Fore
SplineSet
306 602 m 1
 378 602 l 1
 378 355 l 1
 623 355 l 1
 623 288 l 1
 378 288 l 1
 378 41 l 1
 306 41 l 1
 306 288 l 1
 61 288 l 1
 61 355 l 1
 306 355 l 1
 306 602 l 1
EndSplineSet
Validated: 1
Layer: 3
SplineSet
305.664 602.051 m 1
 377.93 602.051 l 1
 377.93 40.5273 l 1
 305.664 40.5273 l 1
 305.664 602.051 l 1
61.0352 354.98 m 1
 622.559 354.98 l 1
 622.559 287.598 l 1
 61.0352 287.598 l 1
 61.0352 354.98 l 1
EndSplineSet
EndChar
StartChar: comma
Encoding: 44 44 69
Width: 265
Flags: HMW
LayerCount: 4
Fore
SplineSet
132 110 m 263
 171 110 195 79 195 38 c 7
 195 -35 136 -95 92 -132 c 5
 60 -111 l 5
 83 -71 100 -37 113 -10 c 5
 84 0 71 20 71 49 c 7
 71 84 96 110 132 110 c 263
EndSplineSet
Layer: 3
SplineSet
110.65625 83.0078125 m 5
 198.546875 83.0078125 l 5
 121.3984375 -107.421875 l 5
 33.5078125 -107.421875 l 5
 110.65625 83.0078125 l 5
EndSplineSet
EndChar
StartChar: hyphen
Encoding: 45 45 45
Width: 400
VWidth: 1023
Flags: MW
LayerCount: 4
Fore
SplineSet
55 355 m 1
 345 355 l 1
 345 288 l 1
 55 288 l 1
 55 355 l 1
EndSplineSet
Validated: 1
Layer: 3
SplineSet
85.4492 355.469 m 1
 505.371 355.469 l 1
 505.371 287.598 l 1
 85.4492 287.598 l 1
 85.4492 355.469 l 1
EndSplineSet
EndChar
StartChar: period
Encoding: 46 46 68
Width: 278
VWidth: 1023
Flags: MW
LayerCount: 4
Fore
SplineSet
88 100 m 1
 190 100 l 1
 190 0 l 1
 88 0 l 1
 88 100 l 1
EndSplineSet
Validated: 1
Layer: 3
SplineSet
87.8906 102.539 m 1
 190.43 102.539 l 1
 190.43 0 l 1
 87.8906 0 l 1
 87.8906 102.539 l 1
EndSplineSet
EndChar
StartChar: slash
Encoding: 47 47 74
Width: 354
VWidth: 1023
Flags: MW
LayerCount: 4
Back
SplineSet
275 692 m 1
 401 692 l 1
 145 -44 l 1
 20 -44 l 1
 275 692 l 1
EndSplineSet
Fore
SplineSet
262 694 m 1
 345 694 l 1
 103 -44 l 1
 20 -44 l 1
 262 694 l 1
EndSplineSet
Validated: 1
Layer: 3
SplineSet
261.719 693.848 m 5
 344.727 693.848 l 5
 102.539 -43.9453 l 5
 19.5312 -43.9453 l 5
 261.719 693.848 l 5
EndSplineSet
EndChar
StartChar: zero
Encoding: 48 48 66
GlifName: zero
Width: 574
Flags: HMW
LayerCount: 2
Back
SplineSet
287 706 m 7
 400 706 488 654 488 545 c 7
 488 467 437 401 394 384 c 5
 463 357 524 294 524 200 c 7
 524 71 423 -10 290 -10 c 7
 157 -10 50 60 50 192 c 7
 50 283 116 351 180 381 c 5
 130 409 86 458 86 548 c 7
 86 646 185 706 287 706 c 7
282 633 m 7
 227 633 169 594 169 539 c 7
 169 469 225 442 288 413 c 5
 337 439 405 476 405 538 c 7
 405 604 346 633 282 633 c 7
290 63 m 7
 370 63 441 110 441 192 c 263
 441 283 372 326 284 340 c 5
 212 321 133 280 133 198 c 7
 133 113 207 63 290 63 c 7
EndSplineSet
Fore
SplineSet
289 706 m 259
 455 706 526 542 526 348 c 3
 526 158 452 -10 289 -10 c 3
 124 -10 48 157 48 348 c 259
 48 539 124 706 289 706 c 259
289 60 m 259
 406 60 443 200 443 348 c 259
 443 496 406 636 289 636 c 259
 170 636 131 496 131 348 c 259
 131 200 170 60 289 60 c 259
EndSplineSet
Validated: 1
EndChar
StartChar: one
Encoding: 49 49 65
Width: 553
Flags: HMW
LayerCount: 4
Fore
SplineSet
318 694 m 1
 318 73 l 1
 483 73 l 1
 483 0 l 1
 70 0 l 1
 70 73 l 1
 235 73 l 1
 235 621 l 1
 104 565 l 1
 71 631 l 1
 219 694 l 1
 318 694 l 1
EndSplineSet
Validated: 1
Layer: 3
SplineSet
74.078125 72.75390625 m 1
 478.375 72.75390625 l 1
 478.375 0 l 1
 74.078125 0 l 1
 74.078125 72.75390625 l 1
221.5390625 693.84765625 m 1
 317.2421875 693.84765625 l 1
 317.2421875 0 l 1
 237.1640625 0 l 1
 237.1640625 646.484375 l 1
 270.3671875 626.953125 l 1
 84.8203125 553.7109375 l 1
 53.5703125 625.48828125 l 1
 221.5390625 693.84765625 l 1
EndSplineSet
EndChar
StartChar: two
Encoding: 50 50 63
GlifName: two
Width: 574
Flags: HMW
LayerCount: 2
Back
SplineSet
290 706 m 263
 455.91015625 706 526 542 526 348 c 7
 526 158 453.248046875 -10 290 -10 c 7
 125.404296875 -10 48 157 48 348 c 263
 48 539 125.404296875 706 290 706 c 263
288 63 m 263
 405.296875 63 443 204 443 348 c 263
 443 492 405.296875 633 288 633 c 263
 170.703125 633 133 492 133 348 c 263
 133 204 170.703125 63 288 63 c 263
EndSplineSet
Fore
SplineSet
78 644 m 1
 124 672 185 706 278 706 c 3
 412 706 492 632 492 506 c 3
 492 390 442 319 211 70 c 1
 505 70 l 1
 505 0 l 1
 95 0 l 1
 95 47 l 1
 341 305 412 407 412 506 c 3
 412 577 372 636 278 636 c 3
 206 636 146 605 112 582 c 1
 78 644 l 1
EndSplineSet
Validated: 1
EndChar
StartChar: three
Encoding: 51 51 64
Width: 634
Flags: HMW
LayerCount: 4
Fore
SplineSet
296 706 m 3
 426 706 515 637 515 533 c 3
 515 455 463 401 410 375 c 1
 481 356 547 293 547 199 c 3
 547 61 434 -10 296 -10 c 3
 216 -10 147 10 86 32 c 1
 110 104 l 1
 170 84 242 63 296 63 c 3
 382 63 464 115 464 199 c 3
 464 303 360 334 241 334 c 1
 241 405 l 1
 348 409 432 439 432 533 c 3
 432 601 393 632 296 632 c 3
 252 632 197 613 138 586 c 1
 111 652 l 1
 178 685 234 706 296 706 c 3
EndSplineSet
Validated: 1
Layer: 3
SplineSet
455.025 537.598 m 4
 455.025 464.355 412.058 404.297 348.581 379.883 c 5
 447.214 353.516 485.3 288.574 485.3 212.891 c 4
 485.3 71.7773 371.042 -21.4844 216.257 -21.9727 c 5
 214.304 -21.9727 l 6
 160.593 -21.9727 97.6045 -10.2539 35.1045 15.625 c 5
 58.542 83.0078 l 5
 143.99 59.5703 185.495 55.1758 217.232 55.1758 c 4
 316.354 55.1758 400.827 110.84 400.827 194.824 c 4
 400.827 250.488 357.37 333.984 189.4 333.984 c 4
 185.982 333.984 183.054 333.984 179.636 333.984 c 5
 179.636 405.273 l 5
 332.468 409.668 371.042 477.051 371.042 524.414 c 4
 371.042 578.613 320.749 626.953 235.3 626.953 c 4
 175.24 626.953 114.206 604.004 76.1201 586.426 c 5
 49.2646 652.344 l 5
 93.6973 674.316 166.939 702.148 245.554 702.148 c 4
 366.646 702.148 455.025 631.836 455.025 537.598 c 4
EndSplineSet
EndChar
StartChar: four
Encoding: 52 52 67
Width: 600
Flags: MW
LayerCount: 2
Back
SplineSet
322 692 m 1
 488 692 l 1
 488 261 l 1
 609 261 l 1
 609 148 l 1
 488 148 l 1
 488 0 l 1
 365 0 l 1
 365 148 l 1
 32 148 l 1
 32 238 l 1
 322 692 l 1
365 261 m 1
 365 528 l 1
 365 558 l 1
 351 528 l 1
 179 261 l 1
 365 261 l 1
EndSplineSet
Fore
SplineSet
452 694 m 1
 452 239 l 1
 567 239 l 1
 567 166 l 1
 452 166 l 1
 452 0 l 1
 369 0 l 1
 369 166 l 1
 34 166 l 1
 34 224 l 1
 328 694 l 1
 452 694 l 1
369 239 m 1
 369 616 l 1
 133 239 l 1
 369 239 l 1
EndSplineSet
Validated: 1
EndChar
StartChar: five
Encoding: 53 53 62
Width: 580
Flags: HMW
LayerCount: 2
Back
SplineSet
554.5 227 m 3
 554.5 306 493.5 334 433.5 334 c 3
 333.5 334 255.5 297 255.5 297 c 1
 206.5 345 l 1
 206.5 694 l 1
 640.5 694 l 1
 640.5 581 l 1
 331.5 581 l 1
 331.5 435 l 5
 331.5 435 393.5 447 433.5 447 c 3
 593.5 447 680.5 365 680.5 228 c 3
 680.5 70 552.5 -10 412.5 -10 c 3
 345.5 -10 233.5 5 170.5 31 c 1
 205.5 139 l 1
 257.5 122 340.5 103 412.5 103 c 3
 462.5 103 554.5 132 554.5 227 c 3
EndSplineSet
Fore
SplineSet
438 218 m 3
 438 340 361 368 233 368 c 0
 202 368 162 362 113 348 c 1
 103 348 90 356 90 356 c 1
 90 692 l 1
 480 692 l 1
 480 619 l 1
 173 619 l 1
 173 436 l 1
 200 439 232 441 269 441 c 0
 418 441 521 360 521 219 c 3
 521 57 403 -10 243 -10 c 3
 180 -10 111 5 60 22 c 1
 84 93 l 1
 148 73 200 63 241 63 c 3
 358 63 438 101 438 218 c 3
EndSplineSet
Validated: 1
EndChar
StartChar: six
Encoding: 54 54 60
Width: 626
Flags: HMW
LayerCount: 4
Fore
SplineSet
465 706 m 1
 471 633 l 1
 287 633 158 534 158 374 c 1
 158 374 220 427 320 427 c 3
 460 427 556 346 556 216 c 3
 556 86 470 -10 320 -10 c 3
 135 -10 70 137 70 306 c 3
 70 556 212 706 465 706 c 1
320 63 m 3
 420 63 473 116 473 216 c 3
 473 316 402 354 320 354 c 3
 224 354 153 285 153 285 c 1
 153 152 210 63 320 63 c 3
EndSplineSet
Validated: 1
Layer: 3
SplineSet
313.3359375 386.71875 m 0
 272.279296875 388.083984375 230.473632812 372.890625 201.51953125 343.75 c 0
 171.43359375 313.471679688 156.75390625 269.71484375 158.061523438 227.05078125 c 0
 159.330078125 185.71484375 174.334960938 144.783203125 200.54296875 112.79296875 c 0
 214.271484375 96.03515625 231.173828125 81.783203125 250.401367188 71.802734375 c 0
 269.62890625 61.822265625 291.184570312 56.2392578125 312.84765625 56.15234375 c 0
 332.926757812 56.072265625 352.9765625 60.705078125 371.109375 69.330078125 c 0
 389.243164062 77.953125 405.44140625 90.4814453125 418.8046875 105.46875 c 0
 445.830078125 135.779296875 461.362304688 175.76953125 463.7265625 216.30859375 c 0
 466.075195312 256.58203125 454.744140625 298.0859375 429.546875 329.58984375 c 0
 401.728515625 364.369140625 357.846679688 385.239257812 313.3359375 386.71875 c 0
171.734375 598.6328125 m 0
 206.5390625 636.381835938 252.02734375 663.618164062 300.908203125 679.3359375 c 0
 349.7890625 695.053710938 401.658203125 700.190429688 452.984375 698.73046875 c 0
 467.663085938 698.310546875 482.325195312 697.333984375 496.9296875 695.80078125 c 1
 491.0703125 623.53515625 l 1
 459.953125 626.958007812 428.48828125 627.44140625 397.3203125 624.51171875 c 0
 366.076171875 621.577148438 334.98828125 615.131835938 306.00390625 603.100585938 c 0
 277.01953125 591.07421875 250.345703125 573.129882812 229.3515625 549.8046875 c 0
 201.849609375 519.252929688 185.068359375 480.248046875 175.940429688 440.166992188 c 0
 166.811523438 400.084960938 164.009765625 358.8671875 160.9921875 317.87109375 c 0
 160.154296875 306.478515625 159.34375 295.0859375 158.55078125 283.69140625 c 1
 124.37109375 294.921875 l 1
 128.536132812 326.62109375 141.7890625 357.037109375 161.96875 381.8359375 c 0
 181.90234375 406.333984375 208.369140625 425.248046875 237.5 437.451171875 c 0
 266.629882812 449.654296875 298.35546875 455.384765625 329.938476562 455.078125 c 0
 360.432617188 454.78125 390.944335938 448.83203125 419.005859375 436.892578125 c 0
 447.068359375 424.952148438 472.556640625 406.830078125 492.53515625 383.7890625 c 0
 530.484375 340.025390625 546.690429688 280.021484375 543.8046875 222.16796875 c 0
 540.561523438 157.083984375 513.84375 92.234375 465.6796875 48.33984375 c 0
 422.177734375 8.6953125 362.915039062 -12.220703125 304.05859375 -12.20703125 c 0
 253.1015625 -12.1953125 201.557617188 3.9453125 162.45703125 36.62109375 c 0
 129.965820312 63.7734375 107.216796875 101.451171875 94.2744140625 141.768554688 c 0
 81.3330078125 182.0859375 77.201171875 224.751953125 76.51953125 267.08984375 c 0
 75.572265625 325.948242188 80.177734375 385.13671875 93.669921875 442.435546875 c 0
 107.161132812 499.736328125 131.83203125 555.3515625 171.734375 598.6328125 c 0
EndSplineSet
EndChar
StartChar: seven
Encoding: 55 55 61
Width: 600
Flags: HMW
LayerCount: 2
Back
SplineSet
196 692 m 1
 703 692 l 1
 703 619 l 1
 431 0 l 1
 300 0 l 1
 553 579 l 1
 196 579 l 1
 196 692 l 1
EndSplineSet
Fore
SplineSet
272 0 m 1
 189 0 l 1
 431 619 l 1
 74 619 l 1
 74 692 l 1
 526 692 l 1
 526 632 l 1
 272 0 l 1
EndSplineSet
Validated: 1
EndChar
StartChar: eight
Encoding: 56 56 58
Width: 580
Flags: HMW
LayerCount: 2
Back
SplineSet
522 525 m 3
 522 575 460 593 420 593 c 3
 380 593 317 570 317 525 c 3
 317 483 368 451 443 430 c 1
 483 451 522 487 522 525 c 3
280 210 m 3
 280 144 333 103 420 103 c 3
 499 103 558 142 558 210 c 3
 558 271 489 306 389 330 c 1
 329 310 280 268 280 210 c 3
194 525 m 3
 194 636 311 706 420 706 c 3
 546 706 645 638 645 525 c 3
 645 461 607 422 563 388 c 1
 630 352 681 296 681 210 c 3
 681 71 554 -10 420 -10 c 3
 275 -10 157 76 157 210 c 3
 157 293 215 347 275 382 c 1
 225 414 194 456 194 525 c 3
EndSplineSet
Fore
SplineSet
290 706 m 3
 403 706 491 654 491 545 c 3
 491 467 440 401 397 384 c 1
 466 357 527 294 527 200 c 3
 527 71 426 -10 293 -10 c 3
 160 -10 53 60 53 192 c 3
 53 283 119 351 183 381 c 1
 133 409 89 458 89 548 c 3
 89 646 188 706 290 706 c 3
285 633 m 3
 230 633 172 594 172 539 c 3
 172 469 228 442 291 413 c 1
 340 439 408 476 408 538 c 3
 408 604 349 633 285 633 c 3
293 63 m 3
 373 63 444 110 444 192 c 259
 444 283 375 326 287 340 c 1
 215 321 136 280 136 198 c 3
 136 113 210 63 293 63 c 3
EndSplineSet
Validated: 1
EndChar
StartChar: nine
Encoding: 57 57 59
GlifName: nine
Width: 574
UnlinkRmOvrlpSave: 1
Flags: HMW
LayerCount: 2
Fore
SplineSet
250 57 m 3
 388 57 428 215 428 368 c 3
 428 448 427 639 283 639 c 3
 197 639 137 570 137 494 c 3
 137 370 223 345 290 345 c 3
 343 345 380 350 433 380 c 1
 441 324 l 1
 377 288 323 275 261 275 c 3
 172 275 54 331 54 500 c 3
 54 623 164 706 282 706 c 3
 470 706 511 534 511 368 c 3
 511 158 436 -10 262 -10 c 3
 184 -10 134 10 66 50 c 1
 95 113 l 1
 141 82 197 57 250 57 c 3
EndSplineSet
EndChar
StartChar: colon
Encoding: 58 58 81
Width: 278
VWidth: 1023
Flags: MW
LayerCount: 4
Fore
SplineSet
88 100 m 1
 190 100 l 1
 190 0 l 1
 88 0 l 1
 88 100 l 1
88 482 m 1
 190 482 l 5
 190 382 l 1
 88 382 l 1
 88 482 l 1
EndSplineSet
Validated: 1
Layer: 3
SplineSet
87.8906 484.863 m 1
 190.43 484.863 l 1
 190.43 382.324 l 1
 87.8906 382.324 l 1
 87.8906 484.863 l 1
87.8906 102.539 m 1
 190.43 102.539 l 1
 190.43 0 l 1
 87.8906 0 l 1
 87.8906 102.539 l 1
EndSplineSet
EndChar
StartChar: semicolon
Encoding: 59 59 80
Width: 265
Flags: HMW
LayerCount: 4
Fore
SplineSet
132 110 m 259
 171 110 195 79 195 38 c 3
 195 -35 136 -95 92 -132 c 1
 60 -111 l 1
 83 -71 100 -37 113 -10 c 1
 84 0 71 20 71 49 c 3
 71 84 96 110 132 110 c 259
132 374 m 259
 97 374 72 400 72 434 c 259
 72 468 97 494 132 494 c 259
 167 494 192 468 192 434 c 259
 192 400 167 374 132 374 c 259
EndSplineSet
Layer: 3
SplineSet
81.65625 83.0078125 m 1
 169.546875 83.0078125 l 1
 92.3984375 -107.421875 l 1
 4.5078125 -107.421875 l 1
 81.65625 83.0078125 l 1
71.890625 484.86328125 m 1
 174.4296875 484.86328125 l 1
 174.4296875 382.32421875 l 1
 71.890625 382.32421875 l 1
 71.890625 484.86328125 l 1
-424.69140625 410.15625 m 1024
EndSplineSet
EndChar
StartChar: less
Encoding: 60 60 92
Width: 523
VWidth: 1023
Flags: MW
LayerCount: 4
Back
SplineSet
487 583 m 1
 487 463 l 1
 171 304 l 1
 487 152 l 1
 487 27 l 1
 21 248 l 1
 21 354 l 1
 487 583 l 1
EndSplineSet
Fore
SplineSet
475 551 m 5
 475 475 l 5
 134 303 l 5
 475 139 l 5
 475 59 l 5
 49 260 l 5
 49 341 l 5
 475 551 l 5
EndSplineSet
Validated: 1
Layer: 3
SplineSet
475.098 550.781 m 5
 48.8281 340.82 l 5
 48.8281 260.254 l 5
 475.098 58.5938 l 5
 475.098 139.16 l 5
 83.9844 327.148 l 5
 83.9844 278.32 l 5
 475.098 475.098 l 5
 475.098 550.781 l 5
EndSplineSet
EndChar
StartChar: equal
Encoding: 61 61 82
Width: 683
VWidth: 1023
Flags: MW
LayerCount: 4
Fore
SplineSet
107 466 m 1
 576 466 l 1
 576 393 l 1
 107 393 l 1
 107 466 l 1
107 245 m 1
 576 245 l 1
 576 171 l 1
 107 171 l 1
 107 245 l 1
EndSplineSet
Validated: 1
Layer: 3
SplineSet
107.422 244.629 m 1
 576.172 244.629 l 1
 576.172 171.387 l 1
 107.422 171.387 l 1
 107.422 244.629 l 1
107.422 465.82 m 1
 576.172 465.82 l 1
 576.172 392.578 l 1
 107.422 392.578 l 1
 107.422 465.82 l 1
EndSplineSet
EndChar
StartChar: greater
Encoding: 62 62 93
Width: 523
VWidth: 1023
Flags: MW
LayerCount: 4
Fore
SplineSet
49 551 m 1
 475 341 l 1
 475 260 l 1
 49 59 l 1
 49 139 l 1
 390 303 l 1
 49 475 l 1
 49 551 l 1
EndSplineSet
Validated: 1
Layer: 3
SplineSet
48.8281 550.781 m 5
 475.098 340.82 l 5
 475.098 260.254 l 5
 48.8281 58.5938 l 5
 48.8281 139.16 l 5
 439.941 327.148 l 5
 439.941 278.32 l 5
 48.8281 475.098 l 5
 48.8281 550.781 l 5
EndSplineSet
EndChar
StartChar: question
Encoding: 63 63 57
GlifName: question
Width: 515
Flags: HMW
LayerCount: 2
Back
SplineSet
478 510 m 4
 478 638 375 706 246 706 c 4
 158 706 97 684 30 653 c 5
 70 545 l 5
 128 577 183 592 234 592 c 4
 303 592 355 567 355 506 c 4
 355 481 349 460 336 442 c 132
 259 340 154 329 154 192 c 5
 278 192 l 5
 278 249 312 267 374 321 c 4
 430 369 478 409 478 510 c 4
218 -10 m 259
 181 -10 150 21 150 58 c 259
 150 95 181 125 218 125 c 259
 255 125 285 95 285 58 c 259
 285 21 255 -10 218 -10 c 259
EndSplineSet
Fore
SplineSet
243 706 m 3
 358 706 445 642 445 521 c 3
 445 443 361 361 319 326 c 0
 278 296 254 246 254 166 c 1
 169 166 l 1
 169 272 202 337 255 373 c 0
 321 425 363 461 363 514 c 3
 363 595 313 629 237 629 c 3
 163 629 131 614 77 589 c 1
 50 661 l 1
 111 688 159 706 243 706 c 3
211 -10 m 259
 180 -10 160 10 160 41 c 259
 160 72 180 92 211 92 c 259
 242 92 262 72 262 41 c 259
 262 10 242 -10 211 -10 c 259
EndSplineSet
Validated: 1
EndChar
StartChar: at
Encoding: 64 64 56
Width: 1003
Flags: HMW
LayerCount: 4
Back
SplineSet
701 457 m 1
 709 481 l 1
 794 481 l 1
 794 128 l 2
 794 70 810 50 847 50 c 3
 873 50 939 67 939 246 c 3
 939 428 885 604 630 604 c 3
 350 604 256 419 256 240 c 3
 256 0 378 -119 561 -119 c 3
 682 -119 729 -98 729 -98 c 5
 729 -194 l 1
 729 -194 647 -214 547 -214 c 3
 367 -214 147 -127 147 240 c 3
 147 410 229 706 616 706 c 3
 974 706 1051 451 1051 246 c 3
 1051 -34 897 -42 825 -42 c 3
 770 -42 725 -25 702 19 c 1
 662 -1 621 -10 586 -10 c 3
 462 -10 368 91 368 238 c 3
 368 387 460 492 598 492 c 3
 638 492 680 482 701 457 c 1
608 397 m 0
 532 397 477 336 477 238 c 3
 477 138 535 88 610 88 c 0
 632 88 657 93 683 105 c 1
 683 369 l 1
 672 390 636 397 608 397 c 0
EndSplineSet
Fore
SplineSet
765 61 m 3
 782 61 797 66 808 75 c 128
 857 115 871 197 871 293 c 3
 871 359 858 419 832 470 c 128
 780 572 673 636 521 636 c 259
 445 636 379 620 321 587 c 128
 215 527 137 411 137 251 c 3
 137 170 153 101 184 44 c 128
 240 -58 345 -128 494 -128 c 3
 553 -128 602 -115 636 -104 c 1
 654 -171 l 1
 587 -191 526 -201 469 -201 c 3
 394 -201 324 -184 260 -150 c 128
 134 -83 47 54 47 246 c 3
 47 335 67 413 108 483 c 128
 181 608 320 706 506 706 c 3
 604 706 686 688 754 653 c 128
 872 592 956 479 956 311 c 3
 956 186 929 102 866 41 c 0
 829 6 790 -10 752 -10 c 3
 696 -10 657 13 635 59 c 1
 595 13 545 -10 487 -10 c 3
 448 -10 413 0 380 19 c 128
 315 56 273 132 273 233 c 3
 273 287 283 333 304 373 c 128
 341 444 410 495 512 495 c 3
 551 495 592 491 636 461 c 1
 644 482 l 1
 698 482 l 1
 698 154 l 2
 698 97 712 61 765 61 c 3
363 242 m 3
 363 136 404 63 507 63 c 3
 553 63 590 80 618 115 c 1
 618 412 l 1
 590 425 558 431 523 431 c 3
 419 431 363 350 363 242 c 3
EndSplineSet
Validated: 1
Layer: 3
SplineSet
754.265625 392.794921875 m 1
 715.251953125 410.236328125 683.123046875 417.12109375 643.19140625 417.12109375 c 0
 544.970703125 417.12109375 486.6796875 341.84765625 486.6796875 231.232421875 c 0
 486.6796875 121.994140625 537.16796875 57.736328125 625.75 57.736328125 c 0
 689.08984375 57.736328125 730.3984375 94.9140625 744.172851562 121.53515625 c 1
 767.122070312 74.259765625 l 1
 742.33203125 37.08203125 692.302734375 -10.65234375 607.849609375 -10.65234375 c 0
 476.123046875 -10.65234375 399.013671875 87.111328125 399.013671875 223.888671875 c 0
 399.013671875 389.123046875 505.498046875 480.001953125 634.470703125 480.001953125 c 0
 677.15625 480.001953125 717.546875 469.904296875 760.69140625 452.00390625 c 1
 754.265625 392.794921875 l 1
737.283203125 416.662109375 m 1
 762.073242188 474.494140625 l 1
 814.392578125 474.494140625 l 1
 814.392578125 145.861328125 l 2
 814.392578125 94.9140625 827.244140625 56.359375 878.650390625 56.359375 c 0
 932.3515625 56.359375 982.83984375 122.453125 982.83984375 283.09765625 c 0
 982.83984375 451.0859375 889.666015625 616.318359375 641.814453125 616.318359375 c 0
 420.126953125 616.318359375 264.990234375 462.560546875 264.990234375 236.740234375 c 0
 264.990234375 -50.125 499.072265625 -190.115234375 771.70703125 -101.990234375 c 1
 771.70703125 -169.4609375 l 1
 439.86328125 -271.814453125 178.701171875 -90.974609375 178.701171875 236.28125 c 0
 178.701171875 503.408203125 376.064453125 684.248046875 641.814453125 684.248046875 c 0
 951.169921875 684.248046875 1065.91601562 481.837890625 1065.91601562 285.392578125 c 0
 1065.91601562 90.32421875 962.190429688 -10.65234375 867.17578125 -10.65234375 c 0
 783.181640625 -10.65234375 737.283203125 45.34375 737.283203125 122.912109375 c 2
 737.283203125 416.662109375 l 1
EndSplineSet
EndChar
StartChar: A
Encoding: 65 65 32
Width: 609
Flags: HMW
AnchorPoint: "ogonek" 526 0 basechar 0
AnchorPoint: "cedilla" 548 0 basechar 0
AnchorPoint: "below" 304 0 basechar 0
AnchorPoint: "above" 304 692 basechar 0
LayerCount: 4
Back
SplineSet
585 0 m 5
 492 0 l 5
 426 202 l 5
 162 202 l 5
 96 0 l 5
 10 0 l 5
 246 694 l 5
 348 694 l 5
 585 0 l 5
294 606 m 5
 186 275 l 5
 402 275 l 5
 294 606 l 5
EndSplineSet
Fore
SplineSet
592 0 m 1
 561 0 530 0 499 0 c 1
 433 202 l 1
 169 202 l 1
 103 0 l 1
 17 0 l 1
 253 694 l 1
 355 694 l 1
 592 0 l 1
301 606 m 1
 193 276 l 1
 409 276 l 1
 301 606 l 1
EndSplineSet
Validated: 1
Layer: 3
SplineSet
343.298 612.891 m 1
 225.576 274.414 l 1
 461.26 274.414 l 1
 343.298 612.891 l 1
300.059 693.848 m 1
 394.297 693.848 l 1
 640.879 0 l 1
 556.895 0 l 1
 486.616 201.66 l 1
 200.273 201.66 l 1
 130.137 0 l 1
 53.4766 0 l 1
 300.059 693.848 l 1
EndSplineSet
EndChar
StartChar: B
Encoding: 66 66 50
GlifName: B_
Width: 627
Flags: HMW
AnchorPoint: "below" 273 0 basechar 0
AnchorPoint: "cedilla" 273 0 basechar 0
AnchorPoint: "above" 273 692 basechar 0
LayerCount: 2
Back
SplineSet
288 579 m 2
 203 579 l 1
 203 422 l 1
 288 422 l 1
 388 422 434 442 434 502 c 3
 434 562 388 579 288 579 c 2
288 309 m 1
 203 309 l 1
 203 109 l 1
 288 109 l 2
 408 109 486 123 486 213 c 3
 486 303 408 309 288 309 c 1
80 692 m 1
 315 692 l 2
 495 692 557 581 557 518 c 3
 557 456 527 412 463 373 c 1
 561 355 609 266 609 197 c 3
 609 118 557 0 297 0 c 2
 80 0 l 1
 80 692 l 1
EndSplineSet
Fore
SplineSet
440 515 m 7
 440 586 397 619 310 619 c 6
 168 619 l 5
 168 405 l 5
 300 405 l 6
 375 405 440 436 440 515 c 7
495 203 m 7
 495 304 410 332 310 332 c 6
 168 332 l 5
 168 73 l 5
 310 73 l 6
 418 73 495 105 495 203 c 7
433 381 m 5
 485 371 577 336 577 189 c 7
 577 56 478 0 349 0 c 6
 85 0 l 5
 85 692 l 5
 339 692 l 6
 434 692 520 637 520 526 c 7
 520 453 489 408 433 381 c 5
EndSplineSet
EndChar
StartChar: C
Encoding: 67 67 54
GlifName: C_
Width: 651
Flags: HMW
AnchorPoint: "horn" 595 601 basechar 0
AnchorPoint: "below" 375 0 basechar 0
AnchorPoint: "cedilla" 351 0 basechar 0
AnchorPoint: "above" 365 692 basechar 0
LayerCount: 2
Back
SplineSet
381 706 m 7
 581 706 707 546 707 346 c 7
 707 146 581 -10 381 -10 c 7
 181 -10 55 146 55 346 c 7
 55 546 181 706 381 706 c 7
381 63 m 7
 541 63 624 185 624 346 c 7
 624 507 541 633 381 633 c 7
 221 633 138 507 138 346 c 7
 138 185 221 63 381 63 c 7
EndSplineSet
Fore
SplineSet
603 76 m 1
 546 21 468 -10 381 -10 c 3
 181 -10 55 146 55 346 c 3
 55 546 181 706 381 706 c 3
 473 706 549 672 603 618 c 5
 551 563 l 5
 514 604 454 633 381 633 c 3
 221 633 138 507 138 346 c 3
 138 185 221 63 381 63 c 3
 450 63 506 85 551 131 c 1
 603 76 l 1
EndSplineSet
Validated: 1
EndChar
StartChar: D
Encoding: 68 68 48
Width: 710
Flags: HMW
AnchorPoint: "cedilla" 337 0 basechar 0
AnchorPoint: "below" 337 0 basechar 0
AnchorPoint: "above" 315 692 basechar 0
LayerCount: 4
Back
SplineSet
360 579 m 2
 203 579 l 1
 203 113 l 1
 360 113 l 2
 500 113 558 230 558 350 c 3
 558 470 500 579 360 579 c 2
314 692 m 2
 607 692 681 550 681 350 c 3
 681 150 608 0 314 0 c 2
 80 0 l 1
 80 692 l 1
 314 692 l 2
EndSplineSet
Fore
SplineSet
168 73 m 1
 323 73 l 2
 494 73 564 206 564 346 c 3
 564 486 490 620 323 620 c 2
 168 620 l 1
 168 73 l 1
329 0 m 2
 85 0 l 1
 85 694 l 1
 329 694 l 2
 535 694 647 546 647 346 c 3
 647 146 536 0 329 0 c 2
EndSplineSet
Validated: 1
Layer: 3
SplineSet
237.998 619.512 m 1
 237.998 74.3604 l 1
 354.986 74.3604 l 2
 515.073 74.3604 628.271 142.09 628.271 353.33 c 0
 628.271 553.677 513.652 619.512 353.564 619.512 c 2
 237.998 619.512 l 1
146.113 693.398 m 1
 374.404 693.398 l 2
 594.644 693.398 723.945 569.307 723.945 356.172 c 0
 723.945 117.935 590.854 0 342.671 0 c 2
 146.113 0 l 1
 146.113 693.398 l 1
EndSplineSet
EndChar
StartChar: E
Encoding: 69 69 34
Width: 551
Flags: HMW
AnchorPoint: "ogonek" 442 0 basechar 0
AnchorPoint: "below" 289 0 basechar 0
AnchorPoint: "cedilla" 289 0 basechar 0
AnchorPoint: "above" 289 693 basechar 0
LayerCount: 4
Back
SplineSet
80 0 m 1
 80 692 l 1
 532 692 l 1
 532 579 l 1
 203 579 l 1
 203 407 l 1
 496 407 l 1
 496 294 l 1
 203 294 l 1
 203 113 l 1
 532 113 l 1
 532 0 l 1
 80 0 l 1
EndSplineSet
Fore
SplineSet
85 0 m 1
 85 694 l 1
 491 694 l 1
 491 620 l 1
 168 620 l 1
 168 406 l 1
 464 406 l 1
 464 332 l 1
 168 332 l 1
 168 74 l 1
 491 74 l 1
 491 0 l 1
 85 0 l 1
EndSplineSet
Validated: 1
Layer: 3
SplineSet
146.602 394.043 m 5
 526.484 394.043 l 5
 526.484 320.801 l 5
 146.602 320.801 l 5
 146.602 394.043 l 5
146.602 693.848 m 5
 553.34 693.848 l 5
 553.34 620.605 l 5
 146.602 620.605 l 5
 146.602 693.848 l 5
146.602 73.2422 m 5
 553.34 73.2422 l 5
 553.34 0 l 5
 146.602 0 l 5
 146.602 73.2422 l 5
146.602 693.848 m 5
 229.609 693.848 l 5
 229.609 0 l 5
 146.602 0 l 5
 146.602 693.848 l 5
EndSplineSet
EndChar
StartChar: F
Encoding: 70 70 35
Width: 531
Flags: MW
AnchorPoint: "cedilla" 127 0 basechar 0
AnchorPoint: "below" 289 0 basechar 0
AnchorPoint: "above" 289 693 basechar 0
LayerCount: 4
Back
SplineSet
168 621 m 5
 168 394 l 5
 457 394 l 5
 457 321 l 5
 168 321 l 5
 168 0 l 5
 85 0 l 5
 85 694 l 5
 486 694 l 5
 486 621 l 5
 168 621 l 5
EndSplineSet
Fore
SplineSet
168 621 m 1
 168 394 l 1
 457 394 l 1
 457 321 l 1
 168 321 l 1
 168 0 l 1
 85 0 l 1
 85 694 l 1
 486 694 l 1
 486 621 l 1
 168 621 l 1
EndSplineSet
Validated: 1
Layer: 3
SplineSet
179.316 394.043 m 1
 519.16 394.043 l 1
 519.16 320.801 l 1
 179.316 320.801 l 1
 179.316 394.043 l 1
179.316 693.848 m 1
 548.457 693.848 l 1
 548.457 620.605 l 1
 179.316 620.605 l 1
 179.316 693.848 l 1
146.602 693.848 m 1
 229.609 693.848 l 1
 229.609 0 l 1
 146.602 0 l 1
 146.602 693.848 l 1
EndSplineSet
EndChar
StartChar: G
Encoding: 71 71 28
GlifName: G_
Width: 709
Flags: HMW
AnchorPoint: "above" 374 692 basechar 0
LayerCount: 2
Back
SplineSet
381 706 m 7
 581 706 707 546 707 346 c 3
 707 146 581 -10 381 -10 c 7
 181 -10 55 146 55 346 c 7
 55 546 181 706 381 706 c 7
381 63 m 7
 541 63 624 185 624 346 c 3
 624 507 541 633 381 633 c 7
 221 633 138 507 138 346 c 7
 138 185 221 63 381 63 c 7
EndSplineSet
Fore
SplineSet
550 565 m 1
 504 614 440 633 381 633 c 3
 221 633 138 507 138 346 c 3
 138 185 221 63 381 63 c 3
 459 63 504 90 536 116 c 1
 536 277 l 1
 341 277 l 1
 341 350 l 1
 619 350 l 1
 619 93 l 1
 589 57 510 -10 381 -10 c 3
 181 -10 55 146 55 346 c 3
 55 546 181 706 381 706 c 3
 471 706 547 673 601 620 c 1
 550 565 l 1
EndSplineSet
EndChar
StartChar: H
Encoding: 72 72 29
GlifName: H_
Width: 711
Flags: HMW
AnchorPoint: "below" 360 0 basechar 0
AnchorPoint: "cedilla" 360 0 basechar 0
AnchorPoint: "above" 360 692 basechar 0
LayerCount: 2
Back
SplineSet
532 692 m 1
 655 692 l 1
 655 0 l 1
 532 0 l 1
 532 309 l 1
 198 309 l 1
 198 0 l 1
 75 0 l 1
 75 692 l 1
 198 692 l 1
 198 422 l 1
 532 422 l 1
 532 692 l 1
EndSplineSet
Fore
SplineSet
543 692 m 1
 626 692 l 1
 626 0 l 1
 543 0 l 1
 543 332 l 1
 168 332 l 1
 168 0 l 1
 85 0 l 1
 85 692 l 1
 168 692 l 1
 168 405 l 1
 543 405 l 1
 543 692 l 1
EndSplineSet
EndChar
StartChar: I
Encoding: 73 73 40
GlifName: I_
Width: 253
Flags: HMW
AnchorPoint: "ogonek" 133 0 basechar 0
AnchorPoint: "cedilla" 127 0 basechar 0
AnchorPoint: "below" 127 0 basechar 0
AnchorPoint: "above" 127 692 basechar 0
LayerCount: 2
Back
SplineSet
65 692 m 1
 188 692 l 1
 188 0 l 1
 65 0 l 1
 65 692 l 1
EndSplineSet
Fore
SplineSet
85 692 m 1
 168 692 l 1
 168 0 l 1
 85 0 l 1
 85 692 l 1
EndSplineSet
EndChar
StartChar: J
Encoding: 74 74 46
Width: 399
Flags: HMW
AnchorPoint: "below" 158 0 basechar 0
AnchorPoint: "cedilla" 98 0 basechar 0
AnchorPoint: "above" 281 692 basechar 0
LayerCount: 4
Back
SplineSet
284 692 m 1
 407 692 l 1
 407 250 l 2
 407 141 379 -10 149 -10 c 3
 108 -10 61 -6 30 9 c 1
 50 117 l 1
 75 111 106 105 135 105 c 3
 278 105 284 207 284 250 c 2
 284 692 l 1
EndSplineSet
Fore
SplineSet
241 694 m 1
 324 694 l 1
 324 208 l 2
 324 64 251 -10 110 -10 c 3
 79 -10 48 -5 15 3 c 1
 28 73 l 1
 53 67 76 64 98 64 c 3
 192 64 241 110 241 204 c 2
 241 694 l 1
EndSplineSet
Validated: 1
Layer: 3
SplineSet
279.785 692.871 m 1
 362.793 692.871 l 1
 362.793 208.008 l 2
 362.793 179.96 362.197 151.6 355.017 124.486 c 0
 347.836 97.373 334.154 71.9062 314.821 51.5859 c 0
 295.488 31.2666 270.925 16.2461 244.562 6.66797 c 0
 218.201 -2.90918 190.14 -7.30664 162.109 -8.30078 c 0
 125.674 -9.5918 89.1025 -5.33594 53.7109 3.41797 c 1
 66.8945 72.7539 l 1
 96.5898 65.8213 127.333 62.8154 157.715 65.4297 c 0
 175.033 66.9199 192.275 70.3857 208.376 76.9395 c 0
 224.476 83.4932 239.365 93.2832 251.021 106.178 c 0
 262.678 119.074 270.858 134.977 275.147 151.822 c 0
 279.436 168.667 279.785 186.23 279.785 203.613 c 2
 279.785 692.871 l 1
EndSplineSet
EndChar
StartChar: K
Encoding: 75 75 43
Width: 631
Flags: MW
AnchorPoint: "cedilla" 315 0 basechar 0
AnchorPoint: "below" 315 0 basechar 0
AnchorPoint: "above" 315 692 basechar 0
LayerCount: 4
Back
SplineSet
85 694 m 5
 168 694 l 5
 168 0 l 5
 85 0 l 5
 85 694 l 5
473 694 m 5
 577 694 l 5
 284 363 l 5
 596 0 l 5
 489 0 l 5
 179 356 l 5
 473 694 l 5
EndSplineSet
Fore
SplineSet
85 694 m 1
 168 694 l 1
 168 0 l 1
 85 0 l 1
 85 694 l 1
473 694 m 1
 577 694 l 1
 284 363 l 1
 596 0 l 1
 489 0 l 1
 179 356 l 1
 473 694 l 1
EndSplineSet
Validated: 1
Layer: 3
SplineSet
535.273 693.848 m 1
 639.277 693.848 l 1
 320.43 334.473 l 1
 337.031 373.047 l 1
 657.832 0 l 1
 550.898 0.488281 l 1
 241.328 355.957 l 1
 535.273 693.848 l 1
146.602 693.848 m 1
 229.609 693.848 l 1
 229.609 0 l 1
 146.602 0 l 1
 146.602 693.848 l 1
EndSplineSet
EndChar
StartChar: L
Encoding: 76 76 33
Width: 504
Flags: HMW
AnchorPoint: "aboveright" 322 647 basechar 0
AnchorPoint: "below" 255 0 basechar 0
AnchorPoint: "cedilla" 255 0 basechar 0
AnchorPoint: "above" 128 692 basechar 0
LayerCount: 4
Fore
SplineSet
85 692 m 1
 168 692 l 1
 168 73 l 1
 479 73 l 1
 479 0 l 1
 85 0 l 1
 85 692 l 1
EndSplineSet
Validated: 1
Layer: 3
SplineSet
179.316 72.7539 m 5
 541.133 72.7539 l 5
 541.133 0 l 5
 179.316 0 l 5
 179.316 72.7539 l 5
146.602 693.848 m 5
 229.609 693.848 l 5
 229.609 0 l 5
 146.602 0 l 5
 146.602 693.848 l 5
EndSplineSet
EndChar
StartChar: M
Encoding: 77 77 44
Width: 845
Flags: MW
AnchorPoint: "cedilla" 423 0 basechar 0
AnchorPoint: "below" 423 0 basechar 0
AnchorPoint: "above" 423 692 basechar 0
LayerCount: 4
Back
SplineSet
80 692 m 1
 244 692 l 1
 431 314 l 1
 622 692 l 1
 780 692 l 1
 780 0 l 1
 657 0 l 1
 657 523 l 1
 481 178 l 1
 377 178 l 1
 203 523 l 1
 203 0 l 1
 80 0 l 1
 80 692 l 1
EndSplineSet
Fore
SplineSet
85 694 m 1
 202 694 l 1
 424 273 l 1
 651 694 l 1
 760 694 l 1
 760 0 l 1
 677 0 l 1
 677 575 l 1
 464 199 l 1
 381 199 l 1
 168 575 l 1
 168 0 l 1
 85 0 l 1
 85 694 l 1
EndSplineSet
Validated: 1
Layer: 3
SplineSet
146.602 693.848 m 5
 263.789 693.848 l 5
 517.695 213.379 l 5
 454.219 213.379 l 5
 712.52 693.848 l 5
 822.383 693.848 l 5
 822.383 0 l 5
 739.375 0 l 5
 739.375 666.504 l 5
 791.621 666.504 l 5
 525.996 198.73 l 5
 442.988 198.73 l 5
 177.476 666.504 l 5
 229.609 666.504 l 5
 229.609 0 l 5
 146.602 0 l 5
 146.602 693.848 l 5
EndSplineSet
EndChar
StartChar: N
Encoding: 78 78 36
Width: 736
Flags: MW
AnchorPoint: "below" 369 0 basechar 0
AnchorPoint: "cedilla" 369 0 basechar 0
AnchorPoint: "above" 369 670 basechar 0
LayerCount: 4
Back
SplineSet
85 694 m 5
 190 694 l 5
 568 113 l 5
 568 694 l 5
 651 694 l 5
 651 0 l 5
 546 0 l 5
 168 582 l 5
 168 0 l 5
 85 0 l 5
 85 694 l 5
EndSplineSet
Fore
SplineSet
85 694 m 1
 190 694 l 1
 568 113 l 1
 568 694 l 1
 651 694 l 1
 651 0 l 1
 546 0 l 1
 168 582 l 1
 168 0 l 1
 85 0 l 1
 85 694 l 1
EndSplineSet
Validated: 1
Layer: 3
SplineSet
146.602 693.848 m 1
 251.582 693.848 l 1
 663.691 60.5469 l 1
 629.512 60.5469 l 1
 629.512 693.848 l 1
 712.52 693.848 l 1
 712.52 0 l 1
 607.539 0 l 1
 190.171 642.09 l 1
 229.609 642.09 l 1
 229.609 0 l 1
 146.602 0 l 1
 146.602 693.848 l 1
EndSplineSet
EndChar
StartChar: O
Encoding: 79 79 31
GlifName: O_
Width: 752
Flags: HMW
AnchorPoint: "horn" 590 601 basechar 0
AnchorPoint: "cedilla" 378 0 basechar 0
AnchorPoint: "below" 378 0 basechar 0
AnchorPoint: "above" 376 692 basechar 0
LayerCount: 2
Back
SplineSet
387 706 m 3
 587 706 729 550 729 350 c 3
 729 150 587 -10 387 -10 c 3
 187 -10 45 150 45 350 c 3
 45 550 187 706 387 706 c 3
387 593 m 3
 247 593 168 470 168 350 c 3
 168 230 247 103 387 103 c 3
 527 103 606 230 606 350 c 3
 606 470 527 593 387 593 c 3
EndSplineSet
Fore
SplineSet
376 704 m 3
 573 704 697 544 697 344 c 3
 697 144 573 -12 376 -12 c 3
 179 -12 55 144 55 344 c 3
 55 544 179 704 376 704 c 3
376 61 m 3
 532 61 614 183 614 344 c 3
 614 505 532 631 376 631 c 3
 220 631 138 505 138 344 c 3
 138 183 220 61 376 61 c 3
EndSplineSet
EndChar
StartChar: P
Encoding: 80 80 49
GlifName: P_
Width: 543
Flags: HMW
AnchorPoint: "below" 263 0 basechar 0
AnchorPoint: "cedilla" 85 0 basechar 0
AnchorPoint: "above" 232 692 basechar 0
LayerCount: 2
Fore
SplineSet
508 485 m 3
 508 325 418 285 296 285 c 2
 126 285 l 1
 126 0 l 1
 43 0 l 1
 43 692 l 1
 296 692 l 2
 428 692 508 633 508 485 c 3
268 358 m 2
 358 358 424 372 424 490 c 3
 424 603 359 619 268 619 c 2
 126 619 l 1
 126 358 l 1
 268 358 l 2
EndSplineSet
Validated: 1
EndChar
StartChar: Q
Encoding: 81 81 52
GlifName: Q_
Width: 767
UnlinkRmOvrlpSave: 1
Flags: HMW
LayerCount: 2
Back
SplineSet
757 37 m 1
 686 -36 l 1
 589 53 l 1
 533 14 468 -10 392 -10 c 3
 192 -10 50 150 50 350 c 3
 50 550 192 706 392 706 c 3
 592 706 734 550 734 350 c 3
 734 260 708 185 663 125 c 1
 757 37 l 1
392 593 m 3
 252 593 173 470 173 350 c 3
 173 230 252 103 392 103 c 3
 427 103 468 114 501 133 c 1
 365 259 l 1
 439 338 l 1
 575 208 l 1
 595 244 611 293 611 350 c 3
 611 470 532 593 392 593 c 3
EndSplineSet
Fore
SplineSet
651 -27 m 1
 417 194 l 1
 468 247 l 1
 702 26 l 1
 651 -27 l 1
EndSplineSet
Refer: 31 79 N 1 0 0 1 0 0 2
EndChar
StartChar: R
Encoding: 82 82 47
Width: 623
Flags: HMW
AnchorPoint: "cedilla" 127 0 basechar 0
AnchorPoint: "below" 305 0 basechar 0
AnchorPoint: "above" 305 692 basechar 0
LayerCount: 4
Back
SplineSet
487 0 m 5
 300 288 l 5
 168 288 l 5
 168 0 l 5
 85 0 l 5
 85 694 l 5
 303 694 l 6
 379 694 399 686 416 681 c 4
 497 654 545 584 545 487 c 5
 544 394 481 324 386 298 c 5
 583 0 l 5
 487 0 l 5
257 360 m 4
 370 360 461 372 461 494 c 4
 461 569 414 611 345 618 c 4
 332 620 303 621 258 621 c 6
 168 621 l 5
 168 364 l 5
 201 361 231 360 257 360 c 4
EndSplineSet
Fore
SplineSet
487 0 m 1
 300 288 l 1
 168 288 l 1
 168 0 l 1
 85 0 l 1
 85 694 l 1
 303 694 l 2
 463 694 545 610 545 490 c 3
 545 400 481 324 386 298 c 1
 583 0 l 1
 487 0 l 1
257 362 m 3
 367 362 461 370 461 490 c 3
 461 600 378 619 258 619 c 2
 168 619 l 1
 168 362 l 1
 257 362 l 3
EndSplineSet
Validated: 1
Layer: 3
SplineSet
345.332 318.848 m 1
 435.664 318.848 l 1
 645.137 0 l 1
 552.363 0 l 1
 345.332 318.848 l 1
146.602 693.848 m 1
 401.484 693.848 l 2
 429.564 693.848 458.008 693.223 485.011 685.518 c 0
 512.017 677.817 537.09 663.086 556.27 642.578 c 0
 573.276 624.395 585.601 602.085 593.345 578.418 c 0
 601.084 554.756 604.492 529.78 604.609 504.883 c 0
 604.751 475.537 600.386 446.051 590.439 418.441 c 0
 580.498 390.831 564.546 365.231 543.086 345.215 c 0
 512.222 316.426 470.961 300.779 429.234 294.436 c 0
 387.507 288.09 345.058 289.062 302.852 289.062 c 2
 179.316 289.062 l 1
 179.316 362.305 l 1
 312.617 362.305 l 2
 340.389 362.305 368.229 361.325 395.893 363.756 c 0
 423.559 366.186 451.533 373.473 473.75 390.137 c 0
 489.385 401.865 501.709 417.826 509.658 435.684 c 0
 517.603 453.539 521.416 473.131 521.602 492.676 c 0
 521.763 509.819 519.121 527.051 513.184 543.135 c 0
 507.246 559.219 497.856 574.087 485.469 585.938 c 0
 468.93 601.758 447.328 611.665 424.932 616.382 c 0
 402.535 621.094 379.45 621.094 356.562 621.094 c 2
 230.098 621.094 l 1
 230.098 0 l 1
 146.602 0 l 1
 146.602 693.848 l 1
EndSplineSet
EndChar
StartChar: S
Encoding: 83 83 55
GlifName: S_
Width: 577
VWidth: 1023
Flags: HMW
AnchorPoint: "below" 286 0 basechar 0
AnchorPoint: "above" 296 692 basechar 0
LayerCount: 2
Fore
SplineSet
286 -10 m 263
 180 -10 114 19 60 49 c 5
 92 118 l 5
 131 93 209 63 288 63 c 263
 387 63 448 110 448 188 c 263
 448 361 66 259 66 518 c 263
 66 651 177 706 306 706 c 263
 389 706 453 688 507 657 c 5
 475 588 l 5
 435 612 364 633 308 633 c 263
 210 633 149 590 149 518 c 263
 149 343 531 449 531 188 c 263
 531 51 431 -10 286 -10 c 263
EndSplineSet
EndChar
StartChar: T
Encoding: 84 84 39
Width: 566
VWidth: 1023
Flags: MW
AnchorPoint: "cedilla" 283 0 basechar 0
AnchorPoint: "below" 283 0 basechar 0
AnchorPoint: "above" 283 692 basechar 0
LayerCount: 4
Fore
SplineSet
10 694 m 1
 556 694 l 1
 556 621 l 1
 324 621 l 1
 324 0 l 1
 241 0 l 1
 241 621 l 1
 10 621 l 1
 10 694 l 1
EndSplineSet
Validated: 1
Layer: 3
SplineSet
356.445 0 m 5
 273.438 0 l 5
 273.438 680.176 l 5
 356.445 680.176 l 5
 356.445 0 l 5
41.5039 693.848 m 5
 588.379 693.848 l 5
 588.379 620.605 l 5
 41.5039 620.605 l 5
 41.5039 693.848 l 5
EndSplineSet
EndChar
StartChar: U
Encoding: 85 85 51
Width: 682
Flags: MW
AnchorPoint: "horn" 592 601 basechar 0
AnchorPoint: "ogonek" 478 0 basechar 0
AnchorPoint: "below" 340 0 basechar 0
AnchorPoint: "cedilla" 340 0 basechar 0
AnchorPoint: "above" 340 692 basechar 0
LayerCount: 2
Fore
SplineSet
341 -10 m 259
 154 -10 76 81 76 268 c 2
 76 692 l 1
 158 692 l 1
 158 247 l 2
 158 126 218 63 341 63 c 3
 464 63 524 128 524 247 c 2
 524 692 l 1
 607 692 l 1
 607 268 l 2
 607 81 528 -10 341 -10 c 259
EndSplineSet
Validated: 1
EndChar
StartChar: V
Encoding: 86 86 37
Width: 607
Flags: MW
AnchorPoint: "cedilla" 304 0 basechar 0
AnchorPoint: "below" 304 0 basechar 0
AnchorPoint: "above" 304 670 basechar 0
LayerCount: 4
Back
SplineSet
10 694 m 5
 109 694 l 5
 307 88 l 5
 505 694 l 5
 597 694 l 5
 355 0 l 5
 252 0 l 5
 10 694 l 5
EndSplineSet
Fore
SplineSet
10 694 m 1
 109 694 l 1
 307 88 l 1
 505 694 l 1
 597 694 l 1
 355 0 l 1
 252 0 l 1
 10 694 l 1
EndSplineSet
Validated: 1
Layer: 3
SplineSet
68.3594 693.848 m 5
 166.992 693.848 l 5
 391.113 9.27734 l 5
 339.844 9.27734 l 5
 563.477 693.848 l 5
 654.785 693.848 l 5
 413.086 0 l 5
 310.059 0 l 5
 68.3594 693.848 l 5
EndSplineSet
EndChar
StartChar: W
Encoding: 87 87 53
GlifName: W_
Width: 975
Flags: HMW
AnchorPoint: "below" 486 0 basechar 0
AnchorPoint: "cedilla" 486 0 basechar 0
AnchorPoint: "above" 486 692 basechar 0
LayerCount: 2
Back
SplineSet
12 692 m 1
 142 692 l 1
 282 161 l 1
 449 692 l 1
 590 692 l 1
 725 161 l 1
 900 692 l 1
 1030 692 l 1
 784 0 l 1
 656 0 l 1
 515 531 l 1
 349 0 l 1
 221 0 l 1
 12 692 l 1
EndSplineSet
Fore
SplineSet
10 692 m 1
 104 692 l 1
 272 106 l 1
 441 692 l 1
 531 692 l 1
 714 106 l 1
 871 692 l 1
 965 692 l 1
 758 0 l 1
 669 0 l 1
 486 596 l 1
 316 0 l 1
 228 0 l 1
 10 692 l 1
EndSplineSet
EndChar
StartChar: X
Encoding: 88 88 41
Width: 619
Flags: MW
AnchorPoint: "cedilla" 310 0 basechar 0
AnchorPoint: "below" 310 0 basechar 0
AnchorPoint: "above" 310 692 basechar 0
LayerCount: 4
Back
SplineSet
336 463 m 1
 493 692 l 1
 632 692 l 1
 406 361 l 1
 652 0 l 1
 511 0 l 1
 336 258 l 1
 161 0 l 1
 20 0 l 1
 266 361 l 1
 40 692 l 1
 179 692 l 1
 336 463 l 1
EndSplineSet
Fore
SplineSet
487 694 m 1
 582 694 l 1
 363 364 l 1
 609 0 l 1
 502 0 l 1
 307 292 l 1
 112 0 l 1
 10 0 l 1
 260 362 l 1
 39 694 l 1
 140 694 l 1
 316 433 l 1
 487 694 l 1
EndSplineSet
Validated: 1
Layer: 3
SplineSet
83.0078 693.848 m 9
 183.594 693.848 l 25
 653.32 0 l 25
 545.898 0 l 17
 83.0078 693.848 l 9
530.762 693.848 m 9
 626.465 693.848 l 17
 386.23 333.984 l 1
 372.07 324.219 l 1
 156.25 0 l 1
 53.7109 0 l 1
 315.918 379.395 l 1
 332.031 389.16 l 1
 530.762 693.848 l 9
EndSplineSet
EndChar
StartChar: Y
Encoding: 89 89 42
Width: 564
Flags: MW
AnchorPoint: "below" 284 0 basechar 0
AnchorPoint: "cedilla" 284 0 basechar 0
AnchorPoint: "above" 284 692 basechar 0
LayerCount: 4
Back
SplineSet
7 692 m 1
 145 692 l 1
 320 425 l 1
 497 692 l 1
 636 692 l 1
 377 314 l 1
 377 0 l 1
 254 0 l 1
 254 314 l 1
 7 692 l 1
EndSplineSet
Fore
SplineSet
320 0 m 1
 237 0 l 1
 237 329 l 1
 8 694 l 1
 106 694 l 1
 283 407 l 1
 463 694 l 1
 556 694 l 1
 320 329 l 1
 320 0 l 1
EndSplineSet
Validated: 1
Layer: 3
SplineSet
48.8281 693.848 m 9
 146.973 693.848 l 25
 334.473 389.648 l 25
 314.453 393.066 l 25
 504.395 693.848 l 25
 597.168 693.848 l 25
 360.84 328.613 l 25
 360.84 0 l 25
 277.832 0 l 25
 277.832 328.613 l 17
 48.8281 693.848 l 9
EndSplineSet
EndChar
StartChar: Z
Encoding: 90 90 38
Width: 568
Flags: MW
AnchorPoint: "cedilla" 304 0 basechar 0
AnchorPoint: "below" 304 0 basechar 0
AnchorPoint: "above" 304 692 basechar 0
LayerCount: 4
Back
SplineSet
44 694 m 5
 575 694 l 5
 575 641 l 5
 140 73 l 5
 578 73 l 5
 578 0 l 5
 30 0 l 5
 30 54 l 5
 456 621 l 5
 44 621 l 5
 44 694 l 5
EndSplineSet
Fore
SplineSet
44 694 m 1
 535 694 l 1
 535 641 l 1
 135 73 l 1
 538 73 l 1
 538 0 l 1
 30 0 l 1
 30 54 l 1
 429 621 l 1
 44 621 l 1
 44 694 l 1
EndSplineSet
Validated: 1
Layer: 3
SplineSet
110.332 693.848 m 29
 640.605 693.848 l 17
 640.605 640.625 l 1
 206.035 73.2422 l 9
 653.789 73.2422 l 25
 653.789 0 l 25
 95.6836 0 l 17
 95.6836 54.1992 l 1
 521.953 620.605 l 9
 110.332 620.605 l 29
 110.332 693.848 l 29
EndSplineSet
EndChar
StartChar: bracketleft
Encoding: 91 91 70
Width: 324
VWidth: 1023
Flags: MW
LayerCount: 4
Back
SplineSet
159.668 737.793 m 5xd0
 345.703 737.793 l 5
 345.703 665.039 l 5xe0
 159.668 665.039 l 5
 159.668 737.793 l 5xd0
159.668 -127.441 m 5xd0
 345.703 -127.441 l 5
 345.703 -200.195 l 5xe0
 159.668 -200.195 l 5
 159.668 -127.441 l 5xd0
122.07 737.793 m 5
 202.148 737.793 l 5
 202.148 -200.195 l 5xd0
 122.07 -200.195 l 5
 122.07 737.793 l 5
EndSplineSet
Fore
SplineSet
304 -208 m 1
 80 -208 l 1
 80 730 l 1
 304 730 l 1
 304 657 l 1
 160 657 l 1
 160 -135 l 1
 304 -135 l 1
 304 -208 l 1
EndSplineSet
Validated: 1
Layer: 3
SplineSet
159.668 737.793 m 5
 345.703 737.793 l 5
 345.703 665.039 l 5
 159.668 665.039 l 5
 159.668 737.793 l 5
159.668 -127.441 m 5
 345.703 -127.441 l 5
 345.703 -200.195 l 5
 159.668 -200.195 l 5
 159.668 -127.441 l 5
122.07 737.793 m 5
 202.148 737.793 l 5
 202.148 -200.195 l 5
 122.07 -200.195 l 5
 122.07 737.793 l 5
EndSplineSet
EndChar
StartChar: backslash
Encoding: 92 92 75
Width: 354
VWidth: 1023
Flags: MW
LayerCount: 4
Fore
SplineSet
10 694 m 1
 93 694 l 1
 335 -44 l 1
 252 -44 l 1
 10 694 l 1
EndSplineSet
Validated: 1
Layer: 3
SplineSet
9.76562 693.848 m 1
 92.7734 693.848 l 1
 334.961 -43.9453 l 1
 251.953 -43.9453 l 1
 9.76562 693.848 l 1
EndSplineSet
EndChar
StartChar: bracketright
Encoding: 93 93 71
Width: 324
VWidth: 1023
Flags: MW
LayerCount: 4
Fore
SplineSet
244 -208 m 1
 20 -208 l 1
 20 -135 l 1
 164 -135 l 1
 164 657 l 1
 20 657 l 1
 20 730 l 1
 244 730 l 1
 244 -208 l 1
EndSplineSet
Validated: 1
Layer: 3
SplineSet
24.4141 737.793 m 5
 210.449 737.793 l 5
 210.449 665.039 l 5
 24.4141 665.039 l 5
 24.4141 737.793 l 5
24.4141 -127.441 m 5
 210.449 -127.441 l 5
 210.449 -200.195 l 5
 24.4141 -200.195 l 5
 24.4141 -127.441 l 5
167.969 737.793 m 5
 248.047 737.793 l 5
 248.047 -200.195 l 5
 167.969 -200.195 l 5
 167.969 737.793 l 5
EndSplineSet
EndChar
StartChar: asciicircum
Encoding: 94 94 90
Width: 486
VWidth: 1023
Flags: MW
LayerCount: 4
Fore
SplineSet
248 713 m 1
 413 534 l 1
 361 484 l 1
 242 613 l 1
 123 487 l 1
 73 532 l 1
 248 713 l 1
EndSplineSet
Validated: 1
Layer: 3
SplineSet
248.00390625 752.44140625 m 29
 373.00390625 612.79296875 l 21
 327.59375 569.82421875 l 5
 219.68359375 689.94140625 l 5
 273.8828125 699.70703125 l 5
 153.27734375 570.311523438 l 13
 110.30859375 608.3984375 l 29
 248.00390625 752.44140625 l 29
EndSplineSet
EndChar
StartChar: underscore
Encoding: 95 95 85
Width: 566
VWidth: 1023
Flags: MW
LayerCount: 4
Fore
SplineSet
73 73 m 5
 493 73 l 1
 493 0 l 1
 73 0 l 1
 73 73 l 5
EndSplineSet
Validated: 1
Layer: 3
SplineSet
73.2422 73.2422 m 1
 493.164 73.2422 l 1
 493.164 0 l 1
 73.2422 0 l 1
 73.2422 73.2422 l 1
EndSplineSet
EndChar
StartChar: grave
Encoding: 96 96 89
Width: 400
VWidth: 0
Flags: HMW
LayerCount: 4
Fore
Refer: 571 768 N 1 0 0 1 200 0 2
Validated: 1
Layer: 3
SplineSet
368.45703125 774.4140625 m 29
 614.55078125 623.046875 l 25
 583.7890625 570.311523438 l 25
 333.7890625 714.35546875 l 25
 368.45703125 774.4140625 l 29
EndSplineSet
EndChar
StartChar: a
Encoding: 97 97 0
GlifName: a
Width: 481
UnlinkRmOvrlpSave: 1
Flags: HMW
AnchorPoint: "ogonek" 389 0 basechar 0
AnchorPoint: "cedilla" 234 0 basechar 0
AnchorPoint: "below" 234 0 basechar 0
AnchorPoint: "above" 237 482 basechar 0
LayerCount: 2
Fore
SplineSet
343 46 m 5
 295 9 245 -10 194 -10 c 7
 111 -10 38 44 38 125 c 7
 38 267 185 284 341 284 c 5
 341 218 l 5
 234 218 118 216 118 134 c 7
 118 86 158 56 206 56 c 7
 269 56 307 79 343 109 c 5
 343 46 l 5
229 428 m 7
 175 428 123 409 97 396 c 5
 73 458 l 5
 113 477 170 494 240 494 c 7
 368 494 423 439 423 316 c 6
 423 0 l 5
 361 0 l 5
 341 46 l 5
 341 284 l 5
 341 401 312 428 229 428 c 7
EndSplineSet
EndChar
StartChar: b
Encoding: 98 98 9
Width: 551
Flags: HMW
AnchorPoint: "cedilla" 257 0 basechar 0
AnchorPoint: "below" 257 0 basechar 0
AnchorPoint: "above" 110 718 basechar 0
LayerCount: 4
Back
SplineSet
87.7734375 737.79296875 m 1
 167.8515625 737.79296875 l 1
 167.8515625 56.15234375 l 1
 143.438476562 0 l 1
 87.7734375 0 l 1
 87.7734375 737.79296875 l 1
  Spiro
    167.852 737.793 v
    167.852 56.1523 v
    143.438 0 v
    87.7734 0 v
    87.7734 737.793 v
    0 0 z
  EndSpiro
282.109375 491.69921875 m 0
 317.420898438 493.80859375 353.393554688 488.486328125 385.794921875 474.2890625 c 0
 418.1953125 460.092773438 446.553710938 436.806640625 466.6796875 407.71484375 c 0
 494.995117188 366.788085938 506.77734375 316.310546875 509.16015625 266.6015625 c 0
 510.853515625 231.1953125 508.115234375 195.452148438 499.462890625 161.078125 c 0
 490.805664062 126.703125 475.646484375 93.68359375 453.0078125 66.40625 c 0
 431.202148438 40.1318359375 402.646484375 19.595703125 370.9765625 6.8359375 c 0
 334.532226562 -7.84765625 294.330078125 -12.4111328125 255.25390625 -8.30078125 c 0
 227.7578125 -5.408203125 200.740234375 1.6767578125 175.17578125 12.20703125 c 0
 160.489257812 18.2568359375 146.2734375 25.4501953125 132.6953125 33.69140625 c 1
 159.061523438 79.58984375 l 1
 174.47265625 72.3798828125 190.494140625 66.46875 206.9140625 62.01171875 c 0
 238.01171875 53.5703125 270.857421875 50.2265625 302.6171875 55.6640625 c 0
 323.466796875 59.2333984375 343.720703125 66.716796875 361.435546875 78.2763671875 c 0
 379.150390625 89.8359375 394.16796875 105.4609375 405.15625 123.53515625 c 0
 418.744140625 145.88671875 426.1015625 171.624023438 429.2421875 197.59375 c 0
 432.3828125 223.561523438 431.84765625 249.923828125 428.59375 275.87890625 c 0
 425.546875 300.182617188 419.755859375 324.3984375 408.57421875 346.19140625 c 0
 395.170898438 372.314453125 373.576171875 394.146484375 347.5390625 407.71484375 c 0
 318.97265625 422.603515625 285.901367188 427.853515625 253.7890625 425.29296875 c 0
 204.857421875 421.392578125 157.780273438 400.15625 120.9765625 367.67578125 c 1
 102.421875 413.0859375 l 1
 151.337890625 458.370117188 215.569335938 487.723632812 282.109375 491.69921875 c 0
  Spiro
    282.109 491.699 o
    466.68 407.715 o
    509.16 266.602 o
    453.008 66.4062 o
    370.977 6.83594 o
    255.254 -8.30078 o
    175.176 12.207 o
    132.695 33.6914 v
    159.062 79.5898 v
    206.914 62.0117 o
    302.617 55.6641 o
    405.156 123.535 o
    428.594 275.879 o
    408.574 346.191 o
    347.539 407.715 o
    253.789 425.293 o
    120.977 367.676 v
    102.422 413.086 v
    0 0 z
  EndSpiro
EndSplineSet
Fore
SplineSet
262 59 m 3
 368 59 420 132 420 240 c 3
 420 348 366 421 261 421 c 3
 223 421 188 413 153 398 c 1
 153 96 l 1
 187 77 213 59 262 59 c 3
280 -10 m 3
 232 -10 188 4 145 32 c 1
 129 0 l 1
 70 0 l 1
 70 718 l 1
 153 718 l 1
 153 471 l 1
 191 487 230 494 269 494 c 3
 414 494 503 390 503 240 c 3
 503 96 428 -10 280 -10 c 3
EndSplineSet
Validated: 1
Layer: 3
Refer: 1 100 S -1 0 0 1 574.15 0 2
EndChar
StartChar: c
Encoding: 99 99 18
GlifName: c
Width: 456
Flags: HMW
AnchorPoint: "cedilla" 278 0 basechar 0
AnchorPoint: "below" 260 0 basechar 0
AnchorPoint: "above" 260 482 basechar 0
LayerCount: 2
Fore
SplineSet
284 -10 m 3
 132 -10 48 87 48 242 c 3
 48 393 130 494 281 494 c 3
 327 494 376 482 422 458 c 1
 405 402 l 1
 371 418 334 425 292 425 c 3
 185 425 131 360 131 242 c 3
 131 117 187 58 294 58 c 3
 353 58 401 87 414 95 c 1
 431 38 l 1
 412 20 354 -10 284 -10 c 3
EndSplineSet
Validated: 1
EndChar
StartChar: d
Encoding: 100 100 1
Width: 551
Flags: HMW
AnchorPoint: "aboveright" 551 669.265 basechar 0
AnchorPoint: "cedilla" 290 0 basechar 0
AnchorPoint: "below" 290 0 basechar 0
AnchorPoint: "above" 439 717 basechar 0
LayerCount: 4
Back
SplineSet
401.227 737.793 m 5
 481.305 737.793 l 5
 481.305 0 l 5
 425.641 0 l 5
 401.227 56.1523 l 5
 401.227 737.793 l 5
  Spiro
    401.227 737.793 v
    481.305 737.793 v
    481.305 0 v
    425.641 0 v
    401.227 56.1523 v
    0 0 z
  EndSpiro
311.871 490.723 m 4
 339.368 487.835 366.386 480.747 391.949 470.215 c 4
 406.635 464.164 420.85 456.971 434.43 448.73 c 5
 408.062 402.832 l 5
 392.656 410.052 376.633 415.962 360.211 420.41 c 4
 329.111 428.834 296.273 432.145 264.508 426.758 c 4
 243.643 423.219 223.355 415.787 205.623 404.235 c 4
 187.891 392.684 172.89 377.015 161.969 358.887 c 4
 141.717 325.27 135.606 284.852 135.602 245.605 c 4
 135.597 207.99 141.029 169.516 158.551 136.23 c 4
 172.215 110.273 193.643 88.3984 219.586 74.707 c 4
 248.09 59.6641 281.219 54.4414 313.336 57.1289 c 4
 362.223 61.2188 409.162 82.5176 446.148 114.746 c 5
 464.703 69.3359 l 5
 415.938 23.8525 351.593 -5.4873 285.016 -9.27734 c 4
 249.725 -11.2861 213.805 -5.85742 181.435 8.34277 c 4
 149.064 22.5439 120.682 45.7246 100.445 74.707 c 4
 68.2988 120.746 57.1855 178.712 57.4766 234.863 c 4
 57.6445 267.123 61.4551 299.472 70.3281 330.487 c 4
 79.2002 361.503 93.5508 391.162 114.117 416.016 c 4
 135.887 442.324 164.469 462.843 196.148 475.586 c 4
 232.6 490.249 272.796 494.824 311.871 490.723 c 4
  Spiro
    311.871 490.723 o
    391.949 470.215 o
    434.43 448.73 v
    408.062 402.832 v
    360.211 420.41 o
    264.508 426.758 o
    161.969 358.887 o
    135.602 245.605 o
    158.551 136.23 o
    219.586 74.707 o
    313.336 57.1289 o
    446.148 114.746 v
    464.703 69.3359 v
    285.016 -9.27734 o
    100.445 74.707 o
    57.4766 234.863 o
    114.117 416.016 o
    196.148 475.586 o
    0 0 z
  EndSpiro
EndSplineSet
Fore
SplineSet
289 59 m 3
 338 59 364 70 398 89 c 1
 398 407 l 1
 363 422 328 428 290 428 c 3
 183 428 131 347 131 240 c 3
 131 132 183 59 289 59 c 3
271 -10 m 3
 123 -10 48 96 48 240 c 3
 48 390 137 494 282 494 c 3
 321 494 360 487 398 471 c 1
 398 718 l 1
 481 718 l 1
 481 0 l 1
 422 0 l 1
 406 32 l 1
 363 4 319 -10 271 -10 c 3
EndSplineSet
Validated: 1
Layer: 3
SplineSet
400.055 54.6387 m 1
 423.785 0.585938 l 1
 482.672 0.585938 l 1
 482.672 670.752 l 1
 400.055 670.752 l 1
 400.055 54.6387 l 1
406.207 468.164 m 1
 366.217 485.742 328.863 494.531 284.039 494.531 c 0
 155.719 494.531 49.8105 406.201 49.8105 236.572 c 0
 49.8105 92.8711 130.23 -9.08203 269.098 -9.08203 c 0
 329.303 -9.08203 376.764 10.2539 416.314 38.3789 c 1
 416.314 38.3789 406.646 92.4316 406.207 92.8711 c 1
 372.369 73.5352 342.047 58.5938 291.07 58.5938 c 0
 187.799 58.5938 134.625 131.982 134.625 243.164 c 0
 134.625 355.664 191.754 429.932 291.949 429.932 c 0
 342.047 429.932 370.611 420.703 406.207 404.443 c 1
 406.207 468.164 l 1
EndSplineSet
EndChar
StartChar: e
Encoding: 101 101 2
GlifName: e
Width: 511
UnlinkRmOvrlpSave: 1
Flags: HMW
AnchorPoint: "ogonek" 408 17 basechar 0
AnchorPoint: "above" 259 482 basechar 0
AnchorPoint: "below" 289 0 basechar 0
AnchorPoint: "cedilla" 289 0 basechar 0
LayerCount: 2
Fore
SplineSet
293 56 m 3
 356 56 393 68 435 86 c 1
 452 29 l 1
 416 4 358 -10 291 -10 c 3
 134 -10 48 81 48 242 c 3
 48 385 124 494 267 494 c 3
 391 494 467 414 467 284 c 2
 467 218 l 1
 132 218 l 1
 138 129 176 56 293 56 c 3
134 284 m 1
 384 284 l 1
 384 368 354 429 266 429 c 3
 187 429 145 361 134 284 c 1
EndSplineSet
Validated: 1
EndChar
StartChar: f
Encoding: 102 102 27
Width: 355
Flags: HMW
AnchorPoint: "cedilla" 136 0 basechar 0
AnchorPoint: "below" 244 0 basechar 0
AnchorPoint: "above" 251 718 basechar 0
LayerCount: 4
Back
SplineSet
100 545 m 3
 100 598 123 730 297 730 c 3
 323 730 363 728 422 710 c 1
 439 705 l 1
 421 618 l 1
 401 623 l 2
 387 626 355 633 326 633 c 3
 261 633 220 595 220 549 c 2
 220 481 l 1
 401 481 l 1
 401 389 l 1
 220 389 l 1
 220 0 l 1
 180 -0 140 0 100 0 c 1
 100 389 l 1
 20 389 l 1
 20 481 l 1
 100 481 l 1
 100 545 l 3
EndSplineSet
Fore
SplineSet
281 666 m 3
 208 666 178 625 178 561 c 2
 178 482 l 1
 337 482 l 1
 337 419 l 1
 178 419 l 1
 178 0 l 1
 95 0 l 1
 95 419 l 1
 25 419 l 1
 25 482 l 1
 95 482 l 1
 95 564 l 2
 95 679 153 730 256 730 c 3
 297 730 338 722 372 712 c 1
 359 652 l 1
 328 661 303 666 281 666 c 3
EndSplineSet
Validated: 1
Layer: 3
SplineSet
230.957 687.988 m 0
 269.694 700.742 311.797 699.424 352.051 692.871 c 0
 372.523 689.541 392.756 684.756 412.598 678.711 c 1
 400.391 619.141 l 1
 390.569 621.855 380.629 624.146 370.605 625.977 c 0
 339.207 631.714 306.098 633.809 275.879 623.535 c 0
 256.685 617.007 239.143 604.536 228.805 587.1 c 0
 223.635 578.379 220.302 568.628 218.586 558.638 c 0
 216.871 548.647 216.778 538.457 216.797 528.32 c 2
 217.773 0 l 1
 136.719 0 l 1
 135.742 531.25 l 2
 135.712 547.847 135.84 564.517 138.504 580.898 c 0
 141.167 597.28 146.365 613.315 154.57 627.739 c 0
 170.982 656.587 199.432 677.607 230.957 687.988 c 0
65.918 482.422 m 1
 378.418 482.422 l 1
 378.418 419.434 l 1
 65.918 419.434 l 1
 65.918 482.422 l 1
EndSplineSet
EndChar
StartChar: g
Encoding: 103 103 30
GlifName: g
Width: 563
UnlinkRmOvrlpSave: 1
Flags: HMW
AnchorPoint: "above" 279 482 basechar 0
AnchorPoint: "below" 269 -226 basechar 0
AnchorPoint: "cedilla" 269 -226 basechar 0
LayerCount: 2
Fore
SplineSet
261 -12 m 3
 122 -12 48 111 48 239 c 3
 48 375 111 494 249 494 c 3
 292 494 356 485 411 447 c 1
 403 391 l 1
 355 419 310 424 269 424 c 3
 161 424 134 331 134 244 c 3
 134 140 174 54 282 54 c 3
 337 54 365 69 403 96 c 1
 410 40 l 1
 366 7 330 -12 261 -12 c 3
400 -20 m 2
 400 448 l 1
 424 482 l 1
 483 482 l 1
 483 -26 l 2
 483 -158 401 -230 272 -230 c 3
 180 -230 117 -195 94 -182 c 1
 118 -120 l 1
 128 -126 196 -165 261 -165 c 3
 362 -165 400 -115 400 -20 c 2
EndSplineSet
EndChar
StartChar: h
Encoding: 104 104 3
GlifName: h
Width: 533
UnlinkRmOvrlpSave: 1
Flags: HMW
AnchorPoint: "cedilla" 273 0 basechar 0
AnchorPoint: "below" 273 0 basechar 0
AnchorPoint: "above" 123 718 basechar 0
LayerCount: 2
Fore
SplineSet
155 436 m 1
 213 475 271 494 327 494 c 3
 430 494 485 432 485 329 c 2
 485 0 l 1
 402 0 l 1
 402 309 l 2
 402 390 376 424 297 424 c 3
 256 424 211 410 163 380 c 1
 155 436 l 1
164 0 m 1
 81 0 l 1
 81 718 l 1
 164 718 l 1
 164 0 l 1
EndSplineSet
EndChar
StartChar: i
Encoding: 105 105 4
GlifName: i
Width: 241
Flags: HMW
AnchorPoint: "ogonek" 134 0 basechar 0
AnchorPoint: "cedilla" 110 0 basechar 0
AnchorPoint: "below" 110 0 basechar 0
LayerCount: 2
Back
SplineSet
125 560 m 256
 95 560 71 584 71 614 c 256
 71 644 95 668 125 668 c 256
 155 668 179 644 179 614 c 256
 179 584 155 560 125 560 c 256
81 482 m 257
 161 482 l 257
 161 0 l 257
 81 0 l 257
 81 482 l 257
EndSplineSet
Fore
Refer: 569 775 N 1 0 0 1 121 0 2
Refer: 140 305 N 1 0 0 1 0 0 3
EndChar
StartChar: j
Encoding: 106 106 23
Width: 218
Flags: HMW
AnchorPoint: "cedilla" 48 -232 basechar 0
AnchorPoint: "below" 110 -261 basechar 0
LayerCount: 4
Back
SplineSet
155 530 m 259
 116 530 81 565 81 604 c 259
 81 643 116 678 155 678 c 259
 194 678 229 643 229 604 c 259
 229 565 194 530 155 530 c 259
95 482 m 1
 215 482 l 1
 215 -47 l 2
 215 -109 210 -210 73 -260 c 1
 56 -266 l 1
 9 -171 l 1
 27 -162 l 2
 92 -131 95 -81 95 -55 c 2
 95 482 l 1
EndSplineSet
Fore
Refer: 573 775 N 1 0 0 1 111 0 2
Refer: 323 567 N 1 0 0 1 0 0 3
Layer: 3
SplineSet
84.8057 669.595 m 5
 167.4 669.595 l 5
 167.4 586.562 l 5
 84.8057 586.562 l 5
 84.8057 669.595 l 5
167.969 -63.9648 m 2
 167.969 -116.699 169.434 -214.844 38.0859 -262.695 c 1
 7.8125 -202.148 l 1
 95.2148 -161.133 86.9141 -80.0781 86.9141 -68.3594 c 2
 85.9375 482.422 l 1
 166.016 482.422 l 1
 167.969 -63.9648 l 2
EndSplineSet
EndChar
StartChar: k
Encoding: 107 107 22
GlifName: k
Width: 484
UnlinkRmOvrlpSave: 1
Flags: HMW
AnchorPoint: "cedilla" 397 0 basechar 0
AnchorPoint: "below" 259 0 basechar 0
AnchorPoint: "above" 117 718 basechar 0
LayerCount: 2
Back
SplineSet
75 718 m 5
 158 718 l 5
 158 0 l 5
 75 0 l 5
 75 718 l 5
484 0 m 5
 396 0 l 5
 234 253 l 5
 286 308 l 5
 484 0 l 5
118 111 m 5
 79 171 l 5
 372 482 l 5
 465 482 l 5
 118 111 l 5
EndSplineSet
Fore
SplineSet
75 718 m 1
 158 718 l 1
 158 0 l 1
 75 0 l 1
 75 718 l 1
118 111 m 1
 79 181 l 1
 364 482 l 1
 465 482 l 1
 302 309 l 1
 484 0 l 1
 396 0 l 1
 250 252 l 1
 118 111 l 1
EndSplineSet
EndChar
StartChar: l
Encoding: 108 108 10
GlifName: l
Width: 251
Flags: HMWO
AnchorPoint: "aboveright" 254 647 basechar 0
AnchorPoint: "above" 115 718 basechar 0
LayerCount: 2
Fore
SplineSet
209 59 m 3
 220 59 227 60 235 62 c 1
 251 -1 l 1
 241 -5 223 -10 198 -10 c 3
 121 -10 71 37 71 105 c 2
 71 718 l 1
 154 718 l 1
 154 134 l 2
 154 94 156 59 209 59 c 3
EndSplineSet
EndChar
StartChar: m
Encoding: 109 109 17
Width: 797
Flags: HMW
AnchorPoint: "cedilla" 390 0 basechar 0
AnchorPoint: "below" 390 0 basechar 0
AnchorPoint: "above" 390 482 basechar 0
LayerCount: 4
Back
SplineSet
144 481 m 1
 160 449 l 1
 188 461 251 491 317 491 c 3
 378 491 417 470 441 440 c 1
 473 455 547 491 619 491 c 3
 776 491 784 358 784 274 c 2
 784 0 l 1
 664 0 l 1
 664 295 l 2
 664 331 654 393 587 393 c 3
 556 393 525 384 475 363 c 1
 481 332 482 301 482 274 c 2
 482 0 l 1
 442 0 402 0 362 0 c 1
 362 295 l 2
 362 331 352 393 285 393 c 3
 263 393 233 388 180 366 c 1
 180 0 l 1
 60 0 l 1
 60 481 l 1
 144 481 l 1
EndSplineSet
Fore
SplineSet
649 307 m 2
 649 381 621 426 554 426 c 3
 520 426 485 411 438 383 c 1
 442 369 443 350 443 327 c 2
 443 0 l 1
 360 0 l 1
 360 307 l 2
 360 381 333 426 265 426 c 3
 234 426 196 413 153 389 c 1
 153 0 l 1
 70 0 l 1
 70 482 l 1
 128 482 l 1
 144 450 l 1
 194 482 231 494 291 494 c 3
 348 494 389 478 414 442 c 1
 463 476 515 494 580 494 c 3
 681 494 732 424 732 327 c 2
 732 0 l 1
 649 0 l 1
 649 307 l 2
EndSplineSet
Validated: 1
Layer: 3
SplineSet
425.898 360.352 m 1
 445.133 374.965 465.754 387.759 487.422 398.438 c 0
 502.012 405.629 517.065 411.93 532.568 416.855 c 0
 552.358 423.142 573.257 427.123 593.887 424.773 c 0
 607.695 423.201 621.216 418.727 632.993 411.355 c 0
 647.441 402.319 659.062 388.906 666.147 373.41 c 0
 675.571 352.801 676.421 329.451 676.421 306.789 c 2
 676.421 0 l 1
 757.593 0 l 1
 757.593 326.428 l 2
 757.593 341.562 757.275 356.771 754.59 371.668 c 0
 751.904 386.563 747.041 401.066 740.142 414.539 c 0
 728.081 438.086 709.702 458.561 686.855 471.902 c 0
 659.995 487.59 628.096 493.047 596.997 492.261 c 0
 579.546 491.816 562.129 489.37 545.312 484.693 c 0
 526.729 479.523 509.009 471.611 491.988 462.535 c 0
 466.949 449.182 443.066 433.749 419.789 417.52 c 1
 425.898 360.352 l 1
132.93 360.352 m 1
 152.164 374.965 172.785 387.759 194.453 398.438 c 0
 209.045 405.629 224.096 411.93 239.6 416.855 c 0
 259.39 423.142 280.289 427.123 300.92 424.773 c 0
 314.727 423.201 328.245 418.727 340.027 411.355 c 0
 354.473 402.319 366.094 388.906 373.18 373.41 c 0
 382.602 352.801 383.454 329.451 383.454 306.789 c 2
 383.454 0 l 1
 464.625 0 l 1
 464.625 326.428 l 2
 464.625 341.562 464.307 356.771 461.621 371.668 c 0
 458.936 386.563 454.07 401.066 447.171 414.539 c 0
 435.113 438.086 416.732 458.561 393.889 471.902 c 0
 367.025 487.59 335.129 493.047 304.029 492.261 c 0
 286.579 491.816 269.162 489.37 252.345 484.693 c 0
 233.762 479.523 216.037 471.611 199.02 462.535 c 0
 173.98 449.182 150.098 433.749 126.82 417.52 c 1
 132.93 360.352 l 1
151.088 480.041 m 1
 94.3555 480.041 l 1
 94.3555 0 l 1
 176.398 0 l 1
 176.398 423.744 l 1
 151.088 480.041 l 1
EndSplineSet
EndChar
StartChar: n
Encoding: 110 110 5
GlifName: n
Width: 538
Flags: HMW
AnchorPoint: "cedilla" 267 0 basechar 0
AnchorPoint: "below" 267 0 basechar 0
AnchorPoint: "above" 267 482 basechar 0
LayerCount: 2
Fore
SplineSet
393 310 m 6
 393 391 367 425 288 425 c 7
 247 425 202 414 154 391 c 5
 154 0 l 5
 71 0 l 5
 71 482 l 5
 128 482 l 5
 146 447 l 5
 204 479 262 495 318 495 c 7
 421 495 476 433 476 330 c 6
 476 0 l 5
 393 0 l 5
 393 310 l 6
EndSplineSet
Validated: 1
EndChar
StartChar: o
Encoding: 111 111 6
GlifName: o
Width: 567
Flags: HMW
AnchorPoint: "horn" 424 445 basechar 0
AnchorPoint: "cedilla" 283 0 basechar 0
AnchorPoint: "below" 283 0 basechar 0
AnchorPoint: "above" 286 482 basechar 0
LayerCount: 2
Fore
SplineSet
284 -11 m 259
 133 -11 48 88 48 240 c 3
 48 393 135 494 286 494 c 259
 437 494 519 394 519 241 c 3
 519 89 435 -11 284 -11 c 259
286 428 m 3
 186 428 131 349 131 240 c 259
 131 132 184 55 284 55 c 3
 384 55 436 133 436 241 c 3
 436 350 386 428 286 428 c 3
EndSplineSet
EndChar
StartChar: p
Encoding: 112 112 15
GlifName: p
Width: 557
UnlinkRmOvrlpSave: 1
Flags: HMW
AnchorPoint: "cedilla" 274 -261 basechar 0
AnchorPoint: "below" 274 -261 basechar 0
AnchorPoint: "above" 274 482 basechar 0
LayerCount: 2
Fore
SplineSet
296 -10 m 7
 227 -10 191 8 147 40 c 5
 154 96 l 5
 192 70 220 56 275 56 c 7
 383 56 423 141 423 244 c 7
 423 331 396 425 288 425 c 7
 247 425 202 413 154 391 c 5
 146 447 l 5
 201 479 265 495 308 495 c 7
 446 495 509 376 509 239 c 7
 509 112 435 -10 296 -10 c 7
156 448 m 5
 156 -248 l 5
 73 -248 l 5
 73 482 l 5
 132 482 l 5
 156 448 l 5
EndSplineSet
Validated: 5
EndChar
StartChar: q
Encoding: 113 113 16
GlifName: q
Width: 564
UnlinkRmOvrlpSave: 1
Flags: HMW
AnchorPoint: "cedilla" 300 -261 basechar 0
AnchorPoint: "below" 300 -261 basechar 0
AnchorPoint: "above" 300 482 basechar 0
LayerCount: 2
Fore
SplineSet
261 -12 m 3
 122 -12 48 111 48 239 c 3
 48 375 111 494 249 494 c 3
 292 494 356 485 411 447 c 1
 403 391 l 1
 355 419 310 424 269 424 c 3
 161 424 134 331 134 244 c 3
 134 140 174 54 282 54 c 3
 337 54 365 69 403 96 c 1
 410 40 l 1
 366 7 330 -12 261 -12 c 3
401 448 m 1
 425 482 l 1
 484 482 l 1
 484 -218 l 1
 401 -218 l 1
 401 448 l 1
EndSplineSet
EndChar
StartChar: r
Encoding: 114 114 20
GlifName: r
Width: 361
Flags: HMW
AnchorPoint: "cedilla" 107 0 basechar 0
AnchorPoint: "below" 107 0 basechar 0
AnchorPoint: "above" 196 482 basechar 0
LayerCount: 2
Back
SplineSet
343.856895089 416.170338391 m 5
 329.228694199 422.161318553 310.826848816 425 288 425 c 7
 247 425 202 407.529411765 154 371 c 5
 154 0 l 5
 71 0 l 5
 71 482 l 5
 128 482 l 5
 146 427 l 5
 204 472.333333333 262 495 318 495 c 7
 333.357792609 495 347.64843788 493.621601356 360.848731285 490.934417655 c 5
 343.856895089 416.170338391 l 5
EndSplineSet
Fore
SplineSet
334 415 m 5
 322 420 307 424 288 424 c 7
 235 424 170 373 154 337 c 5
 154 0 l 5
 71 0 l 5
 71 482 l 5
 128 482 l 5
 146 401 l 5
 191 465 245 494 308 494 c 7
 331 494 338 493 351 490 c 5
 334 415 l 5
EndSplineSet
Validated: 1
EndChar
StartChar: s
Encoding: 115 115 7
GlifName: s
Width: 458
Flags: HMW
AnchorPoint: "below" 232 0 basechar 0
AnchorPoint: "above" 232 482 basechar 0
LayerCount: 2
Fore
SplineSet
74 90 m 257
 93 81 147 56 203 56 c 259
 265 56 325 74 325 126 c 259
 325 235 53 176 53 359 c 259
 53 458 150 494 247 494 c 259
 323 494 370 471 394 458 c 257
 370 396 l 257
 352 408 311 428 259 428 c 259
 188 428 136 405 136 354 c 259
 136 253 408 289 408 129 c 259
 408 37 335 -10 216 -10 c 259
 142 -10 76 11 50 28 c 257
 74 90 l 257
EndSplineSet
EndChar
StartChar: t
Encoding: 116 116 19
GlifName: t
Width: 371
Flags: HMW
AnchorPoint: "aboveright" 309 682 basechar 0
AnchorPoint: "cedilla" 240 0 basechar 0
AnchorPoint: "below" 195 0 basechar 0
AnchorPoint: "above" 155 615 basechar 0
LayerCount: 2
Fore
SplineSet
254 -10 m 7
 152 -10 111 40 111 105 c 6
 111 416 l 5
 30 416 l 5
 30 482 l 5
 111 482 l 5
 111 617 l 5
 194 617 l 5
 194 482 l 5
 332 482 l 5
 332 416 l 5
 194 416 l 5
 194 134 l 6
 194 96 199 59 264 59 c 7
 292 59 318 65 333 72 c 5
 349 9 l 5
 326 -1 304 -10 254 -10 c 7
EndSplineSet
EndChar
StartChar: u
Encoding: 117 117 14
GlifName: u
Width: 557
UnlinkRmOvrlpSave: 1
Flags: HMW
AnchorPoint: "horn" 458 445 basechar 0
AnchorPoint: "ogonek" 435 0 basechar 0
AnchorPoint: "cedilla" 259 0 basechar 0
AnchorPoint: "below" 259 0 basechar 0
AnchorPoint: "above" 262 482 basechar 0
LayerCount: 2
Fore
SplineSet
398 102 m 1
 398 482 l 1
 481 482 l 1
 481 0 l 1
 424 0 l 1
 406 46 l 1
 398 102 l 1
406 46 m 1
 348 7 290 -12 234 -12 c 3
 131 -12 76 50 76 153 c 2
 76 482 l 1
 159 482 l 1
 159 173 l 2
 159 92 185 58 264 58 c 3
 305 58 350 72 398 102 c 1
 406 46 l 1
EndSplineSet
EndChar
StartChar: v
Encoding: 118 118 21
Width: 504
Flags: MW
AnchorPoint: "cedilla" 245 0 basechar 0
AnchorPoint: "below" 245 0 basechar 0
AnchorPoint: "above" 245 482 basechar 0
LayerCount: 4
Back
SplineSet
448.242 482.422 m 1
 365.234 482.422 l 1
 219.238 5.85938 l 1
 265.137 5.85938 l 1
 114.746 482.422 l 1
 31.7383 482.422 l 1
 201.66 0 l 1
 279.785 0 l 1
 448.242 482.422 l 1
EndSplineSet
Fore
SplineSet
477 482 m 1
 297 0 l 1
 207 0 l 1
 27 482 l 1
 116 482 l 1
 249 105 l 1
 254 79 l 1
 258 105 l 1
 392 482 l 1
 477 482 l 1
EndSplineSet
Validated: 1
Layer: 3
SplineSet
470.039 484.109 m 1
 290.039 0 l 1
 202.019 0 l 1
 22.0186 484.109 l 1
 110.037 484.109 l 1
 242.948 105.623 l 1
 247.789 78.7773 l 1
 252.189 105.623 l 1
 385.541 484.109 l 1
 470.039 484.109 l 1
EndSplineSet
EndChar
StartChar: w
Encoding: 119 119 11
GlifName: w
Width: 766
Flags: HMW
AnchorPoint: "cedilla" 381 0 basechar 0
AnchorPoint: "below" 381 0 basechar 0
AnchorPoint: "above" 381 482 basechar 0
LayerCount: 2
Back
SplineSet
339 481 m 1
 459 481 l 1
 558 127 l 1
 667 481 l 1
 796 481 l 1
 612 0 l 1
 497 0 l 1
 399 343 l 1
 301 0 l 1
 186 0 l 1
 2 481 l 1
 131 481 l 1
 240 127 l 1
 339 481 l 1
EndSplineSet
Fore
SplineSet
4 482 m 1
 88 482 l 1
 214 96 l 1
 217 78 l 1
 220 96 l 1
 346 482 l 1
 426 482 l 1
 546 96 l 1
 549 78 l 1
 552 96 l 1
 678 482 l 1
 762 482 l 1
 596 0 l 1
 503 0 l 1
 382 374 l 1
 258 0 l 1
 168 0 l 1
 4 482 l 1
EndSplineSet
EndChar
StartChar: x
Encoding: 120 120 24
GlifName: x
Width: 467
Flags: HMW
AnchorPoint: "cedilla" 234 0 basechar 0
AnchorPoint: "below" 234 0 basechar 0
AnchorPoint: "above" 234 482 basechar 0
LayerCount: 2
Back
SplineSet
-7 481 m 1
 126 481 l 1
 237 316 l 1
 343 481 l 1
 479 481 l 1
 305 237 l 1
 483 0 l 1
 341 0 l 1
 236 156 l 1
 133 0 l 1
 1 0 l 1
 164 237 l 1
 -7 481 l 1
EndSplineSet
Fore
SplineSet
106 482 m 1
 235 302 l 1
 364 482 l 1
 457 482 l 1
 282 241 l 1
 454 0 l 1
 355 0 l 1
 230 177 l 1
 106 0 l 1
 15 0 l 1
 184 239 l 1
 10 482 l 1
 106 482 l 1
EndSplineSet
Validated: 1
EndChar
StartChar: y
Encoding: 121 121 26
Width: 517
Flags: MW
AnchorPoint: "cedilla" 256 -261 basechar 0
AnchorPoint: "below" 256 -261 basechar 0
AnchorPoint: "above" 256 482 basechar 0
LayerCount: 4
Back
SplineSet
0 481 m 1
 138 481 l 1
 281 112 l 1
 411 481 l 1
 538 481 l 1
 243 -259 l 1
 108 -259 l 1
 218 -4 l 1
 0 481 l 1
EndSplineSet
Fore
SplineSet
408 482 m 1
 487 482 l 1
 211 -259 l 1
 127 -259 l 1
 219 -25 l 1
 25 482 l 1
 112 482 l 1
 260 82 l 1
 408 482 l 1
EndSplineSet
Validated: 1
Layer: 3
SplineSet
102.539 482.422 m 1
 271.484 27.3438 l 1
 262.695 -48.8281 l 1
 241.211 -75.1953 l 1
 21.9727 482.422 l 1
 102.539 482.422 l 1
405.273 482.422 m 1
 480.957 482.422 l 1
 205.078 -259.277 l 1
 119.629 -259.277 l 1
 236.816 24.9023 l 1
 405.273 482.422 l 1
EndSplineSet
EndChar
StartChar: z
Encoding: 122 122 25
GlifName: z
Width: 493
Flags: HMW
AnchorPoint: "cedilla" 236 0 basechar 0
AnchorPoint: "below" 236 0 basechar 0
AnchorPoint: "above" 236 482 basechar 0
LayerCount: 2
Back
SplineSet
63 481 m 1
 449 481 l 1
 449 420 l 1
 219 103 l 1
 457 103 l 1
 457 0 l 1
 63 0 l 1
 63 62 l 1
 291 379 l 1
 63 379 l 1
 63 481 l 1
EndSplineSet
Fore
SplineSet
58 482 m 1
 426 482 l 1
 426 440 l 1
 160 66 l 1
 438 66 l 1
 438 0 l 1
 58 0 l 1
 58 42 l 1
 324 416 l 1
 58 416 l 1
 58 482 l 1
EndSplineSet
EndChar
StartChar: braceleft
Encoding: 123 123 94
Width: 389
VWidth: 1023
Flags: MW
LayerCount: 4
Back
SplineSet
138 421 m 0
 141 446 142 473 144 500 c 0
 162 690 288 726 341 730 c 2
 358 730 l 1
 382 629 l 1
 360 626 l 2
 327 622 299 600 283 576 c 0
 228 492 286 333 176 239 c 1
 287 145 229 -15 283 -98 c 0
 299 -122 327 -143 360 -147 c 2
 382 -150 l 1
 358 -252 l 1
 341 -250 l 1
 295 -247 163 -215 144 -28 c 0
 137 40 145 121 83 166 c 0
 69 176 53 183 36 186 c 2
 19 188 l 1
 19 290 l 1
 36 292 l 1
 83 300 127 337 138 421 c 0
EndSplineSet
Fore
SplineSet
241 24 m 1
 249 -69 282 -136 362 -146 c 1
 348 -209 l 1
 243 -200 180 -115 169 -5 c 0
 166 21 164 65 161 95 c 0
 154 163 103 217 44 227 c 1
 44 294 l 1
 105 304 151 359 161 425 c 0
 165 452 169 495 169 520 c 1
 178 615 216 679 282 712 c 0
 303 722 325 728 348 730 c 1
 362 667 l 1
 288 656 247 598 240 491 c 0
 237 445 233 411 230 390 c 0
 222 336 186 287 147 261 c 1
 199 227 229 168 236 85 c 0
 237 72 241 37 241 24 c 1
EndSplineSet
Validated: 1
Layer: 3
SplineSet
226.562 678.223 m 0
 257.447 712.549 301.615 734.79 347.656 738.281 c 1
 362.305 675.293 l 1
 325.494 670.21 291.863 647.773 271.484 616.699 c 0
 248.859 582.197 242.625 539.692 239.746 498.535 c 0
 237.758 470.109 236.795 441.551 232.335 413.406 c 0
 227.875 385.264 219.812 357.473 206.055 332.52 c 0
 193.646 310.013 176.647 289.965 156.018 274.638 c 0
 135.387 259.311 111.221 248.758 85.9375 244.141 c 1
 85.9375 292.969 l 5
 111.167 288.379 135.293 277.893 155.919 262.656 c 0
 176.545 247.419 193.578 227.482 206.055 205.078 c 0
 220.523 179.097 228.777 150.014 233.225 120.609 c 0
 237.671 91.2051 238.431 61.3887 240.723 31.7383 c 0
 243.711 -6.91113 250.356 -46.6006 271.484 -79.1016 c 0
 291.751 -110.277 325.446 -132.784 362.305 -137.695 c 1
 347.656 -200.684 l 1
 301.68 -196.875 257.621 -174.738 226.562 -140.625 c 0
 208.859 -121.181 195.31 -98.0938 186.105 -73.46 c 0
 176.901 -48.8281 172.076 -22.7451 169.434 3.41797 c 0
 166.641 31.0654 166.182 58.9238 162.898 86.5176 c 0
 159.615 114.11 153.122 141.713 139.648 166.016 c 0
 129.781 183.813 116.244 199.644 99.7871 211.615 c 0
 83.3301 223.586 64.04 231.648 43.9453 234.863 c 1
 43.9453 302.246 l 1
 64.0488 305.627 83.3164 313.809 99.7617 325.854 c 0
 116.207 337.9 129.746 353.764 139.648 371.582 c 0
 152.638 394.957 159.268 421.387 162.771 447.896 c 0
 166.273 474.408 166.975 501.206 169.434 527.832 c 0
 171.945 555.024 176.415 582.192 185.508 607.944 c 0
 194.6 633.691 208.297 657.925 226.562 678.223 c 0
EndSplineSet
EndChar
StartChar: bar
Encoding: 124 124 8
Width: 431
VWidth: 1023
Flags: MW
LayerCount: 4
Back
SplineSet
124 730 m 1
 244 730 l 1
 244 -242 l 1
 124 -242 l 1
 124 730 l 1
EndSplineSet
Fore
SplineSet
176 730 m 1
 256 730 l 1
 256 -202 l 1
 176 -202 l 1
 176 730 l 1
EndSplineSet
Validated: 1
Layer: 3
SplineSet
175.781 781.738 m 5
 255.859 781.738 l 5
 255.859 -150.391 l 5
 175.781 -150.391 l 5
 175.781 781.738 l 5
255.859 781.738 m 5
 255.859 -150.391 l 1029
EndSplineSet
EndChar
StartChar: braceright
Encoding: 125 125 87
Width: 389
VWidth: 1023
Flags: MW
LayerCount: 4
Back
SplineSet
251 500 m 0
 253 473 255 446 258 421 c 0
 269 337 313 300 360 292 c 1
 376 290 l 1
 376 188 l 1
 360 186 l 2
 343 183 326 176 312 166 c 0
 250 121 258 40 251 -28 c 0
 232 -215 100 -247 54 -250 c 1
 37 -252 l 1
 14 -150 l 1
 36 -147 l 2
 69 -143 96 -122 112 -98 c 0
 166 -15 108 145 219 239 c 1
 109 333 167 492 112 576 c 0
 96 600 69 622 36 626 c 2
 14 629 l 1
 37 729 l 1
 54 729 l 2
 108 725 233 689 251 500 c 0
EndSplineSet
Fore
SplineSet
27 -146 m 1
 106 -136 141 -68 149 24 c 1
 149 55 154 97 159 126 c 0
 169 183 201 234 242 261 c 1
 196 291 167 340 157 406 c 0
 155 417 153 446 150 495 c 0
 144 590 106 654 27 667 c 1
 42 730 l 1
 150 723 209 633 220 520 c 0
 220 515 222 503 223 484 c 0
 225 438 230 400 249 365 c 0
 271 325 304 301 346 294 c 1
 346 227 l 1
 304 220 272 197 250 158 c 0
 222 108 226 47 219 -21 c 0
 209 -120 137 -201 42 -209 c 1
 27 -146 l 1
EndSplineSet
Validated: 1
Layer: 3
SplineSet
163.086 678.223 m 4
 132.201 712.549 88.0332 734.79 41.9922 738.281 c 5
 27.3438 675.293 l 5
 64.1543 670.21 97.7852 647.773 118.164 616.699 c 4
 140.789 582.197 147.023 539.692 149.902 498.535 c 4
 151.891 470.109 152.854 441.551 157.313 413.406 c 4
 161.773 385.264 169.836 357.473 183.594 332.52 c 4
 196.002 310.013 213.001 289.965 233.631 274.638 c 4
 254.262 259.311 278.428 248.758 303.711 244.141 c 5
 303.711 292.969 l 5
 278.481 288.379 254.355 277.893 233.729 262.656 c 4
 213.104 247.419 196.07 227.482 183.594 205.078 c 4
 169.125 179.097 160.871 150.014 156.424 120.609 c 4
 151.978 91.2051 151.218 61.3887 148.926 31.7383 c 4
 145.938 -6.91113 139.292 -46.6006 118.164 -79.1016 c 4
 97.8975 -110.277 64.2021 -132.784 27.3438 -137.695 c 5
 41.9922 -200.684 l 5
 87.9688 -196.875 132.027 -174.738 163.086 -140.625 c 4
 180.789 -121.181 194.339 -98.0938 203.543 -73.46 c 4
 212.747 -48.8281 217.572 -22.7451 220.215 3.41797 c 4
 223.008 31.0654 223.467 58.9238 226.75 86.5176 c 4
 230.033 114.11 236.526 141.713 250 166.016 c 4
 259.867 183.813 273.404 199.644 289.861 211.615 c 4
 306.318 223.586 325.608 231.648 345.703 234.863 c 5
 345.703 302.246 l 5
 325.6 305.627 306.332 313.809 289.887 325.854 c 4
 273.441 337.9 259.902 353.764 250 371.582 c 4
 237.011 394.957 230.381 421.387 226.878 447.896 c 4
 223.375 474.408 222.674 501.206 220.215 527.832 c 4
 217.703 555.024 213.233 582.192 204.141 607.944 c 4
 195.049 633.691 181.352 657.925 163.086 678.223 c 4
EndSplineSet
EndChar
StartChar: asciitilde
Encoding: 126 126 88
Width: 515
VWidth: 1023
Flags: HMW
LayerCount: 4
Back
SplineSet
384 311 m 7
 408 311 418 383 423 425 c 1
 535 407 l 1
 523 331 508 192 388 192 c 3
 288 192 231 299 199 299 c 3
 174 299 165 230 160 189 c 1
 48 206 l 1
 60 282 75 419 195 419 c 3
 295 419 353 311 384 311 c 7
EndSplineSet
Fore
SplineSet
353 216 m 3
 273 216 223 323 163 323 c 3
 127 323 114 263 107 215 c 1
 43 225 l 1
 59 309 78 397 163 397 c 3
 243 397 293 290 353 290 c 3
 391 290 400 351 409 396 c 1
 472 386 l 1
 456 302 439 216 353 216 c 3
EndSplineSet
Validated: 1
Layer: 3
SplineSet
476.562 753.418 m 1
 529.297 745.117 l 1
 520.996 703.613 l 2
 518.633 691.787 516.206 679.937 512.285 668.53 c 0
 508.369 657.129 502.93 646.172 495.498 636.68 c 0
 488.064 627.183 478.643 619.209 467.899 613.735 c 0
 457.156 608.257 445.16 605.317 433.105 604.98 c 0
 419.31 604.595 405.536 607.578 392.727 612.72 c 0
 379.918 617.856 368.002 625.059 356.934 633.301 c 0
 340.75 645.352 327.189 660.483 312.5 674.316 c 0
 307.297 679.219 301.752 683.843 295.455 687.227 c 0
 289.158 690.61 282.045 692.646 274.902 692.383 c 0
 267.952 692.124 261.126 689.653 255.533 685.518 c 0
 249.941 681.382 245.607 675.703 242.457 669.502 c 0
 236.158 657.1 234.072 643.052 231.445 629.395 c 2
 226.562 604.004 l 1
 173.828 612.305 l 1
 182.129 653.809 l 2
 184.494 665.635 186.92 677.485 190.838 688.892 c 0
 194.756 700.293 200.193 711.25 207.627 720.742 c 0
 215.061 730.239 224.482 738.213 235.226 743.687 c 0
 245.969 749.165 257.965 752.104 270.02 752.441 c 0
 283.815 752.827 297.589 749.844 310.398 744.702 c 0
 323.207 739.565 335.123 732.363 346.191 724.121 c 0
 362.375 712.07 375.936 696.938 390.625 683.105 c 0
 395.828 678.203 401.373 673.579 407.67 670.195 c 0
 413.967 666.812 421.08 664.775 428.223 665.039 c 0
 435.173 665.298 441.999 667.769 447.592 671.904 c 0
 453.184 676.04 457.518 681.719 460.668 687.92 c 0
 466.967 700.322 469.053 714.37 471.68 728.027 c 2
 476.562 753.418 l 1
EndSplineSet
EndChar
StartChar: exclamdown
Encoding: 161 161 96
Width: 206
Flags: HMW
LayerCount: 4
Fore
SplineSet
130 322 m 1
 142 -208 l 1
 52 -208 l 1
 64 322 l 1
 130 322 l 1
98 494 m 259
 129 494 149 474 149 443 c 259
 149 412 129 392 98 392 c 259
 67 392 47 412 47 443 c 259
 47 474 67 494 98 494 c 259
EndSplineSet
Validated: 1
Layer: 3
SplineSet
109.863 645.02 m 1
 207.52 645.02 l 1
 207.52 547.363 l 1
 109.863 547.363 l 1
 109.863 645.02 l 1
117.188 421.387 m 1
 200.195 421.387 l 1
 200.195 -200.195 l 1
 117.188 -200.195 l 1
 117.188 421.387 l 1
EndSplineSet
EndChar
StartChar: cent
Encoding: 162 162 97
Width: 498
VWidth: 1023
Flags: MW
LayerCount: 4
Back
SplineSet
245 621 m 1
 245 730 l 1
 344 730 l 1
 344 626 l 1
 386 622 425 608 450 597 c 2
 467 590 l 1
 436 495 l 1
 417 501 l 2
 385 512 356 519 322 519 c 3
 223 519 171 455 171 358 c 3
 171 217 253 197 322 197 c 3
 350 197 384 202 411 212 c 1
 430 218 l 1
 462 126 l 1
 444 119 l 2
 413 107 379 97 344 94 c 1
 344 -27 l 1
 245 -27 l 1
 245 96 l 1
 139 115 53 201 53 358 c 3
 53 501 121 595 245 621 c 1
EndSplineSet
Fore
SplineSet
73 347 m 0
 73 489 142 587 265 604 c 1
 265 730 l 1
 324 730 l 1
 324 606 l 1
 364 604 403 595 442 578 c 1
 423 519 l 1
 386 532 352 538 323 538 c 0
 209 538 150 476 150 366 c 0
 150 251 203 189 308 176 c 0
 315 175 322 175 329 175 c 0
 356 175 385 181 417 192 c 1
 437 137 l 1
 400 122 362 114 324 111 c 1
 324 -23 l 1
 265 -23 l 1
 265 112 l 1
 145 125 73 211 73 347 c 0
EndSplineSet
Validated: 1
Layer: 3
SplineSet
265.137 142.09 m 17
 324.219 142.09 l 9
 324.219 -31.7383 l 25
 265.137 -31.7383 l 25
 265.137 142.09 l 17
265.137 737.793 m 25
 324.219 737.793 l 25
 324.219 577.148 l 25
 265.137 577.148 l 25
 265.137 737.793 l 25
302.734 606.445 m 0
 350.616 607.163 398.503 596.812 442.383 577.637 c 1
 422.852 519.043 l 1
 385.271 532.065 345.404 539.214 305.664 537.598 c 0
 283.282 536.689 260.868 532.744 240.17 524.18 c 0
 219.473 515.615 200.697 502.207 186.523 484.863 c 0
 171.089 465.975 161.371 442.852 156.26 419 c 0
 151.148 395.149 150.09 370.551 151.367 346.191 c 0
 153.014 314.791 158.846 283.016 173.828 255.371 c 0
 186.018 232.881 204.406 213.838 226.362 200.711 c 0
 248.318 187.584 273.416 180.187 298.828 177.246 c 0
 338.758 172.626 379.648 178.311 417.48 191.895 c 1
 437.012 136.719 l 1
 393.533 119.656 346.999 109.988 300.293 109.863 c 0
 265.134 109.77 229.674 115.363 197.323 129.135 c 0
 164.973 142.905 136.191 165.261 115.723 193.848 c 0
 84.3486 237.666 73.3936 293.276 73.2422 347.168 c 0
 73.1504 379.738 76.752 412.43 85.4844 443.807 c 0
 94.2188 475.184 108.568 505.234 129.395 530.273 c 0
 150.229 555.322 177.384 574.951 207.433 587.549 c 0
 237.481 600.151 270.154 605.957 302.734 606.445 c 0
EndSplineSet
EndChar
StartChar: sterling
Encoding: 163 163 95
Width: 634
VWidth: 1023
Flags: MW
LayerCount: 4
Fore
SplineSet
74 66 m 1
 193 66 l 1
 193 323 l 1
 107 323 l 1
 107 389 l 1
 193 389 l 1
 193 458 l 2
 193 500 197 539 204 562 c 0
 231 646 318 706 431 706 c 0
 469 706 506 699 545 687 c 1
 522 628 l 1
 493 636 465 639 438 639 c 0
 390 639 354 624 330 605 c 0
 300 581 279 541 275 492 c 0
 274 477 273 462 273 445 c 2
 273 389 l 1
 532 389 l 1
 532 323 l 1
 273 323 l 1
 273 66 l 1
 561 66 l 1
 561 0 l 1
 74 0 l 1
 74 66 l 1
EndSplineSet
Validated: 1
Layer: 3
SplineSet
107.422 389.16 m 17
 532.227 389.16 l 9
 532.227 323.242 l 25
 107.422 323.242 l 25
 107.422 389.16 l 17
74.2188 65.918 m 1
 193.359 65.918 l 1
 193.359 458.008 l 2
 193.359 490.723 194.336 523.438 204.102 554.688 c 0
 228.516 632.812 309.57 698.73 430.664 698.73 c 0
 470.703 698.73 510.254 691.406 545.41 680.176 c 1
 521.973 620.605 l 1
 496.582 627.441 468.75 632.324 441.406 632.324 c 0
 414.551 632.324 387.695 627.93 363.281 617.676 c 0
 272.949 580.078 273.438 490.723 273.438 444.824 c 0
 273.438 438.477 273.438 432.129 273.438 425.781 c 2
 273.438 65.918 l 1
 560.547 65.918 l 1
 560.547 0 l 1
 74.2188 0 l 1
 74.2188 65.918 l 1
EndSplineSet
EndChar
StartChar: currency
Encoding: 164 164 98
Width: 634
Flags: MW
LayerCount: 4
Fore
SplineSet
316 531 m 0
 346 531 375 524 402 508 c 1
 483 588 l 1
 544 527 l 1
 463 447 l 1
 478 422 486 393 486 363 c 0
 486 333 479 305 463 278 c 1
 543 197 l 1
 482 136 l 1
 402 217 l 1
 375 201 346 193 316 193 c 0
 286 193 258 201 233 216 c 1
 152 135 l 1
 91 196 l 1
 172 277 l 1
 157 302 148 330 148 361 c 0
 148 392 156 420 172 447 c 1
 90 528 l 1
 151 589 l 1
 233 508 l 1
 258 523 286 531 316 531 c 0
318 462 m 0
 263 462 220 416 220 361 c 0
 220 307 263 262 316 262 c 0
 373 262 415 308 415 365 c 0
 415 416 369 462 318 462 c 0
EndSplineSet
Validated: 1
Layer: 3
SplineSet
317.871 461.914 m 0
 291.645 462.079 265.616 450.824 247.504 431.857 c 0
 229.392 412.889 219.299 386.574 219.727 360.352 c 0
 220.141 334.934 230.416 309.739 248.15 291.525 c 0
 265.885 273.312 290.986 262.405 316.406 262.207 c 0
 341.433 262.012 366.32 272.186 384.273 289.621 c 0
 402.228 307.058 413.154 331.457 414.551 356.445 c 0
 416.039 383.072 406.645 410.219 388.744 429.986 c 0
 370.844 449.755 344.539 461.746 317.871 461.914 c 0
151.367 589.355 m 1
 232.91 507.812 l 1
 257.669 522.349 286.232 530.342 314.941 530.762 c 0
 345.277 531.206 375.693 523.174 401.855 507.812 c 1
 482.91 588.379 l 1
 543.945 527.344 l 1
 462.891 446.777 l 1
 477.507 421.877 485.502 393.129 485.84 364.258 c 0
 486.193 334.084 478.166 303.855 462.891 277.832 c 1
 543.457 197.266 l 1
 482.422 136.23 l 1
 401.855 216.797 l 1
 375.914 201.283 345.654 193.078 315.43 193.359 c 0
 286.551 193.629 257.781 201.63 232.91 216.309 c 1
 151.855 135.254 l 1
 90.8203 196.289 l 1
 171.875 277.344 l 1
 157.078 302.012 148.906 330.613 148.438 359.375 c 0
 147.939 389.928 156.157 420.574 171.875 446.777 c 1
 90.332 528.32 l 1
 151.367 589.355 l 1
EndSplineSet
EndChar
StartChar: yen
Encoding: 165 165 99
Width: 634
VWidth: 1023
Flags: MW
LayerCount: 4
Fore
SplineSet
494 341 m 1
 494 280 l 1
 353 280 l 1
 353 183 l 1
 494 183 l 1
 494 122 l 1
 353 122 l 1
 353 0 l 1
 275 0 l 1
 275 122 l 1
 141 122 l 1
 141 183 l 1
 275 183 l 1
 275 280 l 1
 141 280 l 1
 141 341 l 1
 271 341 l 1
 70 694 l 1
 160 694 l 1
 317 399 l 1
 479 694 l 1
 565 694 l 1
 356 341 l 1
 494 341 l 1
EndSplineSet
Validated: 1
Layer: 3
SplineSet
140.625 182.617 m 25
 494.141 182.617 l 25
 494.141 121.582 l 25
 140.625 121.582 l 25
 140.625 182.617 l 25
140.625 341.309 m 17
 494.141 341.309 l 9
 494.141 280.273 l 25
 140.625 280.273 l 25
 140.625 341.309 l 17
69.8242 693.848 m 9
 160.156 693.848 l 17
 328.125 379.883 l 9
 308.594 383.301 l 17
 479.492 693.848 l 9
 564.941 693.848 l 25
 353.027 335.449 l 25
 353.027 0 l 25
 274.902 0 l 25
 274.902 335.449 l 17
 69.8242 693.848 l 9
EndSplineSet
EndChar
StartChar: brokenbar
Encoding: 166 166 100
Width: 431
VWidth: 1023
Flags: MW
LayerCount: 4
Back
SplineSet
156 173 m 1
 276 173 l 1
 276 -242 l 1
 156 -242 l 1
 156 173 l 1
156 730 m 1
 276 730 l 1
 276 317 l 1
 156 317 l 1
 156 730 l 1
EndSplineSet
Fore
SplineSet
176 730 m 1
 256 730 l 1
 256 357 l 1
 176 357 l 1
 176 730 l 1
176 173 m 1
 256 173 l 1
 256 -202 l 1
 176 -202 l 1
 176 173 l 1
EndSplineSet
Validated: 1
Layer: 3
SplineSet
175.781 224.609 m 1
 255.859 224.609 l 1
 255.859 -150.391 l 1
 175.781 -150.391 l 1
 175.781 224.609 l 1
175.781 781.738 m 1
 255.859 781.738 l 1
 255.859 408.691 l 1
 175.781 408.691 l 1
 175.781 781.738 l 1
EndSplineSet
EndChar
StartChar: section
Encoding: 167 167 101
GlifName: section
Width: 554
VWidth: 1023
Flags: HMW
LayerCount: 2
Back
SplineSet
456 684 m 2
 476 679 l 1
 441 576 l 1
 422 582 l 2
 388 593 345 600 306 600 c 3
 245 600 203 579 203 547 c 3
 203 471 496 498 496 333 c 3
 496 303 488 266 463 233 c 1
 494 199 496 184 496 169 c 3
 496 94 445 -10 250 -10 c 3
 213 -10 152 -9 71 23 c 1
 53 31 l 1
 89 128 l 1
 107 122 l 1
 162 102 212 93 249 93 c 3
 335 93 364 120 364 160 c 3
 364 239 75 187 75 367 c 3
 75 394 85 429 110 460 c 1
 86 485 75 502 75 536 c 3
 75 604 132 706 318 706 c 3
 386 706 420 694 456 684 c 2
212 402 m 1
 203 391 203 380 203 376 c 3
 203 337 283 320 356 294 c 1
 360 300 364 310 364 323 c 3
 364 365 286 377 212 402 c 1
EndSplineSet
Fore
SplineSet
310 638 m 0
 247 638 183 620 183 564 c 0
 183 527 227 498 259 488 c 0
 304 474 358 454 400 435 c 0
 438 418 476 382 476 331 c 0
 476 291 462 257 435 229 c 1
 462 207 476 180 476 147 c 0
 476 88 445 49 411 26 c 0
 375 1 323 -12 256 -12 c 0
 191 -12 131 -1 78 20 c 1
 101 81 l 1
 157 61 206 51 249 51 c 0
 339 51 384 80 384 138 c 0
 384 165 365 185 327 200 c 0
 310 207 292 212 271 218 c 0
 230 230 185 245 152 265 c 0
 114 288 95 321 95 365 c 0
 95 400 109 432 138 459 c 1
 110 482 96 511 96 548 c 0
 96 576 105 609 125 633 c 0
 157 673 227 704 300 704 c 3
 370 704 399 700 450 683 c 1
 428 619 l 1
 388 632 348 638 310 638 c 0
183 380 m 0
 183 347 199 333 223 321 c 0
 255 305 274 299 313 286 c 0
 334 279 351 274 363 269 c 1
 377 283 384 300 384 321 c 0
 384 354 353 379 290 397 c 2
 248 409 l 2
 232 414 218 419 207 423 c 1
 191 410 183 395 183 380 c 0
EndSplineSet
EndChar
StartChar: dieresis
Encoding: 168 168 128
Width: 400
VWidth: 0
Flags: HMW
LayerCount: 4
Fore
Refer: 574 776 N 1 0 0 1 200 0 2
Validated: 1
Layer: 3
SplineSet
338.18359375 693.359375 m 5
 428.515625 693.359375 l 5
 428.515625 603.02734375 l 5
 338.18359375 603.02734375 l 5
 338.18359375 693.359375 l 5
557.421875 693.359375 m 5
 647.75390625 693.359375 l 5
 647.75390625 603.02734375 l 5
 557.421875 603.02734375 l 5
 557.421875 693.359375 l 5
EndSplineSet
EndChar
StartChar: copyright
Encoding: 169 169 102
Width: 859
VWidth: 1023
Flags: MW
LayerCount: 4
Back
SplineSet
548 524 m 2
 564 517 l 1
 537 439 l 1
 518 446 l 1
 495 454 473 458 449 458 c 0
 371 458 351 408 351 353 c 0
 351 294 372 238 455 238 c 0
 475 238 495 242 515 249 c 2
 533 255 l 1
 561 179 l 1
 543 172 l 2
 509 159 474 152 437 152 c 0
 355 152 255 195 255 343 c 0
 255 496 355 547 442 547 c 0
 479 547 515 539 548 524 c 2
430 602 m 0
 284 602 171 484 171 347 c 0
 171 210 284 93 430 93 c 0
 576 93 688 210 688 347 c 0
 688 484 576 602 430 602 c 0
792 347 m 3
 792 155 634 -10 430 -10 c 3
 226 -10 67 154 67 347 c 3
 67 536 223 706 430 706 c 3
 634 706 792 539 792 347 c 3
EndSplineSet
Fore
SplineSet
441 156 m 0
 335 156 273 218 273 327 c 0
 273 382 287 427 315 462 c 0
 344 498 390 515 452 515 c 0
 480 515 510 508 541 494 c 1
 526 452 l 1
 499 462 473 466 450 466 c 0
 371 466 330 420 330 339 c 0
 330 253 372 203 458 203 c 0
 478 203 499 207 522 215 c 1
 537 175 l 1
 504 162 472 156 441 156 c 0
430 609 m 0
 347 609 276 572 231 529 c 0
 186 485 148 416 148 333 c 0
 148 251 186 181 231 138 c 0
 276 94 347 58 430 58 c 0
 513 58 583 95 628 138 c 0
 673 181 711 251 711 333 c 0
 711 416 673 485 628 529 c 0
 583 573 513 609 430 609 c 0
428 674 m 0
 530 674 618 630 673 576 c 0
 729 522 776 436 776 333 c 0
 776 231 730 146 674 92 c 0
 618 38 532 -7 430 -7 c 0
 327 -7 242 38 186 92 c 0
 130 146 83 230 83 333 c 0
 83 435 129 521 185 575 c 0
 240 629 327 674 428 674 c 0
EndSplineSet
Validated: 1
Layer: 3
SplineSet
428.223 673.828 m 0
 518.403 674.209 608.413 638.535 673.184 575.791 c 0
 737.959 513.047 776.372 423.676 776.367 333.496 c 0
 776.362 243.562 738.164 154.426 673.701 91.7168 c 0
 609.238 29.0068 519.619 -6.83301 429.688 -6.83594 c 0
 339.752 -6.83887 250.131 29.0059 185.666 91.7168 c 0
 121.201 154.427 83.0049 243.561 83.0078 333.496 c 0
 83.0107 423.186 120.996 512.08 185.15 574.756 c 0
 249.305 637.432 338.534 673.452 428.223 673.828 c 0
429.688 609.375 m 0
 356.691 609.375 283.924 580.41 231.504 529.609 c 0
 179.084 478.811 147.949 406.492 147.949 333.496 c 0
 147.949 260.5 179.084 188.182 231.504 137.381 c 0
 283.924 86.5801 356.691 57.6172 429.688 57.6172 c 0
 502.686 57.6172 575.449 86.5801 627.871 137.381 c 0
 680.288 188.182 711.426 260.5 711.426 333.496 c 0
 711.426 406.492 680.288 478.811 627.871 529.609 c 0
 575.449 580.41 502.686 609.375 429.688 609.375 c 0
438.965 515.137 m 0
 473.794 515.703 508.638 508.154 540.527 494.141 c 1
 525.879 451.66 l 1
 498.662 461.227 469.746 466.502 440.918 465.332 c 0
 424.723 464.675 408.501 461.791 393.555 455.518 c 0
 378.609 449.245 365.1 439.421 354.98 426.758 c 0
 344.015 413.034 337.214 396.309 333.641 379.109 c 0
 330.066 361.909 329.307 344.21 330.078 326.66 c 0
 331.085 303.753 334.936 280.498 345.703 260.254 c 0
 354.383 243.936 367.67 230.138 383.572 220.717 c 0
 399.475 211.297 417.66 206.104 436.035 204.102 c 0
 464.97 200.947 494.531 205.144 521.973 214.844 c 1
 536.621 174.805 l 1
 505.044 162.671 471.328 155.801 437.5 155.762 c 0
 412.119 155.732 386.525 159.752 363.16 169.666 c 0
 339.796 179.58 318.994 195.686 304.199 216.309 c 0
 281.486 247.969 273.592 288.184 273.438 327.148 c 0
 273.344 350.652 275.882 374.246 282.096 396.914 c 0
 288.31 419.582 298.551 441.316 313.477 459.473 c 0
 328.484 477.729 348.115 492.061 369.879 501.274 c 0
 391.642 510.488 415.336 514.751 438.965 515.137 c 0
EndSplineSet
EndChar
StartChar: ordfeminine
Encoding: 170 170 192
GlifName: ordfeminine
Width: 333
Flags: HMW
LayerCount: 2
Back
SplineSet
242 525 m 1
 241 525 l 2
 177 525 144 516 144 488 c 3
 144 474 159 454 191 454 c 3
 210 454 228 464 242 484 c 1
 242 525 l 1
242 590 m 1
 242 609 238 643 185 643 c 3
 153 643 113 632 105 630 c 2
 93 626 l 1
 79 684 l 1
 89 687 l 1
 121 699 155 706 190 706 c 3
 308 706 314 632 314 592 c 2
 314 399 l 1
 260 399 l 1
 253 416 l 1
 234 400 210 390 184 390 c 3
 121 390 72 425 72 487 c 3
 72 571 133 590 242 590 c 1
EndSplineSet
Fore
SplineSet
154 654 m 7
 135 654 108 649 73 638 c 5
 60 681 l 5
 87 690 131 704 164 704 c 7
 240 704 283 661 283 591 c 6
 283 409 l 5
 238 409 l 5
 228 435 l 5
 198 413 169 402 140 402 c 263
 86 402 50 437 50 489 c 7
 50 571 126 579 225 579 c 5
 225 632 208 654 154 654 c 7
148 450 m 7
 178 450 203 461 225 483 c 5
 225 535 l 5
 186 535 l 6
 144 535 107 532 107 494 c 7
 107 469 123 450 148 450 c 7
EndSplineSet
EndChar
StartChar: guillemotleft
Encoding: 171 171 103
Width: 476
VWidth: 1023
Flags: HMW
LayerCount: 4
Fore
SplineSet
345 427 m 1
 436 427 l 1
 302 249 l 1
 436 71 l 1
 345 71 l 1
 221 249 l 1
 345 427 l 1
164 427 m 1
 254 427 l 1
 121 249 l 1
 254 71 l 1
 164 71 l 1
 40 249 l 1
 164 427 l 1
EndSplineSet
Validated: 1
Layer: 3
SplineSet
163.64453125 482.421875 m 5
 254.46484375 482.421875 l 5
 113.3515625 294.921875 l 5
 113.3515625 313.96484375 l 5
 254.46484375 125.9765625 l 5
 164.1328125 125.9765625 l 5
 39.62109375 304.19921875 l 5
 163.64453125 482.421875 l 5
344.796875 482.421875 m 5
 435.6171875 482.421875 l 5
 294.50390625 294.921875 l 5
 294.50390625 313.96484375 l 5
 435.6171875 125.9765625 l 5
 345.28515625 125.9765625 l 5
 220.7734375 304.19921875 l 5
 344.796875 482.421875 l 5
EndSplineSet
EndChar
StartChar: logicalnot
Encoding: 172 172 190
Width: 683
VWidth: 1023
Flags: HMW
LayerCount: 4
Fore
SplineSet
61 391 m 1
 623 391 l 1
 623 172 l 1
 550 172 l 1
 550 319 l 1
 61 319 l 1
 61 391 l 1
EndSplineSet
Layer: 3
SplineSet
61.0352 357.422 m 1
 622.559 357.422 l 1
 622.559 137.695 l 1
 550.293 137.695 l 1
 550.293 284.668 l 1
 61.0352 284.668 l 1
 61.0352 357.422 l 1
EndSplineSet
EndChar
StartChar: uni00AD
Encoding: 173 173 110
Width: 524
VWidth: 1023
Flags: HMW
LayerCount: 2
Back
SplineSet
87 375 m 1
 437 375 l 1
 437 268 l 1
 87 268 l 1
 87 375 l 1
EndSplineSet
Fore
SplineSet
107 359 m 1
 417 359 l 1
 417 286 l 1
 107 286 l 1
 107 359 l 1
EndSplineSet
Validated: 1
EndChar
StartChar: registered
Encoding: 174 174 105
Width: 601
VWidth: 1023
Flags: HMW
LayerCount: 4
Back
SplineSet
301 593 m 2
 266 593 l 1
 266 530 l 1
 291 530 283 530 298 530 c 3
 335 530 348 539 348 560 c 3
 348 586 333 593 301 593 c 2
317 657 m 2
 396 657 416 608 416 565 c 3
 416 537 407 500 369 481 c 1
 426 369 l 1
 467 404 491 454 491 509 c 3
 491 609 408 696 301 696 c 3
 195 696 110 610 110 509 c 3
 110 409 194 323 301 323 c 3
 348 323 390 340 423 367 c 1
 350 367 l 1
 301 468 l 1
 266 468 l 1
 266 367 l 1
 196 367 l 1
 196 657 l 1
 317 657 l 2
570 509 m 3
 570 362 448 244 301 244 c 3
 150 244 32 365 32 509 c 3
 32 656 154 774 301 774 c 3
 448 774 570 656 570 509 c 3
EndSplineSet
Fore
SplineSet
405 564 m 3
 405 522 385 498 352 487 c 1
 407 379 l 1
 358 379 l 1
 309 482 l 1
 254 482 l 1
 254 379 l 1
 208 379 l 1
 208 645 l 1
 321 645 l 2
 370 645 405 614 405 564 c 3
301 762 m 3
 446 762 558 654 558 509 c 3
 558 365 445 256 301 256 c 3
 156 256 44 365 44 509 c 3
 44 654 155 762 301 762 c 3
300 708 m 3
 190 708 98 618 98 509 c 3
 98 399 190 311 301 311 c 3
 412 311 503 400 503 509 c 3
 503 626 409 708 300 708 c 3
362 564 m 3
 362 589 338 605 315 605 c 1
 254 605 l 1
 254 518 l 1
 294 518 l 3
 327 518 362 527 362 564 c 3
EndSplineSet
Validated: 1
Layer: 3
SplineSet
299.805 708.008 m 0
 352.51 708.262 405.136 687.471 443.03 650.84 c 0
 480.926 614.209 503.423 561.982 503.418 509.277 c 0
 503.413 456.736 481.062 404.668 443.373 368.059 c 0
 405.686 331.449 353.322 310.549 300.781 310.547 c 0
 248.238 310.545 195.873 331.449 158.184 368.059 c 0
 120.494 404.668 98.1426 456.734 98.1445 509.277 c 0
 98.1465 561.655 120.357 613.564 157.84 650.151 c 0
 195.322 686.738 247.427 707.759 299.805 708.008 c 0
300.781 762.207 m 0
 234.051 762.207 167.584 735.459 119.861 688.818 c 0
 72.1396 642.173 43.9453 576.006 43.9453 509.277 c 0
 43.9453 442.547 72.1396 376.379 119.861 329.736 c 0
 167.584 283.094 234.051 256.348 300.781 256.348 c 0
 367.512 256.348 433.979 283.094 481.701 329.736 c 0
 529.424 376.379 557.617 442.547 557.617 509.277 c 0
 557.617 576.006 529.424 642.173 481.701 688.818 c 0
 433.979 735.459 367.512 762.207 300.781 762.207 c 0
299.805 499.023 m 1
 346.191 499.023 l 1
 406.738 378.906 l 1
 357.91 378.906 l 1
 299.805 499.023 l 1
208.496 642.578 m 1
 316.895 644.531 l 2
 326.443 644.702 336.074 644.6 345.404 642.559 c 0
 354.734 640.518 363.674 636.704 371.582 631.348 c 0
 381.728 624.478 390.166 615.029 395.508 604.004 c 0
 400.641 593.408 402.906 581.587 403.32 569.824 c 0
 403.73 558.193 402.48 546.455 399.109 535.317 c 0
 395.738 524.18 389.997 513.667 381.836 505.371 c 0
 375.277 498.701 367.258 493.545 358.628 489.937 c 0
 349.998 486.33 340.805 484.216 331.543 482.91 c 0
 309.754 479.838 287.63 480.469 265.625 480.469 c 2
 228.027 480.469 l 1
 228.027 518.066 l 1
 270.02 518.066 l 2
 287.289 518.066 304.684 516.592 321.777 519.043 c 0
 331.381 520.42 340.98 523.73 348.145 530.273 c 0
 352.777 534.502 356.264 539.951 358.288 545.889 c 0
 360.313 551.826 360.935 558.208 360.352 564.453 c 0
 359.655 571.914 357.242 579.238 353.146 585.513 c 0
 349.049 591.782 343.195 596.89 336.426 600.098 c 0
 329.848 603.218 322.553 604.551 315.291 605.073 c 0
 308.029 605.596 300.738 605.469 293.457 605.469 c 2
 253.906 605.469 l 1
 253.906 378.906 l 1
 208.496 378.906 l 1
 208.496 642.578 l 1
EndSplineSet
EndChar
StartChar: macron
Encoding: 175 175 191
Width: 683
VWidth: 1023
Flags: MW
LayerCount: 4
Fore
SplineSet
139 801 m 1
 544 801 l 1
 544 728 l 1
 139 728 l 1
 139 801 l 1
EndSplineSet
Validated: 1
Layer: 3
SplineSet
139.16 800.781 m 5
 544.434 800.781 l 5
 544.434 728.027 l 5
 139.16 728.027 l 5
 139.16 800.781 l 5
EndSplineSet
EndChar
StartChar: degree
Encoding: 176 176 124
Width: 287
Flags: HMW
LayerCount: 4
Back
SplineSet
144 648 m 3
 119 648 101 627 101 603 c 3
 101 579 118 558 144 558 c 3
 167 558 186 579 186 603 c 3
 186 627 168 648 144 648 c 3
271 603 m 3
 271 531 214 473 144 473 c 3
 75 473 17 531 17 603 c 3
 17 674 74 732 144 732 c 3
 213 732 271 675 271 603 c 3
EndSplineSet
Fore
SplineSet
201 592 m 3
 201 623 175 652 144 652 c 3
 111 652 86 625 86 592 c 3
 86 558 110 532 143 532 c 3
 176 532 201 560 201 592 c 3
32 592 m 3
 32 655 82 706 144 706 c 3
 205 706 256 654 256 592 c 3
 256 530 206 477 144 477 c 3
 82 477 32 529 32 592 c 3
EndSplineSet
Validated: 1
Layer: 3
SplineSet
143.555 712.402 m 0
 201.66 712.402 250.977 664.062 250.977 603.027 c 0
 250.977 541.992 202.637 493.164 144.043 493.164 c 0
 85.9375 493.164 36.6211 541.504 36.6211 603.027 c 0
 36.6211 663.574 84.9609 712.402 143.555 712.402 c 0
144.043 667.969 m 0
 107.422 667.969 80.5664 637.695 80.5664 603.027 c 0
 80.5664 569.336 105.957 537.598 144.043 537.598 c 0
 180.176 537.598 206.055 569.336 206.055 603.027 c 0
 206.055 636.719 180.176 667.969 144.043 667.969 c 0
EndSplineSet
EndChar
StartChar: plusminus
Encoding: 177 177 111
Width: 683
VWidth: 1023
Flags: MW
LayerCount: 4
Back
SplineSet
87 160 m 1
 596 160 l 1
 596 53 l 1
 87 53 l 1
 87 160 l 1
286 714 m 1
 397 714 l 1
 397 513 l 1
 596 513 l 1
 596 406 l 1
 397 406 l 1
 397 205 l 1
 286 205 l 1
 286 406 l 1
 87 406 l 1
 87 513 l 1
 286 513 l 1
 286 714 l 1
EndSplineSet
Fore
SplineSet
306 694 m 1
 377 694 l 1
 377 493 l 1
 576 493 l 1
 576 426 l 1
 377 426 l 1
 377 225 l 1
 306 225 l 1
 306 426 l 1
 107 426 l 1
 107 493 l 1
 306 493 l 1
 306 694 l 1
107 140 m 1
 576 140 l 1
 576 73 l 1
 107 73 l 1
 107 140 l 1
EndSplineSet
Validated: 1
Layer: 3
SplineSet
107.422 140.137 m 1
 576.172 140.137 l 1
 576.172 73.2422 l 1
 107.422 73.2422 l 1
 107.422 140.137 l 1
306.152 693.848 m 5
 377.441 693.848 l 5
 377.441 225.098 l 5
 306.152 225.098 l 5
 306.152 693.848 l 5
107.422 492.676 m 5
 576.172 492.676 l 5
 576.172 425.781 l 5
 107.422 425.781 l 5
 107.422 492.676 l 5
EndSplineSet
EndChar
StartChar: uni00B2
Encoding: 178 178 146
Width: 390
VWidth: 0
Flags: HMW
LayerCount: 4
Back
SplineSet
60 404 m 1
 106 552 231 598 231 640 c 3
 231 658 209 682 173 682 c 3
 156 682 135 678 86 658 c 2
 75 653 l 1
 48 719 l 1
 58 724 l 1
 87 739 129 756 181 756 c 3
 254 756 313 712 313 647 c 3
 313 555 206 525 159 434 c 1
 319 434 l 1
 319 358 l 1
 60 358 l 1
 60 404 l 1
EndSplineSet
Fore
SplineSet
243 630 m 3
 243 662 210 680 176 680 c 3
 156 680 123 673 82 657 c 1
 63 699 l 1
 105 720 141 730 176 730 c 3
 240 730 301 691 301 630 c 3
 301 538 184 485 153 407 c 1
 307 407 l 1
 307 356 l 1
 72 356 l 1
 72 388 l 1
 98 471 243 567 243 630 c 3
EndSplineSet
Validated: 1
Layer: 3
SplineSet
180.367 744.15 m 4
 247.46 744.272 300.8 705.322 300.8 647.09 c 4
 300.8 557.388 182.674 528.779 139.558 421.387 c 5
 307.129 421.387 l 5
 307.129 370.117 l 5
 71.2891 370.117 l 5
 71.6211 402.082 l 5
 116.67 546.646 243.273 589.185 243.273 640.312 c 4
 243.273 667.163 213.334 693.428 172.627 693.428 c 4
 153.432 693.428 130.859 688.477 81.5352 668.96 c 5
 63.4863 713.311 l 5
 91.7852 727.251 131.311 744.058 180.367 744.15 c 4
EndSplineSet
EndChar
StartChar: uni00B3
Encoding: 179 179 147
Width: 390
VWidth: 1023
Flags: HMW
LayerCount: 4
Fore
SplineSet
166 730 m 3
 227 730 287 697 287 636 c 3
 287 606 274 581 246 563 c 1
 284 547 302 514 302 475 c 0
 302 396 240 353 166 353 c 27
 135.183176045 353 97.4941356113 360.807836151 61 375 c 1
 77 422 l 1
 114 412 145 406 166 406 c 3
 204 406 246 439 246 475 c 0
 246 519.692177072 189.187461631 531 135 531 c 1
 135 581 l 1
 193.028589753 582.160571795 231 592.368802197 231 636 c 3
 231 661.485782195 196.656247043 677 166 677 c 3
 145 677 120 670 87 655 c 1
 68 701 l 1
 107 720 134 730 166 730 c 3
EndSplineSet
Layer: 3
SplineSet
245.434 575.596 m 5
 287.303 558.315 302.246 525.029 302.246 490.723 c 4
 302.246 415.944 241.354 366.722 160.668 366.211 c 5
 159.668 366.211 l 6
 131.754 366.211 99.6592 372.263 67.5557 385.305 c 6
 61.1084 387.924 l 5
 77.3672 434.666 l 5
 83.9785 432.842 l 6
 126.147 421.209 145.712 419.434 161.133 419.434 c 4
 206.348 419.434 245.605 444.434 245.605 481.934 c 4
 245.605 506.738 225.977 543.945 147.461 543.945 c 6
 135.254 543.945 l 5
 135.254 594.053 l 5
 142.391 594.238 l 6
 212.962 596.045 230.957 625.586 230.957 646.484 c 4
 230.957 668.76 209.295 690.43 169.922 690.43 c 4
 139.51 690.43 109.624 678.345 93.8896 671.084 c 6
 86.9922 667.9 l 5
 67.7285 713.994 l 5
 73.9316 717.031 l 6
 96.8711 728.242 134.748 742.676 175.293 742.676 c 4
 238.695 742.676 287.109 705.312 287.109 653.32 c 4
 287.109 620.366 270.844 591.86 245.434 575.596 c 5
EndSplineSet
EndChar
StartChar: acute
Encoding: 180 180 148
Width: 463
VWidth: 0
Flags: MW
LayerCount: 4
Fore
SplineSet
298 730 m 1
 343 677 l 1
 159 523 l 1
 120 572 l 1
 298 730 l 1
EndSplineSet
Validated: 1
Layer: 3
SplineSet
379.883 773.926 m 1
 414.062 713.867 l 1
 164.062 569.824 l 1
 133.789 622.559 l 1
 379.883 773.926 l 1
EndSplineSet
EndChar
StartChar: micro
Encoding: 181 181 109
GlifName: mu
Width: 523
VWidth: 1023
Flags: HMW
LayerCount: 2
Back
SplineSet
42 502 m 1
 162 502 l 1
 162 210 l 2
 162 122 193 75 261 75 c 3
 282 75 307 79 361 105 c 1
 361 502 l 1
 481 502 l 1
 481 -20 l 1
 391 -20 l 1
 381 4 l 1
 343 -17 294 -33 247 -33 c 3
 220 -33 190 -27 162 -12 c 1
 162 -220 l 1
 42 -220 l 1
 42 502 l 1
EndSplineSet
Fore
SplineSet
62 482 m 1
 142 482 l 1
 142 222 l 2
 142 109 172 56 259 56 c 3
 289 56 330 68 381 93 c 1
 381 482 l 1
 461 482 l 1
 461 1 l 1
 405 1 l 1
 390 34 l 1
 342 3 296 -12 252 -12 c 3
 208 -12 171 1 142 27 c 1
 142 -218 l 1
 62 -218 l 1
 62 482 l 1
EndSplineSet
EndChar
StartChar: mu
Encoding: 181 181 109
Width: 523
VWidth: 1023
Flags: HMW
LayerCount: 2
Back
SplineSet
42 502 m 1
 162 502 l 1
 162 210 l 2
 162 122 193 75 261 75 c 3
 282 75 307 79 361 105 c 1
 361 502 l 1
 481 502 l 1
 481 -20 l 1
 391 -20 l 1
 381 4 l 1
 343 -17 294 -33 247 -33 c 3
 220 -33 190 -27 162 -12 c 1
 162 -220 l 1
 42 -220 l 1
 42 502 l 1
EndSplineSet
Fore
SplineSet
62 482 m 1
 142 482 l 1
 142 221 l 2
 142 171 145 144 163 111 c 0
 182 75 215 55 259 55 c 3
 289 55 330 67 381 92 c 1
 381 482 l 1
 461 482 l 1
 461 0 l 1
 405 0 l 1
 390 33 l 1
 342 2 296 -13 252 -13 c 3
 208 -13 171 0 142 26 c 1
 142 -200 l 1
 62 -200 l 1
 62 482 l 1
EndSplineSet
Validated: 1
EndChar
StartChar: uni00B5
Encoding: 181 181 109
Width: 579
VWidth: 1023
Flags: MW
LayerCount: 4
Back
SplineSet
73 502 m 1
 193 502 l 1
 193 210 l 2
 193 122 224 75 292 75 c 3
 313 75 338 79 392 105 c 1
 392 502 l 1
 512 502 l 1
 512 -20 l 1
 422 -20 l 1
 412 4 l 1
 374 -17 325 -33 278 -33 c 3
 251 -33 221 -27 193 -12 c 1
 193 -220 l 1
 73 -220 l 1
 73 502 l 1
EndSplineSet
Fore
SplineSet
93 482 m 1
 173 482 l 1
 173 221 l 2
 173 171 176 144 194 111 c 0
 213 75 246 55 290 55 c 0
 320 55 361 67 412 92 c 1
 412 482 l 1
 492 482 l 1
 492 0 l 1
 436 0 l 1
 421 33 l 1
 373 2 327 -13 283 -13 c 0
 239 -13 202 0 173 26 c 1
 173 -200 l 1
 93 -200 l 1
 93 482 l 1
EndSplineSet
Validated: 1
Layer: 3
SplineSet
92.7734 482.422 m 1
 172.852 482.422 l 1
 173.34 220.703 l 2
 173.375 202.155 173.463 183.539 176.059 165.174 c 0
 178.652 146.809 183.833 128.669 192.826 112.447 c 0
 201.819 96.2256 214.66 82.0723 230.287 72.0811 c 0
 245.912 62.0889 264.155 56.3887 282.655 55.0596 c 0
 312.627 52.9062 342.322 61.8242 370.117 73.2422 c 0
 397.735 84.5879 424.396 98.1484 450.684 112.305 c 1
 426.27 253.906 l 1
 491.699 253.906 l 1
 491.699 0 l 1
 435.547 0 l 1
 411.621 56.1523 l 1
 411.621 482.422 l 1
 491.699 482.422 l 1
 491.699 169.922 l 2
 491.699 154.321 491.44 138.621 488.389 123.321 c 0
 485.337 108.022 479.548 93.2529 471.155 80.1025 c 0
 454.369 53.8008 428.093 34.8643 400.391 20.5078 c 0
 362.139 0.68457 319.938 -13.5322 276.855 -13.1836 c 0
 238.992 -12.877 201.097 0.697266 172.852 25.915 c 1
 172.852 -200.195 l 1
 92.7734 -200.195 l 1
 92.7734 482.422 l 1
EndSplineSet
EndChar
StartChar: paragraph
Encoding: 182 182 106
Width: 653
VWidth: 1023
Flags: MW
LayerCount: 4
Fore
SplineSet
298 730 m 2
 561 730 l 1
 561 0 l 1
 478 0 l 1
 478 657 l 1
 360 657 l 1
 360 0 l 1
 276 0 l 1
 276 327 l 1
 213 333 179 341 142 369 c 0
 95 404 63 466 63 545 c 0
 63 636 112 702 189 720 c 0
 218 727 254 730 298 730 c 2
EndSplineSet
Validated: 1
Layer: 3
SplineSet
113.281 686.523 m 0
 161.133 733.398 225.586 737.793 297.852 737.793 c 2
 560.547 737.793 l 1
 560.547 0 l 1
 477.539 0 l 1
 477.539 664.551 l 1
 360.352 664.551 l 1
 360.352 0 l 1
 276.855 0 l 1
 276.367 417.48 l 1
 315.918 417.48 l 1
 315.918 332.52 l 1
 250 335.449 219.238 341.309 196.777 348.633 c 0
 88.8672 383.301 63.4766 484.375 63.4766 553.223 c 0
 63.4766 608.398 81.0547 654.785 113.281 686.523 c 0
EndSplineSet
EndChar
StartChar: periodcentered
Encoding: 183 183 107
Width: 288
VWidth: 1023
Flags: MW
LayerCount: 4
Fore
SplineSet
93 409 m 1
 195 409 l 1
 195 309 l 1
 93 309 l 1
 93 409 l 1
EndSplineSet
Validated: 1
Layer: 3
SplineSet
92.7734 409.18 m 1
 195.312 409.18 l 1
 195.312 306.641 l 1
 92.7734 306.641 l 1
 92.7734 409.18 l 1
EndSplineSet
EndChar
StartChar: cedilla
Encoding: 184 184 126
Width: 400
VWidth: 0
Flags: HMW
LayerCount: 4
Back
SplineSet
-0.2001953125 -183.533203125 m 3
 24.7998046875 -183.533203125 33.7998046875 -170.533203125 33.7998046875 -160.533203125 c 3
 33.7998046875 -136.533203125 -20.2001953125 -125.533203125 -82.2001953125 -107.533203125 c 1
 -52.2001953125 0.466796875 l 1
 40.7998046875 0.466796875 l 1
 25.7998046875 -57.533203125 l 1
 57.7998046875 -70.533203125 111.799804688 -86.533203125 111.799804688 -155.533203125 c 3
 111.799804688 -205.533203125 70.7998046875 -260.533203125 -2.2001953125 -260.533203125 c 3
 -42.2001953125 -260.533203125 -87.2001953125 -242.533203125 -132.200195312 -230.533203125 c 1
 -111.200195312 -156.533203125 l 1
 -68.2001953125 -170.533203125 -15.2001953125 -183.533203125 -0.2001953125 -183.533203125 c 3
EndSplineSet
Fore
Refer: 579 807 N 1 0 0 1 200 0 2
Validated: 1
Layer: 3
SplineSet
467.08984375 10.7421875 m 1
 529.1015625 10.7421875 l 1
 507.12890625 -76.171875 l 1
 497.8515625 -62.5 l 1
 522.265625 -69.82421875 l 2
 534.875 -73.607421875 547.530273438 -77.6767578125 558.87890625 -84.349609375 c 0
 570.2265625 -91.0234375 580.162109375 -100.20703125 587.20703125 -111.328125 c 0
 593.921875 -121.927734375 597.9921875 -134.17578125 599.033203125 -146.6796875 c 0
 600.072265625 -159.18359375 598.111328125 -171.903320312 593.5546875 -183.59375 c 0
 587.545898438 -199.009765625 577.02734375 -212.587890625 563.799804688 -222.52734375 c 0
 550.573242188 -232.466796875 534.713867188 -238.705078125 518.359375 -241.2109375 c 0
 499.284179688 -244.133789062 479.74609375 -242.0859375 460.87890625 -238.02734375 c 0
 442.01171875 -233.970703125 423.579101562 -228.14453125 405.078125 -222.65625 c 0
 399.547851562 -221.015625 394.014648438 -219.38671875 388.4765625 -217.7734375 c 1
 401.171875 -173.33984375 l 1
 406.047851562 -174.826171875 410.931640625 -176.291015625 415.8203125 -177.734375 c 0
 430.383789062 -182.03125 444.982421875 -186.228515625 459.727539062 -189.8515625 c 0
 474.47265625 -193.474609375 489.509765625 -196.712890625 504.688476562 -196.2890625 c 0
 513.724609375 -196.037109375 522.858398438 -194.318359375 530.842773438 -190.077148438 c 0
 538.827148438 -185.8359375 545.504882812 -178.892578125 548.6328125 -170.41015625 c 0
 550.771484375 -164.61328125 551.227539062 -158.212890625 549.974609375 -152.163085938 c 0
 548.721679688 -146.112304688 545.791015625 -140.45703125 541.796875 -135.7421875 c 0
 536.615234375 -129.626953125 529.7421875 -125.125 522.461914062 -121.76953125 c 0
 515.181640625 -118.4140625 507.474609375 -116.1015625 499.8046875 -113.76953125 c 2
 438.76953125 -95.21484375 l 1
 467.08984375 10.7421875 l 1
EndSplineSet
EndChar
StartChar: uni00B9
Encoding: 185 185 149
Width: 265
VWidth: 0
Flags: MW
LayerCount: 4
Fore
SplineSet
167 730 m 1
 167 363 l 1
 112 363 l 1
 112 677 l 1
 42 657 l 1
 29 704 l 1
 123 730 l 1
 167 730 l 1
EndSplineSet
Validated: 1
Layer: 3
SplineSet
122.559 737.793 m 1
 167.48 737.793 l 1
 167.48 371.094 l 1
 112.305 371.094 l 1
 112.305 685.059 l 1
 41.5039 665.039 l 1
 29.2969 712.402 l 1
 122.559 737.793 l 1
EndSplineSet
EndChar
StartChar: ordmasculine
Encoding: 186 186 150
GlifName: ordmasculine
Width: 379
Flags: HMW
LayerCount: 2
Back
SplineSet
185 646 m 3
 158 646 117 633 117 552 c 3
 117 461 159 445 186 445 c 3
 213 445 253 460 253 549 c 3
 253 634 212 646 185 646 c 3
318 550 m 3
 318 448 259 387 185 387 c 3
 119 387 53 426 53 551 c 3
 53 655 120 706 186 706 c 3
 239 706 318 680 318 550 c 3
EndSplineSet
Fore
SplineSet
188 404 m 7
 98 404 50 463 50 554 c 7
 50 643 101 704 189 704 c 7
 280 704 329 646 329 554 c 263
 329 462 279 404 188 404 c 7
189 657 m 263
 135 657 107 611 107 554 c 263
 107 497 135 451 189 451 c 7
 244 451 272 496 272 554 c 7
 272 611 243 657 189 657 c 263
EndSplineSet
EndChar
StartChar: guillemotright
Encoding: 187 187 104
Width: 476
VWidth: 1023
Flags: HMW
LayerCount: 4
Fore
SplineSet
131 427 m 1
 255 249 l 1
 131 71 l 1
 40 71 l 1
 174 249 l 1
 40 427 l 1
 131 427 l 1
312 427 m 1
 436 249 l 1
 312 71 l 1
 222 71 l 1
 355 249 l 1
 222 427 l 1
 312 427 l 1
EndSplineSet
Layer: 3
SplineSet
312.38671875 482.421875 m 1
 436.41015625 304.19921875 l 1
 311.8984375 125.9765625 l 1
 221.56640625 125.9765625 l 1
 362.6796875 313.96484375 l 1
 362.6796875 294.921875 l 1
 221.56640625 482.421875 l 1
 312.38671875 482.421875 l 1
131.234375 482.421875 m 1
 255.2578125 304.19921875 l 1
 130.74609375 125.9765625 l 1
 40.4140625 125.9765625 l 1
 181.52734375 313.96484375 l 1
 181.52734375 294.921875 l 1
 40.4140625 482.421875 l 1
 131.234375 482.421875 l 1
EndSplineSet
EndChar
StartChar: onequarter
Encoding: 188 188 121
Width: 864
VWidth: 0
Flags: MW
LayerCount: 4
Back
SplineSet
569 692 m 1
 683 692 l 1
 268 0 l 1
 154 0 l 1
 569 692 l 1
148 692 m 1
 216 692 l 1
 216 276 l 1
 127 276 l 1
 127 600 l 1
 62 582 l 1
 42 663 l 1
 148 692 l 1
699 432 m 1
 794 432 l 1
 794 173 l 1
 846 173 l 1
 846 95 l 1
 794 95 l 1
 794 0 l 1
 705 0 l 1
 705 95 l 1
 514 95 l 1
 514 155 l 1
 699 432 l 1
705 305 m 1
 621 173 l 1
 705 173 l 1
 705 305 l 1
EndSplineSet
Fore
SplineSet
576 694 m 1
 662 694 l 1
 261 0 l 1
 175 0 l 1
 576 694 l 1
221 694 m 1
 221 302 l 1
 156 302 l 1
 156 630 l 1
 88 611 l 1
 73 668 l 1
 167 694 l 1
 221 694 l 1
756 408 m 1
 756 149 l 1
 808 149 l 1
 808 95 l 1
 756 95 l 1
 756 0 l 1
 691 0 l 1
 691 95 l 1
 500 95 l 1
 500 139 l 1
 679 408 l 1
 756 408 l 1
691 149 m 1
 691 336 l 1
 573 149 l 1
 691 149 l 1
EndSplineSet
Validated: 1
Layer: 3
SplineSet
690.918 335.938 m 1
 573.242 148.926 l 1
 690.918 148.926 l 1
 690.918 335.938 l 1
679.199 408.203 m 1
 755.859 408.203 l 1
 755.859 148.926 l 1
 808.105 148.926 l 1
 808.105 95.2148 l 1
 755.859 95.2148 l 1
 755.859 0 l 1
 690.918 0 l 1
 690.918 95.2148 l 1
 500.488 95.2148 l 1
 500.488 138.672 l 1
 679.199 408.203 l 1
166.504 693.848 m 1
 221.191 693.848 l 1
 221.191 301.758 l 1
 156.25 301.758 l 1
 156.25 630.371 l 1
 87.8906 611.328 l 1
 73.2422 668.457 l 1
 166.504 693.848 l 1
576.172 693.848 m 1
 661.621 693.848 l 1
 261.23 0 l 1
 175.293 0 l 1
 576.172 693.848 l 1
EndSplineSet
EndChar
StartChar: onehalf
Encoding: 189 189 122
Width: 877
VWidth: 0
Flags: MW
LayerCount: 4
Back
SplineSet
569 692 m 1
 683 692 l 1
 268 0 l 1
 154 0 l 1
 569 692 l 1
148 692 m 1
 216 692 l 1
 216 276 l 1
 127 276 l 1
 127 600 l 1
 62 582 l 1
 42 663 l 1
 148 692 l 1
596 49 m 1
 646 211 785 263 785 309 c 0
 785 330 760 355 719 355 c 0
 700 355 678 350 624 329 c 2
 613 325 l 1
 583 395 l 1
 594 401 l 1
 626 416 671 435 728 435 c 0
 808 435 873 388 873 317 c 0
 873 216 754 183 702 81 c 1
 879 81 l 1
 879 0 l 1
 596 0 l 1
 596 49 l 1
EndSplineSet
Fore
SplineSet
576 694 m 1
 662 694 l 1
 261 0 l 1
 175 0 l 1
 576 694 l 1
753 297 m 0
 753 332 714 355 676 355 c 0
 654 355 621 347 576 329 c 1
 556 377 l 1
 602 399 644 411 683 411 c 0
 753 411 817 372 817 305 c 0
 817 262 789 228 762 203 c 2
 729 172 l 1
 682 130 661 107 639 57 c 1
 824 57 l 1
 824 0 l 1
 564 0 l 1
 564 35 l 1
 584 100 628 162 695 221 c 0
 722 244 738 261 744 271 c 0
 750 281 753 290 753 297 c 0
221 694 m 1
 221 302 l 1
 156 302 l 1
 156 630 l 1
 88 611 l 1
 73 668 l 1
 167 694 l 1
 221 694 l 1
EndSplineSet
Validated: 1
Layer: 3
SplineSet
166.504 693.848 m 1
 221.191 693.848 l 1
 221.191 301.758 l 1
 156.25 301.758 l 1
 156.25 630.371 l 1
 87.8906 611.328 l 1
 73.2422 668.457 l 1
 166.504 693.848 l 1
684.268 411.289 m 0
 758.071 411.424 816.743 368.578 816.743 304.523 c 0
 816.743 205.851 686.807 174.381 639.38 56.25 c 1
 823.706 56.25 l 1
 823.706 -0.146484 l 1
 564.282 -0.146484 l 1
 564.648 35.0137 l 1
 614.199 194.035 753.462 240.828 753.462 297.068 c 0
 753.462 326.604 720.532 355.494 675.752 355.494 c 0
 654.639 355.494 629.81 350.049 575.552 328.58 c 1
 555.698 377.366 l 1
 586.826 392.7 630.308 411.188 684.268 411.289 c 0
576.172 693.848 m 1
 661.621 693.848 l 1
 261.23 0 l 1
 175.293 0 l 1
 576.172 693.848 l 1
EndSplineSet
EndChar
StartChar: threequarters
Encoding: 190 190 123
Width: 903
VWidth: 0
Flags: MW
LayerCount: 4
Back
SplineSet
647 692 m 1
 761 692 l 1
 346 0 l 1
 232 0 l 1
 647 692 l 1
762 432 m 1
 857 432 l 1
 857 173 l 1
 910 173 l 1
 910 95 l 1
 857 95 l 1
 857 0 l 1
 768 0 l 1
 768 95 l 1
 578 95 l 1
 578 155 l 1
 762 432 l 1
768 305 m 1
 684 173 l 1
 768 173 l 1
 768 305 l 1
196 706 m 0
 271 706 330 660 330 595 c 0
 330 562 316 533 295 512 c 1
 332 490 348 454 348 417 c 0
 348 327 274 267 178 267 c 0
 133 267 97 279 65 292 c 2
 55 297 l 1
 80 370 l 1
 91 367 l 1
 139 354 159 350 180 350 c 0
 222 350 261 373 261 407 c 0
 261 444 229 463 151 463 c 2
 139 463 l 1
 139 543 l 1
 151 543 l 2
 194 543 245 552 245 588 c 0
 245 604 229 624 190 624 c 0
 155 624 124 609 104 600 c 2
 92 595 l 1
 61 668 l 1
 72 673 l 2
 103 688 146 706 196 706 c 0
EndSplineSet
Fore
SplineSet
621 694 m 1
 706 694 l 1
 306 0 l 1
 220 0 l 1
 621 694 l 1
795 408 m 1
 795 149 l 1
 848 149 l 1
 848 95 l 1
 795 95 l 1
 795 0 l 1
 730 0 l 1
 730 95 l 1
 540 95 l 1
 540 139 l 1
 719 408 l 1
 795 408 l 1
730 149 m 1
 730 336 l 1
 613 149 l 1
 730 149 l 1
186 708 m 0
 255 708 310 671 310 603 c 0
 310 570 295 544 264 524 c 1
 306 507 327 477 327 434 c 0
 327 348 258 293 171 293 c 2
 169 293 l 2
 136 293 101 301 61 317 c 1
 79 369 l 1
 122 358 154 352 176 352 c 0
 219 352 264 379 264 421 c 0
 264 437 259 450 248 460 c 0
 228 479 197 489 156 489 c 2
 143 489 l 1
 143 544 l 1
 151 544 l 1
 186 545 211 551 226 563 c 0
 241 575 248 587 248 601 c 0
 248 635 215 650 177 650 c 0
 154 650 125 642 90 625 c 1
 68 676 l 1
 110 697 150 708 186 708 c 0
EndSplineSet
Validated: 1
Layer: 3
SplineSet
264.16 523.926 m 1
 310.059 504.883 326.66 468.262 326.66 430.664 c 0
 326.66 348.633 259.766 293.945 170.898 293.457 c 1
 169.434 293.457 l 2
 138.672 293.457 103.516 300.293 68.3594 314.453 c 2
 61.0352 317.383 l 1
 79.1016 369.141 l 1
 86.4258 367.188 l 2
 132.812 354.492 154.297 352.051 171.387 352.051 c 0
 221.191 352.051 264.16 379.883 264.16 420.898 c 0
 264.16 448.242 242.676 489.258 156.25 489.258 c 2
 142.578 489.258 l 1
 142.578 544.434 l 1
 150.879 544.434 l 2
 228.516 546.387 248.047 579.102 248.047 602.051 c 0
 248.047 626.465 224.609 650.391 181.152 650.391 c 0
 147.461 650.391 114.258 636.719 97.168 628.906 c 2
 89.8438 625.488 l 1
 68.3594 676.27 l 1
 75.1953 679.688 l 2
 100.586 691.895 142.578 708.008 187.012 708.008 c 0
 256.836 708.008 310.059 666.504 310.059 609.375 c 0
 310.059 573.242 291.992 541.992 264.16 523.926 c 1
730.469 335.938 m 1
 612.793 148.926 l 1
 730.469 148.926 l 1
 730.469 335.938 l 1
718.75 408.203 m 1
 795.41 408.203 l 1
 795.41 148.926 l 1
 847.656 148.926 l 1
 847.656 95.2148 l 1
 795.41 95.2148 l 1
 795.41 0 l 1
 730.469 0 l 1
 730.469 95.2148 l 1
 540.039 95.2148 l 1
 540.039 138.672 l 1
 718.75 408.203 l 1
620.605 693.848 m 1
 706.055 693.848 l 1
 305.664 0 l 1
 219.727 0 l 1
 620.605 693.848 l 1
EndSplineSet
EndChar
StartChar: questiondown
Encoding: 191 191 108
Width: 515
Flags: HMW
LayerCount: 4
Fore
SplineSet
272 -223 m 3
 157 -223 70 -162 70 -47 c 3
 70 -7 81 27 97 53 c 128
 124 97 158 126 205 171 c 128
 245 209 261 246 261 318 c 1
 346 318 l 1
 346 253 330 199 300 159 c 0
 288 145 272 128 244 102 c 0
 214 73 192 49 177 29 c 128
 162 9 152 -14 152 -40 c 3
 152 -115 202 -146 278 -146 c 3
 352 -146 384 -131 438 -106 c 1
 465 -178 l 1
 404 -205 356 -223 272 -223 c 3
304 494 m 259
 335 494 355 474 355 443 c 259
 355 412 335 392 304 392 c 259
 273 392 253 412 253 443 c 259
 253 474 273 494 304 494 c 259
EndSplineSet
Layer: 3
SplineSet
177.52734375 595.703125 m 1
 275.18359375 595.703125 l 1
 275.18359375 693.359375 l 1
 177.52734375 693.359375 l 1
 177.52734375 595.703125 l 1
251.74609375 -68.84765625 m 0
 337.1953125 -68.84765625 453.40625 9.27734375 453.40625 117.67578125 c 0
 453.40625 292.96875 267.859375 240.234375 267.859375 482.421875 c 1
 184.8515625 482.421875 l 1
 184.8515625 197.75390625 372.83984375 241.69921875 372.83984375 109.86328125 c 0
 372.83984375 53.7109375 326.94140625 0.9765625 239.05078125 0.9765625 c 0
 211.21875 0.9765625 171.66796875 4.39453125 99.890625 33.69140625 c 1
 74.5 -25.87890625 l 1
 128.2109375 -51.26953125 178.9921875 -68.84765625 251.74609375 -68.84765625 c 0
EndSplineSet
EndChar
StartChar: Agrave
Encoding: 192 192 141
Width: 609
VWidth: 0
Flags: HMW
LayerCount: 4
Back
SplineSet
418 806 m 1
 350 745 l 1
 226 874 l 1
 303 939 l 1
 418 806 l 1
277 692 m 1
 398 692 l 1
 658 0 l 1
 531 0 l 1
 461 180 l 1
 206 180 l 1
 137 0 l 1
 17 0 l 1
 277 692 l 1
422 292 m 1
 334 550 l 1
 245 292 l 1
 422 292 l 1
EndSplineSet
Fore
Refer: 571 768 N 1 0 0 1 304 211 2
Refer: 32 65 N 1 0 0 1 0 0 3
Validated: 1
Layer: 3
Refer: 89 96 S 1 0 0 1 88.623 167.969 2
Refer: 32 65 S 1 0 0 1 0 0 3
EndChar
StartChar: Aacute
Encoding: 193 193 142
Width: 609
VWidth: 0
Flags: HMW
LayerCount: 4
Back
SplineSet
254 806 m 1
 369 939 l 1
 446 874 l 1
 322 745 l 1
 254 806 l 1
277 692 m 1
 398 692 l 1
 658 0 l 1
 531 0 l 1
 461 180 l 1
 206 180 l 1
 137 0 l 1
 17 0 l 1
 277 692 l 1
422 292 m 1
 334 550 l 1
 245 292 l 1
 422 292 l 1
EndSplineSet
Fore
Refer: 572 769 N 1 0 0 1 304 211 2
Refer: 32 65 N 1 0 0 1 0 0 3
Validated: 1
Layer: 3
Refer: 148 180 N 1 0 0 1 76.416 168.457 2
Refer: 32 65 N 1 0 0 1 0 0 3
EndChar
StartChar: AE
Encoding: 198 198 120
Width: 870
VWidth: 1023
Flags: HMW
AnchorPoint: "above" 468 692 basechar 0
AnchorPoint: "below" 468 0 basechar 0
AnchorPoint: "cedilla" 468 0 basechar 0
LayerCount: 4
Back
SplineSet
396 581 m 1
 270 294 l 1
 455 294 l 1
 455 581 l 1
 396 581 l 1
315 694 m 1
 900 694 l 1
 900 581 l 1
 586 581 l 1
 586 414 l 1
 873 414 l 1
 873 301 l 1
 586 301 l 1
 586 113 l 1
 900 113 l 1
 900 0 l 1
 455 0 l 1
 455 182 l 1
 223 182 l 1
 140 0 l 1
 17 0 l 1
 315 694 l 1
EndSplineSet
Fore
SplineSet
811 694 m 1
 811 621 l 1
 509 621 l 1
 509 394 l 1
 784 394 l 1
 784 321 l 1
 509 321 l 1
 509 73 l 1
 811 73 l 1
 811 0 l 1
 426 0 l 1
 426 202 l 1
 175 202 l 1
 97 0 l 1
 17 0 l 1
 288 694 l 1
 811 694 l 1
426 274 m 1
 426 621 l 1
 337 621 l 1
 203 274 l 1
 426 274 l 1
EndSplineSet
Validated: 1
Layer: 3
SplineSet
288.47265625 693.84765625 m 1
 810.93359375 693.84765625 l 1
 810.93359375 620.60546875 l 1
 509.17578125 620.60546875 l 1
 509.17578125 394.04296875 l 1
 784.078125 394.04296875 l 1
 784.078125 320.80078125 l 1
 509.17578125 320.80078125 l 1
 509.17578125 73.2421875 l 1
 810.93359375 73.2421875 l 1
 810.93359375 0 l 1
 426.16796875 0 l 1
 426.16796875 201.66015625 l 1
 137.59375 202.1484375 l 1
 180.07421875 274.4140625 l 1
 426.16796875 274.4140625 l 1
 426.16796875 620.60546875 l 1
 336.8359375 620.60546875 l 1
 96.578125 0 l 1
 17.4765625 0 l 1
 288.47265625 693.84765625 l 1
EndSplineSet
EndChar
StartChar: Ccedilla
Encoding: 199 199 127
Width: 651
VWidth: 0
UnlinkRmOvrlpSave: 1
Flags: HMW
LayerCount: 4
Back
SplineSet
367 -184 m 3
 392 -184 401 -171 401 -161 c 3
 401 -137 347 -126 285 -108 c 1
 315 0 l 1
 408 0 l 1
 393 -58 l 1
 425 -71 479 -87 479 -156 c 3
 479 -206 438 -261 365 -261 c 3
 325 -261 280 -243 235 -231 c 1
 256 -157 l 1
 299 -171 352 -184 367 -184 c 3
387 706 m 3
 447 706 562 690 632 660 c 1
 592 562 l 1
 522 587 437 597 387 597 c 3
 247 597 176 467 176 347 c 3
 176 227 252 103 392 103 c 3
 442 103 548 121 602 142 c 1
 642 43 l 1
 566 14 452 -10 392 -10 c 3
 192 -10 50 146 50 346 c 3
 50 546 187 706 387 706 c 3
EndSplineSet
Fore
Refer: 579 807 N 1 0 0 1 351 0 2
Refer: 54 67 N 1 0 0 1 0 0 3
Validated: 5
Layer: 3
SplineSet
377.197 12.3506 m 1
 447.51 9.4209 l 1
 425.537 -77.4932 l 1
 411.865 -60.8916 l 1
 436.279 -68.2158 l 2
 449.303 -72.123 462.375 -76.2979 474.147 -83.1016 c 0
 485.919 -89.9062 496.284 -99.2734 503.662 -110.696 c 0
 510.703 -121.604 514.99 -134.263 516.099 -147.198 c 0
 517.212 -160.134 515.19 -173.297 510.498 -185.403 c 0
 504.482 -200.922 494.092 -214.677 481 -224.95 c 0
 467.905 -235.225 452.158 -241.954 435.791 -244.974 c 0
 415.339 -248.746 394.202 -246.794 373.854 -242.494 c 0
 353.507 -238.193 333.657 -231.851 313.721 -225.931 c 0
 308.191 -224.289 302.658 -222.66 297.119 -221.048 c 1
 311.768 -170.267 l 1
 316.643 -171.756 321.525 -173.22 326.416 -174.661 c 0
 341.562 -179.125 356.747 -183.464 372.045 -187.373 c 0
 387.343 -191.283 402.916 -195.06 418.701 -194.681 c 0
 426.928 -194.483 435.241 -192.983 442.568 -189.238 c 0
 449.896 -185.493 456.111 -179.348 459.229 -171.731 c 0
 461.312 -166.639 461.99 -160.982 461.185 -155.539 c 0
 460.378 -150.096 458.107 -144.904 454.834 -140.481 c 0
 450.111 -134.099 443.412 -129.39 436.246 -125.972 c 0
 429.079 -122.555 421.426 -120.297 413.818 -118.021 c 2
 346.924 -98.001 l 1
 377.197 12.3506 l 1
EndSplineSet
Refer: 54 67 N 1 0 0 1 0 0 3
EndChar
StartChar: Idieresis
Encoding: 207 207 131
Width: 327
VWidth: 0
Flags: MW
LayerCount: 4
Fore
SplineSet
233 891 m 1
 323 891 l 1
 323 800 l 1
 233 800 l 1
 233 891 l 1
43 891 m 1
 133 891 l 1
 133 800 l 1
 43 800 l 1
 43 891 l 1
142 694 m 1
 225 694 l 1
 225 0 l 1
 142 0 l 1
 142 694 l 1
EndSplineSet
Validated: 1
Layer: 3
SplineSet
141.602 693.848 m 1
 224.609 693.848 l 1
 224.609 0 l 1
 141.602 0 l 1
 141.602 693.848 l 1
42.9688 890.625 m 1
 133.301 890.625 l 1
 133.301 800.293 l 1
 42.9688 800.293 l 1
 42.9688 890.625 l 1
232.91 890.625 m 5
 323.242 890.625 l 5
 323.242 800.293 l 5
 232.91 800.293 l 5
 232.91 890.625 l 5
EndSplineSet
EndChar
StartChar: Eth
Encoding: 208 208 188
Width: 773
VWidth: 1023
UnlinkRmOvrlpSave: 1
Flags: HMW
AnchorPoint: "above" 386 692 basechar 0
AnchorPoint: "below" 386 0 basechar 0
AnchorPoint: "cedilla" 386 0 basechar 0
LayerCount: 4
Back
SplineSet
-16 397 m 29
 341 397 l 29
 341 302 l 29
 -16 302 l 29
 -16 397 l 29
376 579 m 2
 219 579 l 1
 219 113 l 1
 376 113 l 2
 516 113 574 230 574 350 c 3
 574 470 516 579 376 579 c 2
330 692 m 2
 623 692 697 550 697 350 c 3
 697 150 624 0 330 0 c 2
 96 0 l 1
 96 692 l 1
 330 692 l 2
EndSplineSet
Fore
SplineSet
40 316 m 5
 40 380 l 29
 372 380 l 5
 372 316 l 29
 40 316 l 5
EndSplineSet
Refer: 48 68 N 1 0 0 1 63 0 2
Validated: 5
Layer: 3
SplineSet
41.12890625 394.53125 m 1
 355.58203125 394.53125 l 1
 355.58203125 321.2890625 l 1
 41.12890625 321.2890625 l 1
 41.12890625 394.53125 l 1
230.58203125 620.60546875 m 1
 230.58203125 73.2421875 l 1
 331.65625 73.2421875 l 2
 362.311523438 73.2421875 393.10546875 73.4501953125 423.3828125 78.251953125 c 0
 453.66015625 83.0546875 483.360351562 92.533203125 509.87890625 107.91015625 c 0
 546.963867188 129.412109375 576.963867188 162.42578125 596.3046875 200.68359375 c 0
 617.735351562 243.083984375 627.041992188 290.892578125 628.53125 338.37890625 c 0
 630.376953125 397.1171875 619.942382812 457.561523438 589.46875 507.811523438 c 0
 566.329101562 545.966796875 531.934570312 577.153320312 491.811523438 596.6796875 c 0
 472.330078125 606.162109375 451.494140625 612.856445312 430.138671875 616.5234375 c 0
 408.78125 620.190429688 387.016601562 620.60546875 365.34765625 620.60546875 c 2
 230.58203125 620.60546875 l 1
147.57421875 693.84765625 m 1
 341.421875 693.84765625 l 2
 405.889648438 693.84765625 471.671875 689.8828125 531.36328125 665.52734375 c 0
 584.375976562 643.896484375 631.651367188 607.182617188 662.7109375 559.08203125 c 0
 703.106445312 496.5234375 714.776367188 419.12109375 711.5390625 344.7265625 c 0
 709.581054688 299.720703125 702.486328125 254.76953125 688.184570312 212.052734375 c 0
 673.8828125 169.3359375 651.65625 128.938476562 620.71875 96.19140625 c 0
 582.30078125 55.525390625 530.943359375 28.236328125 476.67578125 14.6484375 c 0
 418.5390625 0.0927734375 357.896484375 0 297.96484375 0 c 2
 147.57421875 0 l 1
 147.57421875 693.84765625 l 1
EndSplineSet
EndChar
StartChar: multiply
Encoding: 215 215 114
Width: 634
VWidth: 1023
Flags: MW
LayerCount: 4
Fore
SplineSet
141 95 m 1
 89 146 l 1
 262 319 l 1
 93 488 l 1
 144 540 l 1
 320 363 l 1
 493 537 l 1
 544 485 l 1
 372 312 l 1
 541 143 l 1
 490 91 l 1
 313 268 l 1
 141 95 l 1
EndSplineSet
Validated: 1
Layer: 3
SplineSet
489.888 91.3086 m 1
 92.916 488.281 l 1
 144.186 539.551 l 1
 541.157 142.578 l 1
 489.888 91.3086 l 1
140.733 94.7617 m 1
 88.9756 146.031 l 1
 283.391 340.445 l 1
 305.487 348.732 l 1
 493.34 536.587 l 1
 544.609 484.828 l 1
 354.93 295.146 l 1
 334.904 288.932 l 1
 140.733 94.7617 l 1
EndSplineSet
EndChar
StartChar: Oslash
Encoding: 216 216 189
Width: 857
Flags: MW
AnchorPoint: "above" 425 670 basechar 0
AnchorPoint: "below" 425 0 basechar 0
AnchorPoint: "cedilla" 425 0 basechar 0
LayerCount: 4
Fore
SplineSet
64 46 m 1
 159 137 l 1
 147 160 l 2
 120 213 107 276 107 346 c 0
 107 416 120 479 147 532 c 0
 197 630 289 700 431 700 c 0
 530 700 604 666 657 612 c 1
 749 700 l 1
 803 644 l 1
 704 550 l 1
 708 544 712 538 715 532 c 0
 742 479 755 416 755 346 c 0
 755 276 742 213 715 160 c 0
 665 62 573 -10 431 -10 c 0
 333 -10 260 25 207 77 c 1
 117 -10 l 1
 64 46 l 1
196 346 m 0
 196 292 206 244 226 202 c 1
 226 201 l 1
 596 554 l 1
 560 597 509 627 431 627 c 0
 318 627 261 564 226 490 c 0
 206 448 196 400 196 346 c 0
431 65 m 0
 544 65 601 128 636 202 c 0
 656 244 666 292 666 346 c 0
 666 398 656 445 637 486 c 1
 268 135 l 1
 304 94 354 65 431 65 c 0
EndSplineSet
Validated: 1
Layer: 3
SplineSet
759.722 688.022 m 1
 790.366 656.172 l 1
 106.002 2.40918 l 1
 75.3555 34.2598 l 1
 759.722 688.022 l 1
425.781 628.418 m 0
 361.807 628.066 298.066 600.322 255.859 552.246 c 0
 231.48 524.478 214.299 490.771 203.924 455.305 c 0
 193.55 419.838 189.581 382.646 190.43 345.703 c 0
 191.991 277.713 210.051 208.352 251.953 154.785 c 0
 273.873 126.764 302.15 103.687 334.205 88.251 c 0
 366.258 72.8145 401.926 64.9824 437.5 65.4297 c 0
 472.126 65.8652 506.67 74.1562 537.563 89.8008 c 0
 568.457 105.445 595.518 128.484 616.211 156.25 c 0
 656.216 209.926 671.797 278.76 671.875 345.703 c 0
 671.943 404.287 660.132 463.989 629.883 514.16 c 0
 608.818 549.102 578.726 578.623 543.081 598.481 c 0
 507.441 618.345 466.58 628.643 425.781 628.418 c 0
435.059 701.172 m 0
 479.1 700.747 523.159 692.344 563.857 675.513 c 0
 604.556 658.682 641.724 633.14 671.387 600.586 c 0
 702.319 566.641 724.829 525.391 738.691 481.605 c 0
 752.554 437.822 758.208 391.62 757.324 345.703 c 0
 756.362 295.709 747.705 245.682 729.81 198.988 c 0
 711.919 152.295 684.214 109.1 647.461 75.1953 c 0
 588.594 20.8936 507.822 -7.39258 427.734 -7.32422 c 0
 345.117 -7.25391 261.688 23.2676 203.125 81.543 c 0
 168.952 115.549 143.703 158.05 127.832 203.572 c 0
 111.96 249.094 104.936 297.493 104.98 345.703 c 0
 105.028 396.167 112.801 446.833 130.207 494.199 c 0
 147.611 541.567 175.283 585.439 212.402 619.629 c 0
 271.945 674.473 354.111 701.958 435.059 701.172 c 0
EndSplineSet
EndChar
StartChar: Thorn
Encoding: 222 222 193
Width: 585
Flags: HMW
LayerCount: 4
Back
SplineSet
321 472 m 0
 286 472 253 471 219 469 c 1
 219 254 l 1
 261 252 289 251 306 251 c 2
 321 251 l 2
 416 251 513 261 513 367 c 0
 513 459 421 472 321 472 c 0
96 694 m 1
 219 694 l 1
 219 566 l 1
 261 569 303 571 347 571 c 0
 512 571 638 532 638 377 c 0
 638 299 606 189 479 155 c 1
 443 146 383 139 288 139 c 0
 265 139 242 140 219 141 c 1
 219 0 l 1
 96 0 l 1
 96 694 l 1
EndSplineSet
Fore
SplineSet
545 365 m 3
 545 290 487 163 302 163 c 2
 168 163 l 1
 168 0 l 1
 85 0 l 1
 85 692 l 1
 168 692 l 1
 168 569 l 1
 302 569 l 2
 462 569 545 485 545 365 c 3
257 237 m 2
 367 237 461 245 461 365 c 3
 461 475 378 494 258 494 c 2
 168 494 l 1
 168 237 l 1
 257 237 l 2
EndSplineSet
Validated: 1
Layer: 3
SplineSet
157.6015625 693.84765625 m 1
 240.609375 693.84765625 l 1
 240.609375 0 l 1
 157.6015625 0 l 1
 157.6015625 693.84765625 l 1
174.203125 552.24609375 m 1
 190.44921875 554.438476562 206.727539062 556.391601562 223.03125 558.10546875 c 0
 268.353515625 562.87109375 313.873046875 566.040039062 359.443359375 566.5234375 c 0
 405.013671875 567.001953125 451.178710938 565.234375 495.00390625 552.734375 c 0
 528.983398438 543.041992188 561.498046875 525.396484375 583.87109375 498.046875 c 0
 599.916015625 478.43359375 610.326171875 454.521484375 615.35546875 429.68359375 c 0
 620.384765625 404.84765625 620.47265625 379.176757812 617.561523438 354.00390625 c 0
 614.383789062 326.530273438 607.6796875 299.341796875 596.258789062 274.154296875 c 0
 584.833007812 248.965820312 568.202148438 225.96484375 546.76171875 208.49609375 c 0
 527.455078125 192.768554688 504.579101562 181.7421875 480.682617188 174.75 c 0
 456.784179688 167.7578125 431.939453125 164.512695312 407.11328125 162.59765625 c 0
 346.0390625 157.88671875 284.533203125 158.134765625 223.51953125 163.57421875 c 0
 207.189453125 165.030273438 190.90234375 166.977539062 174.69140625 169.43359375 c 1
 188.36328125 241.69921875 l 1
 204.091796875 239.432617188 219.890625 237.65234375 235.7265625 236.328125 c 0
 292.546875 231.576171875 349.85546875 229.052734375 406.625 234.375 c 0
 422.3515625 235.849609375 438.052734375 238.438476562 453.021484375 243.483398438 c 0
 467.990234375 248.529296875 482.16796875 256.16796875 494.02734375 266.6015625 c 0
 506.68359375 277.736328125 516.52734375 291.923828125 523.16796875 307.41796875 c 0
 529.80859375 322.912109375 533.446289062 339.625 534.5546875 356.4453125 c 0
 535.633789062 372.79296875 534.310546875 389.375 529.7890625 405.122070312 c 0
 525.262695312 420.869140625 517.328125 435.6953125 506.234375 447.75390625 c 0
 492.478515625 462.70703125 474.220703125 473.012695312 454.96484375 479.4921875 c 0
 420.033203125 491.245117188 382.48828125 492.514648438 345.630859375 492.416992188 c 0
 308.775390625 492.314453125 271.93359375 490.258789062 235.23828125 486.81640625 c 0
 219.41796875 485.33203125 203.625976562 483.54296875 187.875 481.4453125 c 1
 174.203125 552.24609375 l 1
EndSplineSet
EndChar
StartChar: germandbls
Encoding: 223 223 113
Width: 615
VWidth: 1023
Flags: MW
AnchorPoint: "above" 262 671 basechar 0
LayerCount: 4
Back
SplineSet
319 698 m 3
 464 698 539 596 539 516 c 3
 539 403 396 382 396 341 c 3
 396 280 636 311 636 138 c 3
 636 79 585 -13 434 -13 c 3
 389 -13 333 -6 266 11 c 1
 244 17 l 1
 273 110 l 1
 294 106 l 1
 342 98 397 92 434 92 c 3
 501 92 511 107 511 138 c 3
 511 227 258 186 258 341 c 3
 258 447 406 464 406 516 c 3
 406 560 361 586 319 586 c 3
 298 586 218 577 218 479 c 2
 218 0 l 1
 98 0 l 1
 98 479 l 2
 98 635 205 698 319 698 c 3
EndSplineSet
Fore
SplineSet
98 500 m 2
 98 617 172 698 294 698 c 0
 361 698 407 665 433 624 c 0
 451 597 460 568 460 538 c 0
 460 508 452 481 435 460 c 0
 422 444 408 430 393 419 c 0
 368 401 333 381 333 352 c 0
 333 339 336 329 341 322 c 0
 349 310 366 299 391 289 c 2
 426 276 l 2
 478 257 503 247 528 216 c 1
 547 194 557 164 557 127 c 0
 557 81 533 43 510 22 c 1
 483 -1 446 -13 397 -13 c 0
 348 -13 298 -5 246 10 c 1
 261 67 l 1
 312 57 352 52 380 52 c 0
 436 52 472 70 472 126 c 0
 472 181 428 198 381 215 c 2
 345 228 l 1
 301 245 273 269 261 300 c 0
 256 313 253 327 253 343 c 0
 253 408 295 434 332 462 c 0
 341 469 349 475 356 482 c 0
 373 497 382 515 382 538 c 0
 382 585 329 626 282 626 c 0
 253 626 229 616 208 594 c 0
 188 573 179 541 179 499 c 2
 179 0 l 1
 99 0 l 1
 98 500 l 2
EndSplineSet
Validated: 1
Layer: 3
SplineSet
291.24 698.335 m 0
 404.465 698.335 460.171 606.987 460.171 537.607 c 0
 460.171 423.117 332.939 410.156 332.939 347.777 c 0
 332.939 255.645 556.665 304.134 556.665 127.277 c 0
 556.665 79.0557 528.623 -12.7109 394.865 -12.7109 c 0
 358.391 -12.7109 302.156 -6.25977 246.094 10.2539 c 1
 261.23 66.8945 l 1
 303.193 58.6133 344.047 51.8105 378.439 51.8105 c 0
 433.477 51.8105 471.968 69.2295 471.968 125.877 c 0
 471.968 245.492 253.318 187.978 253.318 344.416 c 0
 253.318 451.989 381.981 458.496 381.981 532.783 c 0
 381.981 587.759 329.431 626.328 282.188 626.465 c 0
 258.79 626.465 178.486 613.95 178.711 499.023 c 2
 179.688 0 l 1
 98.6328 0 l 1
 97.6562 499.512 l 2
 97.373 644.424 203.02 698.335 291.24 698.335 c 0
EndSplineSet
EndChar
StartChar: agrave
Encoding: 224 224 166
Width: 500
VWidth: 0
Flags: HMW
LayerCount: 4
Fore
Refer: 571 768 N 1 0 0 1 246 0 2
Refer: 0 97 N 1 0 0 1 0 0 3
Layer: 3
SplineSet
217.287 756.348 m 29
 395.021 598.145 l 29
 355.959 549.316 l 29
 172.365 703.125 l 29
 217.287 756.348 l 29
EndSplineSet
Refer: 0 97 N 1 0 0 1 0 0 3
EndChar
StartChar: aacute
Encoding: 225 225 167
Width: 500
VWidth: 0
Flags: HMW
LayerCount: 4
Fore
Refer: 572 769 N 1 0 0 1 246 0 2
Refer: 0 97 N 1 0 0 1 0 0 3
Layer: 3
SplineSet
330.08 756.348 m 29
 152.346 598.145 l 29
 191.408 549.316 l 29
 375.002 703.125 l 29
 330.08 756.348 l 29
EndSplineSet
Refer: 0 97 N 1 0 0 1 0 0 3
EndChar
StartChar: adieresis
Encoding: 228 228 134
Width: 500
VWidth: 0
Flags: HMW
LayerCount: 2
Back
SplineSet
140 529 m 259
 101 529 66 564 66 603 c 259
 66 642 101 677 140 677 c 259
 179 677 214 642 214 603 c 259
 214 564 179 529 140 529 c 259
357 529 m 259
 318 529 283 564 283 603 c 259
 283 642 318 677 357 677 c 259
 396 677 431 642 431 603 c 259
 431 564 396 529 357 529 c 259
230 492 m 3
 407 492 455 409 455 296 c 2
 455 0 l 1
 359 0 l 1
 343 32 l 1
 305 8 262 -10 204 -10 c 3
 99 -10 35 53 35 137 c 3
 35 274 163 292 329 292 c 1
 329 360 311 401 231 401 c 3
 163 401 119 386 100 380 c 1
 74 460 l 1
 104 472 147 492 230 492 c 3
335 107 m 1
 335 210 l 1
 244 210 154 200 154 137 c 3
 154 99 185 79 235 79 c 3
 286 79 309 91 335 107 c 1
EndSplineSet
Fore
Refer: 570 776 N 1 0 0 1 249 0 2
Refer: 0 97 N 1 0 0 1 0 0 3
Validated: 1
EndChar
StartChar: ae
Encoding: 230 230 112
Width: 817
VWidth: 0
Flags: HMW
AnchorPoint: "above" 399 482 basechar 0
LayerCount: 4
Back
SplineSet
180 154 m 0
 180 124 223 94 274 94 c 0
 311 94 344 108 368 129 c 1
 368 213 l 1
 196 211 180 182 180 154 c 0
621 382 m 0
 554 382 511 341 503 293 c 1
 716 293 l 1
 712 335 691 382 621 382 c 0
104 462 m 2
 168 484 236 491 282 491 c 0
 372 491 424 457 452 420 c 1
 499 462 565 491 636 491 c 0
 809 491 833 338 833 213 c 2
 833 193 l 1
 500 193 l 1
 511 137 578 95 668 95 c 0
 706 95 746 105 767 111 c 2
 787 118 l 1
 809 25 l 1
 792 19 l 1
 735 -2 676 -10 635 -10 c 0
 565 -10 493 9 441 54 c 1
 395 10 331 -10 257 -10 c 0
 153 -10 60 51 60 138 c 0
 60 214 127 274 260 286 c 0
 293 289 338 291 368 291 c 1
 368 295 l 2
 368 343 346 393 260 393 c 0
 235 393 201 390 136 374 c 1
 118 369 l 1
 85 456 l 1
 104 462 l 2
EndSplineSet
Fore
SplineSet
213 63 m 3
 266 63 317 68 352 117 c 1
 352 218 l 1
 237 215 135 214 135 125 c 3
 135 92 173 63 213 63 c 3
249 421 m 3
 183 421 143 407 116 398 c 1
 92 458 l 1
 125 475 197 494 249 494 c 3
 324 494 377 465 402 406 c 1
 439 460 496 494 571 494 c 3
 698 494 769 409 769 270 c 2
 769 226 l 1
 764 218 l 1
 437 218 l 1
 439 104 496 58 617 58 c 3
 659 58 685 64 732 79 c 1
 750 17 l 1
 701 0 649 -10 595 -10 c 3
 508 -10 442 17 402 68 c 1
 394 56 383 43 369 32 c 0
 320 -5 271 -10 213 -10 c 3
 129 -10 52 47 52 125 c 3
 52 265 206 277 352 281 c 1
 352 369 329 421 249 421 c 3
686 281 m 1
 686 360 652 426 578 426 c 3
 488 426 448 358 439 281 c 1
 686 281 l 1
EndSplineSet
Validated: 1
Layer: 3
SplineSet
90.8203 460.938 m 5
 151.879 483.717 212.756 491.24 253.418 491.211 c 4
 333.545 491.807 383.973 457.542 408.203 406.25 c 5
 448.877 455.516 512.168 491.372 581.479 491.372 c 4
 719.419 491.372 753.735 374.691 753.906 244.629 c 4
 753.916 226.758 753.735 218.836 753.418 212.891 c 5
 434.082 212.891 l 5
 433.977 210.75 433.926 208.607 433.926 206.466 c 4
 433.926 124.479 507.637 54.498 611.929 54.498 c 4
 650.713 54.498 691.094 65.9941 712.402 72.2656 c 5
 725.586 17.5781 l 5
 671.255 -2.54297 617.261 -9.42871 581.128 -9.42871 c 4
 514.937 -9.42871 444.914 11.1895 400.879 63.9648 c 5
 361.826 12.4678 302.811 -9.84082 230.805 -9.84082 c 4
 141.502 -9.84082 60.1621 49.4004 60.0586 129.678 c 4
 60.0586 199.298 116.904 258.295 235.916 270.159 c 4
 270.887 273.646 306.252 273.926 323.836 273.926 c 4
 330.775 273.926 343.621 273.818 353.516 273.926 c 5
 352.835 280.566 353.825 285.836 353.825 299.307 c 4
 353.825 356.363 329.822 424.835 233.807 424.835 c 4
 209.213 424.835 176.791 421.495 110.84 403.32 c 5
 90.8203 460.938 l 5
676.938 284.405 m 4
 676.938 338.034 655.137 421.885 567.925 421.885 c 4
 486.519 421.885 441.84 351.28 437.988 273.438 c 5
 676.758 273.438 l 5
 676.88 276.438 676.938 281.397 676.938 284.405 c 4
139.648 133.789 m 4
 139.648 89.3555 192.383 54.1992 247.07 54.1992 c 4
 290.039 54.1992 327.637 73.7305 353.516 101.074 c 5
 353.516 213.379 l 5
 340.82 213.867 329.102 213.867 317.383 213.867 c 4
 206.543 213.867 139.648 196.777 139.648 133.789 c 4
EndSplineSet
EndChar
StartChar: egrave
Encoding: 232 232 171
Width: 511
VWidth: 0
Flags: HMW
LayerCount: 4
Back
SplineSet
345 596 m 1
 277 535 l 1
 153 664 l 1
 230 729 l 1
 345 596 l 1
258 492 m 3
 409 492 483 403 483 254 c 2
 483 208 l 1
 156 208 l 1
 156 120 220 82 306 82 c 3
 359 82 419 92 440 97 c 1
 459 17 l 1
 415 0 354 -10 290 -10 c 0
 116 -10 35 94 35 240 c 3
 35 391 140 492 258 492 c 3
261 398 m 3
 212 398 158 370 158 292 c 1
 364 292 l 1
 364 370 319 398 261 398 c 3
EndSplineSet
Fore
Refer: 571 768 N 1 0 0 1 259 0 2
Refer: 2 101 N 1 0 0 1 0 0 3
Validated: 1
Layer: 3
SplineSet
224.609 756.348 m 29
 402.344 598.145 l 29
 363.281 549.316 l 29
 179.688 703.125 l 29
 224.609 756.348 l 29
EndSplineSet
Refer: 2 101 N 1 0 0 1 0 0 3
EndChar
StartChar: eacute
Encoding: 233 233 172
Width: 511
VWidth: 0
Flags: HMW
LayerCount: 4
Back
SplineSet
181 596 m 1
 296 729 l 1
 373 664 l 1
 249 535 l 1
 181 596 l 1
258 492 m 3
 409 492 483 403 483 254 c 2
 483 208 l 1
 156 208 l 1
 156 120 220 82 306 82 c 3
 359 82 419 92 440 97 c 1
 459 17 l 1
 415 0 354 -10 290 -10 c 0
 116 -10 35 94 35 240 c 3
 35 391 140 492 258 492 c 3
261 398 m 3
 212 398 158 370 158 292 c 1
 364 292 l 1
 364 370 319 398 261 398 c 3
EndSplineSet
Fore
Refer: 572 769 N 1 0 0 1 259 0 2
Refer: 2 101 N 1 0 0 1 0 0 3
Validated: 1
Layer: 3
SplineSet
378.906 756.348 m 29
 201.172 598.145 l 29
 240.234 549.316 l 29
 423.828 703.125 l 29
 378.906 756.348 l 29
EndSplineSet
Refer: 2 101 N 1 0 0 1 0 0 3
EndChar
StartChar: igrave
Encoding: 236 236 174
Width: 255
VWidth: 0
Flags: HMW
LayerCount: 4
Fore
Refer: 571 768 N 1 0 0 1 128 0 2
Refer: 140 305 N 1 0 0 1 0 0 3
Validated: 1
Layer: 3
SplineSet
40.0391 756.348 m 29
 217.773 598.145 l 29
 178.711 549.316 l 29
 -4.88281 703.125 l 29
 40.0391 756.348 l 29
EndSplineSet
Refer: 140 305 N 1 0 0 1 0 0 3
EndChar
StartChar: iacute
Encoding: 237 237 175
Width: 220
VWidth: 0
Flags: HMW
LayerCount: 4
Back
SplineSet
66 597 m 1
 181 730 l 1
 258 665 l 1
 134 536 l 1
 66 597 l 1
88 482 m 1
 208 482 l 1
 208 0 l 1
 88 0 l 1
 88 482 l 1
EndSplineSet
Fore
Refer: 572 769 N 1 0 0 1 110 0 2
Refer: 140 305 N 1 0 0 1 0 0 3
Validated: 1
Layer: 3
SplineSet
232.422 756.348 m 29
 54.6875 598.145 l 29
 93.75 549.316 l 29
 277.344 703.125 l 29
 232.422 756.348 l 29
EndSplineSet
Refer: 140 305 N 1 0 0 1 0 0 3
EndChar
StartChar: idieresis
Encoding: 239 239 136
Width: 255
VWidth: 0
Flags: HMW
LayerCount: 4
Fore
SplineSet
173 694 m 1
 263 694 l 1
 263 604 l 1
 173 604 l 1
 173 694 l 1
-7 694 m 1
 83 694 l 1
 83 604 l 1
 -7 604 l 1
 -7 694 l 1
EndSplineSet
Refer: 140 305 N 1 0 0 1 0 0 3
Validated: 1
Layer: 3
SplineSet
-7.32422 693.848 m 5
 83.0078 693.848 l 5
 83.0078 603.516 l 5
 -7.32422 603.516 l 5
 -7.32422 693.848 l 5
172.852 693.848 m 5
 263.184 693.848 l 5
 263.184 603.516 l 5
 172.852 603.516 l 5
 172.852 693.848 l 5
EndSplineSet
Refer: 140 305 N 1 0 0 1 0 0 3
EndChar
StartChar: eth
Encoding: 240 240 186
Width: 611
VWidth: 1023
Flags: HMW
AnchorPoint: "above" 302 670 basechar 0
AnchorPoint: "below" 302 0 basechar 0
AnchorPoint: "cedilla" 302 0 basechar 0
LayerCount: 4
Back
SplineSet
181 255 m 0
 181 162 253 96 336 96 c 0
 382 96 463 117 481 235 c 0
 485 267 486 301 486 327 c 2
 486 346 l 1
 409 386 360 394 327 394 c 0
 244 394 181 339 181 255 c 0
290 711 m 2
 348 697 403 675 452 645 c 1
 551 700 l 1
 598 619 l 1
 527 578 l 1
 588 508 604 426 604 332 c 0
 604 160 566 -10 327 -10 c 0
 166 -10 63 74 63 212 c 0
 63 348 157 464 315 464 c 0
 349 464 399 460 473 431 c 1
 462 463 443 491 412 518 c 1
 307 465 l 1
 253 546 l 1
 320 580 l 1
 295 592 269 602 242 610 c 2
 217 618 l 1
 271 716 l 1
 290 711 l 2
EndSplineSet
Fore
SplineSet
290 394 m 3
 201 394 141 327 141 238 c 3
 141 141 199 56 293 56 c 3
 418 56 446 162 446 311 c 3
 446 319 446 328 446 337 c 1
 386 375 333 394 290 394 c 3
436 604 m 1
 491 543 523 464 523 350 c 3
 523 144 487 -10 290 -10 c 3
 156 -10 63 74 63 208 c 3
 63 342 145 460 277 460 c 3
 331 460 380 442 441 407 c 1
 431 477 410 520 365 563 c 1
 278 513 l 1
 251 559 l 1
 321 599 l 1
 291 620 257 637 220 649 c 1
 250 712 l 1
 304 697 353 673 395 641 c 1
 483 694 l 1
 510 646 l 1
 436 604 l 1
EndSplineSet
Validated: 1
Layer: 3
SplineSet
251.337 558.921 m 1
 483.54 692.227 l 1
 510.151 646.138 l 1
 277.948 512.827 l 1
 251.337 558.921 l 1
250.488 712.158 m 1
 305.841 696.826 358.367 670.635 402.832 634.277 c 0
 435.629 607.461 463.76 574.648 483.398 537.109 c 0
 515.488 475.782 523.208 404.664 523.438 335.449 c 0
 523.618 280.926 520.762 226.045 508.789 172.852 c 0
 502.212 143.635 492.363 114.949 477.139 89.1602 c 0
 461.914 63.3711 441.103 40.7695 416.016 24.4141 c 0
 382.316 2.44336 341.944 -7.92676 301.758 -9.76562 c 0
 267.904 -11.3145 233.66 -7.22559 201.551 3.6084 c 0
 169.439 14.4434 139.588 32.627 116.699 57.6172 c 0
 97.3262 78.7695 83.1592 104.488 74.5703 131.855 c 0
 65.9805 159.223 62.7227 188.123 63.4766 216.797 c 0
 64.3379 249.598 70.3174 282.301 81.5234 313.141 c 0
 92.7285 343.98 109.432 373 131.836 396.973 c 0
 151.704 418.232 176.08 435.35 203.077 446.203 c 0
 230.074 457.059 259.519 461.525 288.574 459.961 c 0
 330.52 457.702 370.993 443.333 408.691 424.805 c 0
 444.13 407.387 477.769 386.418 509.766 363.281 c 1
 476.562 317.383 l 1
 448.034 337.369 417.977 355.293 386.23 369.629 c 0
 354.084 384.146 319.443 394.827 284.18 394.043 c 0
 245.742 393.188 207.543 377.043 181.641 348.633 c 0
 165.724 331.176 154.428 309.717 147.943 286.999 c 0
 141.459 264.281 139.598 240.336 141.602 216.797 c 0
 144.336 184.681 154.277 152.98 171.875 125.977 c 0
 186.062 104.206 205.371 85.6582 228.193 73.2344 c 0
 251.016 60.8105 277.281 54.6406 303.223 56.1523 c 0
 326.718 57.5215 349.812 65.2021 369.453 78.168 c 0
 389.094 91.1348 405.123 109.282 416.504 129.883 c 0
 430.555 155.318 437.608 184.081 441.406 212.891 c 0
 447.137 256.364 447.327 300.4 446.289 344.238 c 0
 445.175 391.307 440.668 439.254 421.875 482.422 c 0
 407.909 514.502 386.406 543.013 360.84 566.895 c 0
 320.863 604.243 272.031 631.621 220.215 649.17 c 1
 250.488 712.158 l 1
EndSplineSet
EndChar
StartChar: ograve
Encoding: 242 242 177
Width: 564
VWidth: 0
Flags: HMW
LayerCount: 4
Fore
Refer: 571 768 N 1 0 0 1 280 0 2
Refer: 6 111 N 1 0 0 1 0 0 3
Validated: 1
Layer: 3
SplineSet
258.301 756.348 m 25
 436.035 598.145 l 25
 396.973 549.316 l 25
 213.379 703.125 l 25
 258.301 756.348 l 25
EndSplineSet
Refer: 6 111 N 1 0 0 1 0 0 3
EndChar
StartChar: oacute
Encoding: 243 243 178
Width: 564
VWidth: 0
Flags: HMW
LayerCount: 4
Back
SplineSet
201 597.200195312 m 1
 316 730.200195312 l 1
 393 665.200195312 l 1
 269 536.200195312 l 1
 201 597.200195312 l 1
282 401 m 3
 192 401 158 340 158 240 c 3
 158 140 192 82 282 82 c 3
 372 82 406 140 406 240 c 3
 406 340 372 401 282 401 c 3
282 -10 m 3
 131 -10 35 90 35 240 c 3
 35 391 131 492 282 492 c 3
 434 492 530 392 530 241 c 3
 530 91 433 -10 282 -10 c 3
EndSplineSet
Fore
Refer: 572 769 N 1 0 0 1 280 0 2
Refer: 6 111 N 1 0 0 1 0 0 3
Validated: 1
Layer: 3
SplineSet
344.727 756.348 m 25
 166.992 598.145 l 25
 206.055 549.316 l 25
 389.648 703.125 l 25
 344.727 756.348 l 25
EndSplineSet
Refer: 6 111 N 1 0 0 1 0 0 3
EndChar
StartChar: divide
Encoding: 247 247 115
Width: 683
Flags: HMW
LayerCount: 4
Fore
SplineSet
342 472 m 259
 307 472 284 495 284 530 c 259
 284 565 307 588 342 588 c 259
 377 588 400 565 400 530 c 259
 400 495 377 472 342 472 c 259
564 318 m 1
 564 391 l 1
 118 391 l 1
 118 318 l 1
 564 318 l 1
342 118 m 259
 307 118 284 141 284 176 c 259
 284 211 307 234 342 234 c 259
 377 234 400 211 400 176 c 259
 400 141 377 118 342 118 c 259
EndSplineSet
Layer: 3
SplineSet
410.4453125 602.05078125 m 1
 505.66015625 602.05078125 l 1
 505.66015625 506.8359375 l 1
 410.4453125 506.8359375 l 1
 410.4453125 602.05078125 l 1
410.4453125 135.7421875 m 1
 505.66015625 135.7421875 l 1
 505.66015625 40.52734375 l 1
 410.4453125 40.52734375 l 1
 410.4453125 135.7421875 l 1
177.53515625 354.98046875 m 5
 739.05859375 354.98046875 l 5
 739.05859375 287.109375 l 1
 177.53515625 287.109375 l 1
 177.53515625 354.98046875 l 5
EndSplineSet
EndChar
StartChar: oslash
Encoding: 248 248 116
Width: 564
UnlinkRmOvrlpSave: 1
Flags: HMW
AnchorPoint: "above" 280 482 basechar 0
AnchorPoint: "below" 277 0 basechar 0
AnchorPoint: "cedilla" 277 0 basechar 0
LayerCount: 4
Fore
SplineSet
492 495 m 25
 538 448 l 25
 84 -17 l 25
 36 30 l 25
 492 495 l 25
EndSplineSet
Refer: 6 111 N 1 0 0 1 0 0 2
Validated: 5
Layer: 3
SplineSet
508.301 485.84 m 25
 536.621 458.496 l 25
 82.0312 -7.32422 l 25
 53.7109 20.0195 l 25
 508.301 485.84 l 25
EndSplineSet
Refer: 6 111 N 1 0 0 1 0 0 2
EndChar
StartChar: ugrave
Encoding: 249 249 181
Width: 543
VWidth: 0
Flags: HMW
LayerCount: 4
Back
SplineSet
357 596.200195312 m 1
 289 535.200195312 l 1
 165 664.200195312 l 1
 242 729.200195312 l 1
 357 596.200195312 l 1
391 0 m 1
 375 32 l 1
 343 10 296 -10 230 -10 c 3
 63 -10 55 123 55 207 c 2
 55 481 l 1
 175 481 l 1
 175 186 l 2
 175 150 185 88 262 88 c 3
 284 88 324 93 367 115 c 1
 367 481 l 1
 487 481 l 1
 487 0 l 1
 391 0 l 1
EndSplineSet
Fore
Refer: 571 768 N 1 0 0 1 265 0 2
Refer: 14 117 N 1 0 0 1 0 0 3
Validated: 1
Layer: 3
SplineSet
232.91 756.348 m 29
 410.645 598.145 l 29
 371.582 549.316 l 29
 187.988 703.125 l 29
 232.91 756.348 l 29
EndSplineSet
Refer: 14 117 N 1 0 0 1 0 0 3
EndChar
StartChar: uacute
Encoding: 250 250 182
Width: 543
VWidth: 0
Flags: HMW
LayerCount: 4
Back
SplineSet
193 596.200195312 m 1
 308 729.200195312 l 1
 385 664.200195312 l 1
 261 535.200195312 l 1
 193 596.200195312 l 1
391 0 m 1
 375 32 l 1
 343 10 296 -10 230 -10 c 3
 63 -10 55 123 55 207 c 2
 55 481 l 1
 175 481 l 1
 175 186 l 2
 175 150 185 88 262 88 c 3
 284 88 324 93 367 115 c 1
 367 481 l 1
 487 481 l 1
 487 0 l 1
 391 0 l 1
EndSplineSet
Fore
Refer: 572 769 N 1 0 0 1 265 0 2
Refer: 14 117 N 1 0 0 1 0 0 3
Validated: 1
Layer: 3
SplineSet
374.023 756.348 m 29
 196.289 598.145 l 29
 235.352 549.316 l 29
 418.945 703.125 l 29
 374.023 756.348 l 29
EndSplineSet
Refer: 14 117 N 1 0 0 1 0 0 3
EndChar
StartChar: yacute
Encoding: 253 253 184
Width: 517
VWidth: 0
Flags: HMW
LayerCount: 4
Back
SplineSet
196 597 m 1
 311 730 l 1
 388 665 l 1
 264 536 l 1
 196 597 l 1
0 481 m 1
 138 481 l 1
 281 112 l 1
 411 481 l 1
 538 481 l 1
 243 -259 l 1
 108 -259 l 1
 218 -4 l 1
 0 481 l 1
EndSplineSet
Fore
Refer: 572 769 N 1 0 0 1 256 0 2
Refer: 26 121 N 1 0 0 1 0 0 3
Validated: 1
Layer: 3
SplineSet
374.023 756.348 m 25
 196.289 598.145 l 25
 235.352 549.316 l 25
 418.945 703.125 l 25
 374.023 756.348 l 25
EndSplineSet
Refer: 26 121 N 1 0 0 1 0 0 3
EndChar
StartChar: thorn
Encoding: 254 254 187
Width: 552
Flags: HMW
LayerCount: 4
Back
SplineSet
312 381 m 0
 235 381 186 343 186 229 c 0
 186 174 200 97 314 97 c 0
 375 97 468 130 468 235 c 0
 468 333 385 381 312 381 c 0
327 490 m 0
 474 490 586 400 586 249 c 0
 586 100 481 -11 323 -11 c 0
 278 -11 232 0 192 21 c 1
 192 -259 l 1
 66 -259 l 1
 66 694 l 1
 192 694 l 1
 192 456 l 1
 233 480 281 490 327 490 c 0
EndSplineSet
Fore
SplineSet
262 423 m 3
 213 423 187 412 153 393 c 1
 153 75 l 1
 188 60 224 52 261 52 c 3
 364 52 421 133 421 240 c 3
 421 348 367 423 262 423 c 3
153 -261 m 1
 70 -261 l 1
 70 718 l 1
 153 718 l 1
 153 460 l 1
 193 482 235 494 280 494 c 3
 426 494 504 383 504 240 c 3
 504 91 412 -10 269 -10 c 3
 230 -10 191 -5 153 11 c 1
 153 -261 l 1
EndSplineSet
Validated: 1
Layer: 3
SplineSet
309.57 57.6172 m 0
 347.086 60 383.611 76.9355 409.18 104.492 c 0
 425.035 121.58 436.6 142.435 443.896 164.574 c 0
 451.193 186.713 454.449 210.088 454.59 233.398 c 0
 454.829 273.065 446.129 313.412 425.293 347.168 c 0
 411.997 368.709 393.697 387.228 371.963 400.205 c 0
 350.229 413.184 325.117 420.642 299.805 420.898 c 0
 283.084 421.068 266.293 418.068 250.829 411.705 c 0
 235.364 405.344 221.312 395.58 209.961 383.301 c 0
 191.73 363.578 181.022 337.857 175.475 311.579 c 0
 169.928 285.301 168.584 258.303 168.457 231.445 c 0
 168.361 211.222 169.109 190.922 172.479 170.981 c 0
 175.85 151.041 182.143 131.401 192.871 114.258 c 0
 204.928 94.9922 222.607 79.3037 243.181 69.6426 c 0
 263.753 59.9824 286.889 56.1758 309.57 57.6172 c 0
92.7734 693.848 m 1
 172.852 693.848 l 1
 172.852 399.902 l 1
 135.254 352.539 l 1
 139.215 378.4 149.945 403.182 166.016 423.828 c 0
 176.675 437.521 189.635 449.4 204.102 458.984 c 0
 232.191 477.592 265.676 487.353 299.316 489.258 c 0
 332.725 491.152 366.561 485.557 397.527 472.877 c 0
 428.494 460.197 456.472 440.145 478.027 414.551 c 0
 516.133 369.307 532.603 308.665 532.715 249.512 c 0
 532.842 184.529 514.424 118.057 473.145 67.8711 c 0
 451.785 41.9043 424.442 20.8311 393.71 7.19141 c 0
 362.978 -6.44824 328.977 -12.6963 295.41 -10.7422 c 0
 245.611 -7.84375 196.619 13.8516 163.086 50.7812 c 0
 141.738 74.292 126.845 103.628 120.605 134.766 c 1
 172.852 82.0312 l 1
 172.852 -259.277 l 1
 92.7734 -259.277 l 1
 92.7734 693.848 l 1
EndSplineSet
EndChar
StartChar: Amacron
Encoding: 256 256 226
Width: 609
VWidth: 0
Flags: HMW
LayerCount: 4
Fore
Refer: 576 772 N 1 0 0 1 304 188 2
Refer: 32 65 N 1 0 0 1 0 0 3
Layer: 3
SplineSet
177.49 828.613 m 1
 538.818 828.613 l 1
 538.818 765.625 l 1
 177.49 765.625 l 1
 177.49 828.613 l 1
EndSplineSet
Refer: 32 65 N 1 0 0 1 0 0 3
EndChar
StartChar: amacron
Encoding: 257 257 227
Width: 500
VWidth: 0
Flags: HMW
LayerCount: 4
Fore
Refer: 576 772 N 1 0 0 1 246 0 2
Refer: 0 97 N 1 0 0 1 0 0 3
Layer: 3
SplineSet
129.24 650.879 m 1
 389.319 650.879 l 1
 389.319 587.891 l 1
 129.24 587.891 l 1
 129.24 650.879 l 1
EndSplineSet
Refer: 0 97 N 1 0 0 1 0 0 3
EndChar
StartChar: Aogonek
Encoding: 260 260 339
GlifName: A_ogonek
Width: 595
VWidth: 0
UnlinkRmOvrlpSave: 1
Flags: HMW
LayerCount: 2
Back
SplineSet
658 0 m 1
 623 -17 494 -103 494 -144 c 3
 494 -160 507 -173 538 -173 c 3
 560 -173 586 -165 586 -165 c 1
 604 -250 l 1
 592 -254 562 -262 517 -262 c 3
 414 -262 382 -208 382 -168 c 3
 382 -114 412 -85 425 -72 c 0
 467 -30 537 17 539 18 c 1
 602 0 l 1
 658 0 l 1
277 692 m 1
 398 692 l 1
 658 0 l 1
 531 0 l 1
 461 180 l 1
 206 180 l 1
 137 0 l 1
 17 0 l 1
 277 692 l 1
422 292 m 1
 334 550 l 1
 245 292 l 1
 422 292 l 1
EndSplineSet
Fore
SplineSet
585 0 m 1
 558 -15 399 -84 399 -152 c 3
 399 -179 414 -200 439 -200 c 3
 458 -200 483 -194 493 -189 c 1
 509 -244 l 1
 503 -247 470 -262 411 -262 c 3
 353 -262 322 -213 322 -174 c 3
 322 -119 347 -91 360 -76 c 0
 396 -34 490 11 490 11 c 1
 522 9 553 2 585 0 c 1
EndSplineSet
Refer: 32 65 N 1 0 0 1 0 0 3
EndChar
StartChar: aogonek
Encoding: 261 261 341
Width: 500
VWidth: 0
UnlinkRmOvrlpSave: 1
Flags: HMW
AnchorPoint: "above" 246 482 basechar 0
LayerCount: 4
Fore
Refer: 580 808 N 1 0 0 1 400 0 2
Refer: 0 97 N 1 0 0 1 0 0 3
Validated: 5
Layer: 3
SplineSet
367.676 273.926 m 1
 367.188 213.867 l 1
 327.79 212.897 288.301 213.674 249.023 210.449 c 0
 232.644 209.104 216.244 206.787 200.605 201.734 c 0
 184.967 196.682 169.994 188.689 158.691 176.758 c 0
 146.024 163.387 138.451 144.807 140.137 126.465 c 0
 141.127 115.688 145.223 105.287 151.371 96.3809 c 0
 157.52 87.4746 165.678 80.0352 174.805 74.2188 c 0
 192.572 62.8955 213.803 57.709 234.863 57.1289 c 0
 264.393 56.3164 293.832 64.0566 320.312 77.1484 c 0
 352.716 93.1689 380.899 117.52 401.855 146.973 c 1
 424.805 97.168 l 1
 394.524 65.5322 359.402 38.2939 320.312 18.5547 c 0
 283.821 0.12793 242.883 -11.2646 202.148 -7.8125 c 0
 175.592 -5.56152 149.58 3.00586 126.953 17.0898 c 0
 108.438 28.6143 92.1016 43.8398 80.1953 62.1113 c 0
 68.2891 80.3848 60.9082 101.742 60.0586 123.535 c 0
 58.6445 159.802 75.8301 195.695 103.027 219.727 c 0
 126.891 240.812 157.422 253.096 188.457 260.23 c 0
 219.492 267.365 251.4 269.859 283.203 271.484 c 0
 311.338 272.922 339.507 273.599 367.676 273.926 c 1
90.8203 456.055 m 1
 109 462.891 127.601 468.604 146.484 473.145 c 0
 179.164 481.002 212.709 485.477 246.32 485.598 c 0
 279.931 485.719 313.955 481.59 345.215 469.238 c 0
 374.277 457.755 400.645 437.854 416.016 410.645 c 0
 424.141 396.261 429.143 380.23 431.631 363.899 c 0
 434.121 347.567 434.153 330.973 434.082 314.453 c 2
 432.617 -21.9727 l 1
 404.324 -36.5283 375.718 -50.5293 348.145 -66.4062 c 0
 329.885 -76.9209 311.947 -88.5693 297.713 -104.104 c 0
 290.596 -111.871 284.479 -120.637 280.32 -130.316 c 0
 276.162 -139.996 274.008 -150.636 274.902 -161.133 c 0
 275.94 -173.32 281.401 -185.215 290.527 -193.359 c 0
 299.785 -201.621 312.305 -205.672 324.707 -206.055 c 0
 340.647 -206.547 356.3 -201.759 371.094 -195.801 c 0
 383.323 -190.875 395.183 -185.059 406.738 -178.711 c 1
 430.176 -219.238 l 1
 415.227 -229.02 399.57 -237.735 383.301 -245.117 c 0
 359.683 -255.834 334.503 -263.975 308.594 -265.137 c 0
 287.791 -266.07 266.471 -262.043 248.535 -251.465 c 0
 234.078 -242.938 222.104 -230.247 214.502 -215.282 c 0
 206.902 -200.317 203.68 -183.264 204.59 -166.504 c 0
 206.309 -134.871 222.373 -105.325 243.838 -82.0254 c 0
 265.303 -58.7266 291.866 -40.6816 319.336 -24.9023 c 0
 345.293 -9.99121 372.318 3.02148 399.902 14.6484 c 1
 388.184 -25.8789 l 1
 353.516 56.1523 l 1
 353.516 293.457 l 2
 353.516 313.106 354.367 333.115 349.121 352.051 c 0
 346.325 362.144 341.681 371.741 335.305 380.05 c 0
 328.929 388.358 320.908 395.354 312.012 400.879 c 0
 289.889 414.621 263.188 419.323 237.145 419.556 c 0
 211.104 419.787 185.183 415.863 159.668 410.645 c 0
 141.603 406.949 123.691 402.51 105.957 397.461 c 1
 90.8203 456.055 l 1
EndSplineSet
EndChar
StartChar: cacute
Encoding: 263 263 231
Width: 456
VWidth: 0
Flags: HMW
LayerCount: 2
Back
SplineSet
175 597 m 1
 290 730 l 1
 367 665 l 1
 243 536 l 1
 175 597 l 1
158 240 m 3
 158 140 245 91 311 91 c 3
 376 91 410 105 434 112 c 1
 469 33 l 1
 425 12 377 -10 299 -10 c 3
 159 -10 35 89 35 240 c 3
 35 391 153 492 293 492 c 3
 383 492 430 473 459 463 c 1
 434 368 l 1
 411 375 371 389 294 389 c 3
 225 389 158 340 158 240 c 3
EndSplineSet
Fore
Refer: 568 769 N 1 0 0 1 260 0 2
Refer: 18 99 N 1 0 0 1 0 0 3
Validated: 1
EndChar
StartChar: dcaron
Encoding: 271 271 239
Width: 695
VWidth: 0
Flags: HMW
LayerCount: 4
Fore
Refer: 587 789 N 1 0 0 1 576 0 2
Refer: 1 100 N 1 0 0 1 0 0 2
Validated: 1
Layer: 3
SplineSet
590.332 737.793 m 5
 670.898 737.793 l 5
 613.281 547.363 l 5
 532.715 547.363 l 5
 590.332 737.793 l 5
EndSplineSet
Refer: 1 100 N 1 0 0 1 0 0 2
EndChar
StartChar: dcroat
Encoding: 273 273 337
Width: 604
VWidth: 1023
Flags: HMW
AnchorPoint: "above" 296 670 basechar 0
AnchorPoint: "below" 296 0 basechar 0
AnchorPoint: "cedilla" 296 0 basechar 0
LayerCount: 4
Fore
SplineSet
279 -10 m 0
 131 -10 56 92 56 236 c 0
 56 319 79 384 125 430 c 0
 169 473 224 494 290 494 c 0
 329 494 368 487 406 471 c 1
 406 558 l 1
 276 558 l 1
 276 621 l 1
 406 621 l 1
 406 671 l 1
 489 671 l 1
 489 621 l 1
 561 621 l 1
 561 558 l 1
 489 558 l 1
 489 0 l 1
 430 0 l 1
 416 34 l 1
 373 6 327 -10 279 -10 c 0
297 59 m 0
 346 59 372 70 406 89 c 1
 406 407 l 1
 371 422 336 428 298 428 c 0
 191 428 141 350 141 243 c 0
 141 135 191 59 297 59 c 0
EndSplineSet
Validated: 1
Layer: 3
SplineSet
276.367 620.605 m 1
 560.547 620.605 l 1
 560.547 557.617 l 1
 276.367 557.617 l 1
 276.367 620.605 l 1
EndSplineSet
Refer: 1 100 N 1 0 0 1 0 0 2
EndChar
StartChar: Emacron
Encoding: 274 274 241
Width: 551
VWidth: 0
Flags: HMW
LayerCount: 4
Back
SplineSet
157 770 m 1
 157 865 l 1
 459 865 l 1
 459 770 l 1
 157 770 l 1
80 0 m 1
 80 692 l 1
 532 692 l 1
 532 579 l 1
 203 579 l 1
 203 407 l 1
 496 407 l 1
 496 294 l 1
 203 294 l 1
 203 113 l 1
 532 113 l 1
 532 0 l 1
 80 0 l 1
EndSplineSet
Fore
Refer: 576 772 N 1 0 0 1 289 211 2
Refer: 34 69 N 1 0 0 1 0 0 3
Layer: 3
SplineSet
175.781 828.613 m 5
 533.691 828.613 l 5
 533.691 765.625 l 5
 175.781 765.625 l 5
 175.781 828.613 l 5
EndSplineSet
Refer: 34 69 N 1 0 0 1 0 0 3
EndChar
StartChar: Edotaccent
Encoding: 278 278 245
Width: 551
VWidth: 0
Flags: HMW
LayerCount: 4
Back
SplineSet
308 740 m 259
 269 740 234 775 234 814 c 259
 234 853 269 888 308 888 c 259
 347 888 382 853 382 814 c 259
 382 775 347 740 308 740 c 259
80 0 m 1
 80 692 l 1
 532 692 l 1
 532 579 l 1
 203 579 l 1
 203 407 l 1
 496 407 l 1
 496 294 l 1
 203 294 l 1
 203 113 l 1
 532 113 l 1
 532 0 l 1
 80 0 l 1
EndSplineSet
Fore
Refer: 573 775 N 1 0 0 1 289 211 2
Refer: 34 69 N 1 0 0 1 0 0 3
Validated: 1
Layer: 3
Refer: 224 729 S 1 0 0 1 52.002 188.965 2
Refer: 34 69 N 1 0 0 1 0 0 3
EndChar
StartChar: Eogonek
Encoding: 280 280 342
Width: 551
VWidth: 0
Flags: HMW
LayerCount: 4
Fore
SplineSet
380 -1 m 1
 85 -1 l 1
 85 693 l 1
 491 693 l 1
 491 619 l 1
 168 619 l 1
 168 394 l 1
 464 394 l 1
 464 320 l 1
 168 320 l 1
 168 73 l 1
 491 73 l 1
 491 14 l 1
 460 -6 l 2
 369 -63 336 -117 336 -149 c 0
 336 -185 358 -200 394 -200 c 0
 412 -200 436 -190 468 -171 c 1
 491 -215 l 1
 446 -248 405 -264 365 -265 c 0
 342 -265 323 -261 308 -250 c 0
 280 -230 266 -204 266 -171 c 0
 266 -138 277 -109 299 -77 c 24
 323 -41 380 -1 380 -1 c 1
EndSplineSet
Validated: 1
Layer: 3
SplineSet
141.602 0 m 1
 141.602 693.848 l 1
 548.34 693.848 l 1
 548.34 620.605 l 1
 224.609 620.605 l 1
 224.609 394.043 l 1
 521.484 394.043 l 1
 521.484 320.801 l 1
 224.609 320.801 l 1
 224.609 73.2422 l 1
 548.34 73.2422 l 1
 547.852 13.6719 l 1
 519.556 -6.93555 490.435 -26.4033 462.402 -47.3633 c 0
 443.238 -61.6914 424.488 -77.1631 410.645 -96.6797 c 0
 399.306 -112.664 391.284 -131.785 392.09 -151.367 c 0
 392.379 -158.373 393.849 -165.357 396.704 -171.762 c 0
 399.56 -178.166 403.822 -183.953 409.18 -188.477 c 0
 418.57 -196.408 431.068 -200.071 443.359 -200.195 c 0
 455.003 -200.312 466.525 -197.629 477.539 -193.848 c 0
 493.818 -188.258 509.263 -180.402 523.926 -171.387 c 1
 547.363 -215.332 l 1
 534.238 -225.029 520.361 -233.725 505.859 -241.211 c 0
 479.479 -254.828 450.586 -264.898 420.898 -265.137 c 0
 399.691 -265.307 378.136 -259.831 360.84 -247.559 c 0
 347.994 -238.443 337.753 -225.781 331.205 -211.455 c 0
 324.658 -197.13 321.723 -181.278 321.777 -165.527 c 0
 321.885 -134.848 332.839 -104.793 349.609 -79.1016 c 0
 369.059 -49.3076 397.238 -26.4297 426.27 -5.85938 c 2
 511.719 54.6875 l 1
 508.789 0 l 1
 141.602 0 l 1
EndSplineSet
EndChar
StartChar: eogonek
Encoding: 281 281 343
Width: 511
VWidth: 0
UnlinkRmOvrlpSave: 1
Flags: HMW
AnchorPoint: "above" 272 482 basechar 0
LayerCount: 4
Fore
SplineSet
444 17 m 1
 417 2 285 -84 285 -152 c 3
 285 -179 300 -200 325 -200 c 3
 344 -200 369 -194 379 -189 c 1
 395 -244 l 1
 389 -247 356 -262 297 -262 c 3
 239 -262 208 -213 208 -174 c 3
 208 -119 242 -77 255 -62 c 0
 291 -20 378 36 378 36 c 2
 415 26 l 1
 444 17 l 1
EndSplineSet
Refer: 2 101 N 1 0 0 1 0 0 3
Validated: 5
Layer: 3
SplineSet
288.574 416.992 m 0
 261.783 418.895 234.129 413.277 211.426 398.926 c 0
 192.4 386.9 177.476 369.038 166.992 349.121 c 0
 152.503 321.594 145.485 290.382 145.02 259.277 c 1
 396.973 259.277 l 1
 397.535 279.705 396.349 300.229 392.578 320.312 c 0
 388.662 341.172 381.426 361.847 368.164 378.418 c 0
 358.681 390.268 346.299 399.714 332.524 406.088 c 0
 318.751 412.461 303.713 415.917 288.574 416.992 c 0
291.992 486.816 m 0
 315.916 487.194 340.016 483.991 362.579 476.031 c 0
 385.145 468.072 406.021 455.12 422.59 437.857 c 0
 448.42 410.943 462.566 374.598 468.949 337.844 c 0
 474.199 307.613 474.609 276.776 474.609 246.094 c 2
 474.609 198.73 l 1
 143.066 198.73 l 1
 143.973 166.851 156.867 135.6 178.111 111.813 c 0
 196.718 90.9824 221.164 75.8066 247.364 66.1279 c 0
 271.427 57.2383 297.103 52.9414 322.754 52.7344 c 0
 335.284 52.6338 347.812 53.46 360.26 54.9004 c 0
 372.775 56.3486 385.221 58.4062 397.553 60.9883 c 0
 409.856 63.5654 422.048 66.6777 434.082 70.3125 c 1
 448.242 15.625 l 1
 415.725 4.62012 385.376 -12.7402 359.375 -35.1562 c 0
 340.717 -51.2422 324.06 -69.7754 310.94 -90.627 c 0
 304.381 -101.051 298.738 -112.105 294.846 -123.791 c 0
 290.955 -135.478 288.82 -147.899 290.039 -160.156 c 0
 290.785 -167.658 292.836 -175.07 296.442 -181.69 c 0
 300.049 -188.311 305.24 -194.077 311.523 -198.242 c 0
 319.564 -203.572 329.229 -206.166 338.867 -206.543 c 0
 354.967 -207.172 370.783 -202.273 385.742 -196.289 c 0
 398.119 -191.338 410.137 -185.517 421.875 -179.199 c 1
 445.312 -219.727 l 1
 433.729 -227.48 421.659 -234.512 409.18 -240.723 c 0
 379.82 -255.334 347.73 -266.182 314.941 -265.625 c 0
 295.145 -265.289 275.14 -260.191 258.789 -249.023 c 0
 246.013 -240.297 235.739 -228.015 229.172 -214.005 c 0
 222.605 -199.996 219.675 -184.418 219.727 -168.945 c 0
 219.803 -146.041 226.17 -123.455 235.877 -102.709 c 0
 245.584 -81.9648 258.629 -62.8828 273.438 -45.4102 c 0
 301.826 -11.916 336.562 16.0029 374.512 38.0859 c 1
 422.852 9.76562 l 1
 397.957 1.19531 372.17 -4.76855 346.049 -8.07227 c 0
 328.774 -10.2568 311.357 -11.3047 293.945 -11.2305 c 0
 252.651 -11.0547 210.721 -4.74707 173.533 13.2061 c 0
 139.885 29.4512 111.151 55.8672 92.7891 88.4082 c 0
 71.0576 126.92 63.6055 172.089 63.4766 216.309 c 0
 63.3125 272.921 73.7168 330.804 102.359 379.636 c 0
 123.387 415.485 154.925 445.147 192.268 463.393 c 0
 223.191 478.502 257.578 486.273 291.992 486.816 c 0
EndSplineSet
EndChar
StartChar: Gcommaaccent
Encoding: 290 290 255
Width: 709
VWidth: 0
Flags: HMW
LayerCount: 4
Back
SplineSet
416.5 -284 m 5
 320.5 -266 l 5
 352.5 -90 l 1
 461.5 -108 l 1
 416.5 -284 l 5
671 71 m 1
 645 52 592 -10 392 -10 c 3
 192 -10 50 150 50 350 c 3
 50 550 192 706 392 706 c 3
 452 706 562 690 632 660 c 1
 592 562 l 1
 522 587 442 593 392 593 c 3
 252 593 173 470 173 350 c 3
 173 230 252 103 392 103 c 3
 450 103 519 113 550 130 c 1
 550 273 l 1
 369 273 l 1
 369 386 l 1
 671 386 l 1
 671 71 l 1
EndSplineSet
Fore
Refer: 585 806 N 1 0 0 1 377 -23 2
Refer: 28 71 N 1 0 0 1 0 0 3
Validated: 1
Layer: 3
Refer: 69 44 N 1 0 0 1 334.717 -151.887 2
Refer: 28 71 N 1 0 0 1 0 0 3
EndChar
StartChar: uni0122
Encoding: 290 290 255
Width: 709
VWidth: 0
Flags: HMW
LayerCount: 2
Back
SplineSet
416.5 -284 m 5
 320.5 -266 l 5
 352.5 -90 l 1
 461.5 -108 l 1
 416.5 -284 l 5
671 71 m 1
 645 52 592 -10 392 -10 c 3
 192 -10 50 150 50 350 c 3
 50 550 192 706 392 706 c 3
 452 706 562 690 632 660 c 1
 592 562 l 1
 522 587 442 593 392 593 c 3
 252 593 173 470 173 350 c 3
 173 230 252 103 392 103 c 3
 450 103 519 113 550 130 c 1
 550 273 l 1
 369 273 l 1
 369 386 l 1
 671 386 l 1
 671 71 l 1
EndSplineSet
Fore
Refer: 581 806 N 1 0 0 1 400 -11 2
Refer: 28 71 N 1 0 0 1 0 0 3
Validated: 1
EndChar
StartChar: Hcircumflex
Encoding: 292 292 256
Width: 721
VWidth: 0
Flags: HMW
LayerCount: 4
Back
SplineSet
222 808 m 1
 348 940 l 1
 384 940 l 1
 512 808 l 1
 444 746 l 5
 367 830 l 1
 290 746 l 1
 222 808 l 1
537 692 m 1
 660 692 l 1
 660 0 l 1
 537 0 l 1
 537 309 l 1
 203 309 l 1
 203 0 l 1
 80 0 l 1
 80 692 l 1
 203 692 l 1
 203 422 l 1
 537 422 l 1
 537 692 l 1
EndSplineSet
Fore
Refer: 332 770 N 1 0 0 1 365 210 2
Refer: 29 72 N 1 0 0 1 0 0 3
Validated: 1
Layer: 3
Refer: 219 710 S 1 0 0 1 58.5938 193.359 2
Refer: 29 72 N 1 0 0 1 0 0 3
EndChar
StartChar: Hbar
Encoding: 294 294 335
Width: 721
VWidth: 1023
Flags: HMW
AnchorPoint: "above" 360 670 basechar 0
AnchorPoint: "cedilla" 360 0 basechar 0
AnchorPoint: "below" 360 0 basechar 0
LayerCount: 4
Fore
SplineSet
547 694 m 1
 635 694 l 1
 635 621 l 1
 685 621 l 1
 685 553 l 1
 635 553 l 1
 635 0 l 1
 547 0 l 1
 547 311 l 1
 162 311 l 1
 162 0 l 1
 75 0 l 1
 75 553 l 1
 25 553 l 1
 25 621 l 1
 75 621 l 1
 75 694 l 1
 162 694 l 1
 162 621 l 1
 547 621 l 1
 547 694 l 1
547 553 m 1
 162 553 l 1
 162 386 l 1
 547 386 l 1
 547 553 l 1
EndSplineSet
Validated: 1
Layer: 3
SplineSet
74.2188 620.605 m 5
 757.812 620.605 l 5
 757.812 553.223 l 5
 74.2188 553.223 l 5
 74.2188 620.605 l 5
EndSplineSet
Refer: 29 72 S 1 0 0 1 0 0 2
EndChar
StartChar: hbar
Encoding: 295 295 336
Width: 542
VWidth: 1023
Flags: HMW
AnchorPoint: "above" 262 670 basechar 0
AnchorPoint: "below" 262 0 basechar 0
AnchorPoint: "cedilla" 262 0 basechar 0
LayerCount: 4
Fore
SplineSet
384 310 m 2
 384 390 357 427 278 427 c 0
 240 427 197 415 148 391 c 1
 148 0 l 1
 65 0 l 1
 65 558 l 1
 21 558 l 1
 21 621 l 1
 65 621 l 1
 65 671 l 1
 148 671 l 1
 148 621 l 1
 306 621 l 1
 306 558 l 1
 148 558 l 1
 148 452 l 1
 206 481 259 496 309 496 c 0
 410 496 465 431 465 329 c 2
 465 0 l 1
 384 0 l 1
 384 310 l 2
EndSplineSet
Validated: 1
Layer: 3
SplineSet
46.3867 620.605 m 1
 330.566 620.605 l 1
 330.566 557.617 l 1
 46.3867 557.617 l 1
 46.3867 620.605 l 1
EndSplineSet
Refer: 3 104 N 1 0 0 1 0 0 2
EndChar
StartChar: itilde
Encoding: 297 297 259
Width: 220
VWidth: 0
Flags: HMW
LayerCount: 4
Fore
Refer: 575 771 N 1 0 0 1 110 0 2
Refer: 140 305 N 1 0 0 1 0 0 3
Validated: 1
Layer: 3
SplineSet
21.9727 557.617 m 1
 -28.8086 571.289 l 1
 -16.1133 619.141 l 2
 -13.6875 628.281 -11.127 637.441 -7.16602 646.03 c 0
 -3.20508 654.619 2.1123 662.603 8.71191 669.38 c 0
 21.9111 682.935 39.8867 691.514 58.5938 694.336 c 0
 73.1299 696.528 88.415 695.049 101.665 688.682 c 0
 108.289 685.498 114.325 681.143 119.604 676.03 c 0
 124.885 670.913 129.379 665.059 133.789 659.18 c 2
 157.227 627.93 l 2
 161.683 621.987 166.07 615.874 171.807 611.157 c 0
 174.675 608.799 177.895 606.831 181.405 605.62 c 0
 184.914 604.404 188.706 603.975 192.383 604.492 c 0
 196.834 605.122 201.045 607.158 204.445 610.098 c 0
 207.846 613.037 210.445 616.816 212.428 620.854 c 0
 216.393 628.921 218.314 637.817 220.703 646.484 c 2
 233.887 694.336 l 1
 284.668 680.176 l 1
 271.973 632.812 l 2
 266.686 613.091 260.432 593.174 248.312 576.738 c 0
 236.191 560.303 218.627 547.559 198.73 542.969 c 0
 184.066 539.585 168.215 540.962 154.722 547.627 c 0
 147.976 550.957 141.873 555.522 136.521 560.811 c 0
 131.17 566.104 126.585 572.104 122.07 578.125 c 2
 98.6328 609.375 l 2
 93.8174 615.796 89.0254 622.368 82.79 627.422 c 0
 79.6719 629.951 76.1875 632.061 72.4004 633.389 c 0
 68.6143 634.717 64.5312 635.244 60.5469 634.766 c 0
 53.6807 633.936 47.3682 629.971 43.2041 624.448 c 0
 39.0391 618.926 36.9932 612.139 35.1562 605.469 c 2
 21.9727 557.617 l 1
EndSplineSet
Refer: 140 305 N 1 0 0 1 0 -4.39453 3
EndChar
StartChar: Imacron
Encoding: 298 298 260
Width: 283
VWidth: 0
Flags: HMW
LayerCount: 4
Fore
SplineSet
28 827 m 1
 256 827 l 1
 256 763 l 1
 28 763 l 1
 28 827 l 1
EndSplineSet
Refer: 40 73 N 1 0 0 1 0 0 3
Layer: 3
SplineSet
97.6562 828.613 m 1
 297.852 828.613 l 1
 297.852 765.625 l 1
 97.6562 765.625 l 1
 97.6562 828.613 l 1
EndSplineSet
Refer: 40 73 N 1 0 0 1 0 0 3
EndChar
StartChar: imacron
Encoding: 299 299 261
Width: 255
VWidth: 0
Flags: HMW
LayerCount: 4
Fore
SplineSet
39 652 m 1
 217 652 l 1
 217 588 l 1
 39 588 l 1
 39 652 l 1
EndSplineSet
Refer: 140 305 N 1 0 0 1 0 0 3
Validated: 1
Layer: 3
SplineSet
39.0625 650.879 m 5
 216.797 650.879 l 5
 216.797 587.891 l 5
 39.0625 587.891 l 5
 39.0625 650.879 l 5
EndSplineSet
Refer: 140 305 N 1 0 0 1 0 0 3
EndChar
StartChar: ibreve
Encoding: 301 301 263
Width: 220
VWidth: 0
Flags: HMW
LayerCount: 4
Back
SplineSet
-37 655 m 1
 50 699 l 1
 59 677 90 628 148 628 c 3
 206 628 237 677 246 699 c 1
 333 655 l 1
 317 589 235 530 148 530 c 3
 60 530 -20 586 -37 655 c 1
88 482 m 1
 208 482 l 1
 208 0 l 1
 88 0 l 1
 88 482 l 1
EndSplineSet
Fore
Refer: 577 774 N 1 0 0 1 110 0 2
Refer: 140 305 N 1 0 0 1 0 0 3
Validated: 1
Layer: 3
SplineSet
251.221 699.707 m 1
 242.982 688.594 234.317 677.788 225.098 667.476 c 0
 212.654 653.555 199.08 640.347 182.983 630.884 c 0
 166.887 621.426 147.943 616.27 129.395 618.408 c 0
 116.121 619.941 103.367 625.068 92.3232 632.588 c 0
 81.2793 640.107 71.877 649.878 63.9648 660.645 c 0
 54.9668 672.886 47.7979 686.45 42.4805 700.684 c 1
 -17.5781 668.457 l 1
 -12.5068 652.207 -5.86426 636.436 2.44141 621.577 c 0
 11.0869 606.113 21.6465 591.602 34.668 579.585 c 0
 48.7031 566.636 65.6357 556.812 83.9209 551.304 c 0
 102.206 545.796 121.672 544.536 140.625 546.875 c 0
 171.594 550.698 201.006 563.931 226.074 582.515 c 0
 239.607 592.549 251.969 604.121 263.184 616.694 c 0
 275.687 630.708 286.793 645.962 296.387 662.109 c 1
 251.221 699.707 l 1
EndSplineSet
Refer: 140 305 N 1 0 0 1 0 0 3
EndChar
StartChar: Iogonek
Encoding: 302 302 344
Width: 356
VWidth: 0
Flags: MW
LayerCount: 4
Fore
SplineSet
111 -266 m 0
 55 -266 15 -219 15 -173 c 0
 15 -119 37 -70 84 -26 c 0
 105 -6 130 11 156 24 c 1
 156 694 l 1
 239 694 l 1
 239 15 l 1
 166 -25 119 -65 98 -105 c 0
 90 -121 85 -135 85 -148 c 0
 85 -182 108 -201 139 -201 c 0
 160 -201 186 -191 217 -172 c 1
 241 -216 l 1
 194 -249 154 -266 111 -266 c 0
EndSplineSet
Validated: 1
Layer: 3
SplineSet
156.25 693.848 m 1
 239.258 693.848 l 1
 239.258 14.6484 l 1
 197.575 -8.08887 157.082 -34.2988 124.512 -68.8477 c 0
 114.192 -79.7939 104.82 -91.7344 97.6641 -104.967 c 0
 90.5078 -118.199 85.5439 -132.906 85.4492 -147.949 c 0
 85.4043 -155.126 86.5078 -162.338 89.0137 -169.062 c 0
 91.5195 -175.788 95.4531 -181.996 100.586 -187.012 c 0
 109.836 -196.05 122.816 -200.744 135.742 -201.172 c 0
 151.056 -201.679 166.08 -196.923 180.176 -190.918 c 0
 192.976 -185.465 205.304 -178.947 217.285 -171.875 c 1
 240.723 -215.82 l 1
 228.281 -224.84 215.236 -233.034 201.66 -240.234 c 0
 175.172 -254.283 146.188 -265.017 116.211 -265.625 c 0
 93.1152 -266.094 69.5303 -259.756 51.2695 -245.605 c 0
 39.3145 -236.342 29.8398 -223.974 23.709 -210.147 c 0
 17.5791 -196.321 14.7334 -181.14 14.6484 -166.016 c 0
 14.498 -139.271 22.6924 -112.915 35.3145 -89.3359 c 0
 47.9365 -65.7578 64.9971 -44.6973 84.4727 -26.3672 c 0
 117.191 4.42676 156.783 27.7168 199.219 42.4805 c 1
 156.25 0.976562 l 1
 156.25 693.848 l 1
EndSplineSet
EndChar
StartChar: iogonek
Encoding: 303 303 344
Width: 220
VWidth: 0
UnlinkRmOvrlpSave: 1
Flags: HMW
LayerCount: 2
Back
SplineSet
197 -43 m 1
 162 -60 47 -103 47 -144 c 3
 47 -160 60 -173 91 -173 c 3
 113 -173 139 -165 139 -165 c 1
 157 -250 l 1
 145 -254 115 -262 70 -262 c 3
 -33 -262 -65 -208 -65 -168 c 3
 -65 -114 -35 -85 -22 -72 c 0
 20 -30 99 -1 101 0 c 1
 197 0 l 1
 197 -43 l 1
148 530 m 259
 109 530 74 565 74 604 c 259
 74 643 109 678 148 678 c 259
 187 678 222 643 222 604 c 259
 222 565 187 530 148 530 c 259
88 482 m 1
 208 482 l 1
 208 0 l 1
 88 0 l 1
 88 482 l 1
EndSplineSet
Fore
SplineSet
135 -19 m 1
 108 -34 -20 -84 -20 -152 c 3
 -20 -179 -5 -200 20 -200 c 3
 39 -200 64 -194 74 -189 c 1
 90 -244 l 1
 84 -247 51 -262 -8 -262 c 3
 -66 -262 -97 -213 -97 -174 c 3
 -97 -119 -72 -91 -59 -76 c 0
 -23 -34 52 0 52 0 c 2
 135 0 l 1
 135 -19 l 1
EndSplineSet
Refer: 4 105 N 1 0 0 1 0 0 3
Validated: 5
EndChar
StartChar: dotlessi
Encoding: 305 305 140
GlifName: dotlessi
Width: 222
VWidth: 1023
Flags: HMW
AnchorPoint: "below" 111 0 basechar 0
AnchorPoint: "above" 111 482 basechar 0
LayerCount: 2
Back
SplineSet
89 482 m 1
 209 482 l 1
 209 0 l 1
 89 0 l 1
 89 482 l 1
EndSplineSet
Fore
SplineSet
71 482 m 1
 151 482 l 1
 151 0 l 1
 71 0 l 1
 71 482 l 1
EndSplineSet
EndChar
StartChar: idotless
Encoding: 305 305 140
GlifName: dotlessi
Width: 241
VWidth: 1023
Flags: HMW
AnchorPoint: "below" 121 0 basechar 0
AnchorPoint: "above" 121 482 basechar 0
LayerCount: 2
Back
SplineSet
99 482 m 1
 219 482 l 1
 219 0 l 1
 99 0 l 1
 99 482 l 1
EndSplineSet
Fore
SplineSet
81 482 m 1
 161 482 l 1
 161 0 l 1
 81 0 l 1
 81 482 l 1
EndSplineSet
EndChar
StartChar: uni0136
Encoding: 310 310 269
Width: 631
VWidth: 0
Flags: HMW
LayerCount: 2
Back
SplineSet
327 -252 m 5
 231 -234 l 5
 263 -58 l 1
 372 -76 l 1
 327 -252 l 5
203 692 m 1
 203 0 l 1
 80 0 l 1
 80 692 l 1
 203 692 l 1
213 358 m 1
 487 692 l 1
 627 692 l 1
 355 358 l 1
 647 0 l 1
 501 0 l 1
 213 358 l 1
EndSplineSet
Fore
Refer: 581 806 N 1 0 0 1 315 0 2
Refer: 43 75 N 1 0 0 1 0 0 3
Validated: 1
EndChar
StartChar: uni0137
Encoding: 311 311 270
Width: 504
VWidth: 0
Flags: HMW
LayerCount: 2
Back
SplineSet
273 -252 m 5
 177 -234 l 5
 209 -58 l 1
 318 -76 l 1
 273 -252 l 5
180 718 m 1
 180 0 l 1
 60 0 l 1
 60 718 l 1
 180 718 l 1
376 481 m 1
 522 481 l 1
 336 266 l 1
 541 0 l 1
 394 0 l 1
 193 266 l 1
 376 481 l 1
EndSplineSet
Fore
Refer: 581 806 N 1 0 0 1 259 0 2
Refer: 22 107 N 1 0 0 1 0 0 3
Validated: 1
EndChar
StartChar: kgreenlandic
Encoding: 312 312 327
GlifName: kgreenlandic
Width: 500
VWidth: 0
Flags: HMWO
LayerCount: 2
Back
SplineSet
81 482 m 257
 164 482 l 257
 164 0 l 257
 81 0 l 257
 81 482 l 257
132 122 m 257
 85 181 l 257
 370 482 l 257
 471 482 l 257
 132 122 l 257
490 0 m 257
 399 0 l 257
 226 268 l 257
 283 328 l 257
 490 0 l 257
EndSplineSet
Fore
SplineSet
490 0 m 5
 399 0 l 5
 244 241 l 5
 164 156 l 5
 164 0 l 5
 81 0 l 5
 81 482 l 5
 164 482 l 5
 164 264 l 5
 370 482 l 5
 471 482 l 5
 300 301 l 5
 490 0 l 5
EndSplineSet
EndChar
StartChar: uni013B
Encoding: 315 315 273
Width: 504
VWidth: 0
Flags: HMW
LayerCount: 2
Back
SplineSet
299 -252 m 5
 203 -234 l 5
 235 -58 l 1
 344 -76 l 1
 299 -252 l 5
80 692 m 1
 203 692 l 1
 203 113 l 1
 531 113 l 1
 531 0 l 1
 80 0 l 1
 80 692 l 1
EndSplineSet
Fore
Refer: 581 806 N 1 0 0 1 255 0 2
Refer: 33 76 N 1 0 0 1 0 0 3
Validated: 1
EndChar
StartChar: uni013C
Encoding: 316 316 274
Width: 284
VWidth: 0
Flags: HMW
LayerCount: 2
Back
SplineSet
149 -252 m 5
 53 -234 l 5
 85 -58 l 1
 194 -76 l 1
 149 -252 l 5
234 84 m 3
 253 84 269 87 269 87 c 1
 291 14 l 1
 291 14 238 -10 183 -10 c 3
 81 -10 60 57 60 125 c 2
 60 718 l 1
 178 718 l 1
 178 160 l 2
 178 113 187 84 234 84 c 3
EndSplineSet
Fore
Refer: 581 806 N 1 0 0 1 185 -11 2
Refer: 10 108 N 1 0 0 1 0 0 3
Validated: 1
EndChar
StartChar: Lcaron
Encoding: 317 317 275
Width: 504
VWidth: 0
Flags: HMW
LayerCount: 4
Back
SplineSet
417 536 m 5
 321 554 l 5
 353 730 l 1
 462 712 l 1
 417 536 l 5
80 692 m 1
 203 692 l 1
 203 113 l 1
 531 113 l 1
 531 0 l 1
 80 0 l 1
 80 692 l 1
EndSplineSet
Fore
Refer: 587 789 N 1 0 0 1 322 -15 2
Refer: 33 76 N 1 0 0 1 0 0 2
Validated: 1
Layer: 3
Refer: 69 44 S 1 0 0 1 309.57 610.84 2
Refer: 33 76 N 1 0 0 1 0 0 2
EndChar
StartChar: lcaron
Encoding: 318 318 276
Width: 281
VWidth: 0
Flags: HMW
LayerCount: 4
Fore
Refer: 587 789 N 1 0 0 1 250 -15 2
Refer: 10 108 N 1 0 0 1 0 0 2
Validated: 1
Layer: 3
SplineSet
288.086 737.793 m 5
 368.652 737.793 l 5
 311.035 547.363 l 5
 230.469 547.363 l 5
 288.086 737.793 l 5
EndSplineSet
Refer: 10 108 N 1 0 0 1.00066 0 0 2
EndChar
StartChar: Lslash
Encoding: 321 321 325
Width: 504
VWidth: 1023
UnlinkRmOvrlpSave: 1
Flags: MW
AnchorPoint: "above" 250 670 basechar 0
AnchorPoint: "cedilla" 250 0 basechar 0
AnchorPoint: "below" 250 0 basechar 0
AnchorPoint: "aboveright" 354 670 basechar 0
LayerCount: 4
Fore
SplineSet
14 314 m 1
 295 477 l 1
 295 393 l 1
 14 230 l 1
 14 314 l 1
EndSplineSet
Refer: 33 76 N 1 0 0 1 0 0 2
Validated: 5
Layer: 3
SplineSet
71.2891 314.453 m 1
 351.562 476.562 l 1
 351.562 392.578 l 1
 71.2891 230.469 l 1
 71.2891 314.453 l 1
EndSplineSet
Refer: 33 76 N 1 0 0 1 0 0 2
EndChar
StartChar: lslash
Encoding: 322 322 326
Width: 335
VWidth: 1023
UnlinkRmOvrlpSave: 1
Flags: HMW
AnchorPoint: "above" 115 670 basechar 0
AnchorPoint: "below" 171 0 basechar 0
AnchorPoint: "cedilla" 171 0 basechar 0
AnchorPoint: "aboveright" 275 670 basechar 0
LayerCount: 4
Fore
SplineSet
44 328 m 1
 296 474 l 1
 296 401 l 1
 44 255 l 1
 44 328 l 1
EndSplineSet
Refer: 10 108 N 1 0 0 1 15 0 2
Validated: 5
Layer: 3
SplineSet
43.9453 328.125 m 1
 296.387 474.121 l 1
 296.387 400.879 l 1
 43.9453 255.371 l 1
 43.9453 328.125 l 1
EndSplineSet
Refer: 10 108 N 1 0 0 1 14.6484 0 2
EndChar
StartChar: Ncommaaccent
Encoding: 325 325 281
Width: 736
VWidth: 0
Flags: HMW
LayerCount: 4
Back
SplineSet
381 -252 m 5
 285 -234 l 5
 317 -58 l 1
 426 -76 l 1
 381 -252 l 5
80 692 m 1
 228 692 l 1
 563 179 l 1
 563 692 l 1
 686 692 l 1
 686 0 l 1
 536 0 l 1
 203 516 l 1
 203 0 l 1
 80 0 l 1
 80 692 l 1
EndSplineSet
Fore
Refer: 585 806 N 1 0 0 1 369 0 2
Refer: 36 78 N 1 0 0 1 0 0 3
Validated: 1
Layer: 3
Refer: 69 44 S 1 0 0 1 244.629 -142.578 2
Refer: 36 78 N 1 0 0 1 0 0 3
EndChar
StartChar: uni0145
Encoding: 325 325 281
Width: 736
VWidth: 0
Flags: HMW
LayerCount: 2
Back
SplineSet
381 -252 m 5
 285 -234 l 5
 317 -58 l 1
 426 -76 l 1
 381 -252 l 5
80 692 m 1
 228 692 l 1
 563 179 l 1
 563 692 l 1
 686 692 l 1
 686 0 l 1
 536 0 l 1
 203 516 l 1
 203 0 l 1
 80 0 l 1
 80 692 l 1
EndSplineSet
Fore
Refer: 581 806 N 1 0 0 1 369 0 2
Refer: 36 78 N 1 0 0 1 0 0 3
Validated: 1
EndChar
StartChar: uni0146
Encoding: 326 326 282
Width: 538
VWidth: 0
Flags: HMW
LayerCount: 2
Back
SplineSet
276 -252 m 5
 180 -234 l 5
 212 -58 l 1
 321 -76 l 1
 276 -252 l 5
144 481 m 1
 160 449 l 1
 198 465 261 492 327 492 c 3
 494 492 502 359 502 275 c 2
 502 0 l 1
 382 0 l 1
 382 296 l 2
 382 332 372 394 295 394 c 3
 273 394 233 388 180 366 c 1
 180 0 l 1
 60 0 l 1
 60 481 l 1
 144 481 l 1
EndSplineSet
Fore
Refer: 581 806 N 1 0 0 1 267 0 2
Refer: 5 110 N 1 0 0 1 0 0 3
Validated: 1
EndChar
StartChar: napostrophe
Encoding: 329 329 328
Width: 659
VWidth: 1023
Flags: HMW
LayerCount: 4
Fore
SplineSet
36 694 m 1
 110 694 l 1
 110 482 l 1
 36 482 l 1
 36 694 l 1
EndSplineSet
Refer: 5 110 N 1 0 0 1 83 0 2
Validated: 1
Layer: 3
SplineSet
68.3594 694.336 m 1
 141.602 694.336 l 1
 141.602 482.422 l 1
 68.3594 482.422 l 1
 68.3594 694.336 l 1
EndSplineSet
Refer: 5 110 N 1 0 0 1 83.0078 0 2
EndChar
StartChar: Eng
Encoding: 330 330 324
Width: 720
VWidth: 1023
Flags: MW
AnchorPoint: "above" 344 670 basechar 0
AnchorPoint: "cedilla" 344 -178 basechar 0
AnchorPoint: "below" 344 -178 basechar 0
LayerCount: 4
Fore
SplineSet
389 642 m 0
 308 642 229 606 163 575 c 1
 163 0 l 1
 80 0 l 1
 80 694 l 1
 134 694 l 1
 156 648 l 1
 231 683 330 723 420 723 c 0
 547 723 622 643 637 530 c 0
 639 511 640 482 640 445 c 2
 640 -7 l 2
 640 -83 627 -121 577 -153 c 0
 556 -166 521 -178 484 -178 c 0
 455 -178 418 -172 373 -160 c 1
 385 -101 l 1
 418 -107 443 -110 461 -110 c 0
 515 -110 548 -82 555 -40 c 0
 557 -32 557 -20 557 -4 c 2
 557 410 l 2
 557 492 554 535 519 582 c 0
 489 622 446 642 389 642 c 0
EndSplineSet
Validated: 1
Layer: 3
SplineSet
183.594 554.688 m 1
 158.203 620.117 l 1
 214.357 647.612 271.523 673.276 330.566 693.848 c 0
 392.195 715.322 458.04 730.952 522.48 720.635 c 0
 554.702 715.479 586.001 703.589 612.627 684.722 c 0
 639.253 665.859 660.859 640.103 675.293 610.84 c 0
 687.778 585.532 694.951 557.827 698.516 529.834 c 0
 702.08 501.841 702.148 473.533 702.148 445.312 c 2
 702.148 -7.8125 l 2
 702.148 -26.4756 701.953 -45.2471 698.604 -63.6074 c 0
 695.254 -81.9688 688.735 -99.8438 678.579 -115.5 c 0
 668.418 -131.156 654.717 -144.465 638.892 -154.357 c 0
 623.066 -164.251 605.234 -170.748 586.914 -174.316 c 0
 548.618 -181.775 508.95 -177.138 470.703 -169.434 c 0
 458.742 -167.024 446.855 -164.247 435.059 -161.133 c 1
 447.266 -101.562 l 1
 459.747 -103.965 472.276 -106.137 484.863 -107.91 c 0
 503.789 -110.576 523.052 -112.438 541.992 -109.863 c 0
 554.009 -108.23 565.835 -104.705 576.431 -98.7979 c 0
 587.021 -92.8906 596.284 -84.5859 603.169 -74.5996 c 0
 610.049 -64.6133 614.473 -53.042 616.743 -41.1289 c 0
 619.009 -29.2148 619.141 -17.0107 619.141 -4.88281 c 2
 619.141 410.156 l 2
 619.141 439.701 619.272 469.406 614.565 498.574 c 0
 609.854 527.739 599.756 556.44 582.031 580.078 c 0
 564.448 603.53 539.634 621.323 512.026 631.177 c 0
 484.422 641.03 454.488 643.237 425.293 640.625 c 0
 394.824 637.9 364.979 630.22 335.938 620.605 c 0
 283.361 603.198 232.825 580.054 183.594 554.688 c 1
141.602 694.824 m 1
 195.801 694.824 l 1
 224.609 633.789 l 1
 224.609 0 l 1
 141.602 0 l 1
 141.602 694.824 l 1
EndSplineSet
EndChar
StartChar: eng
Encoding: 331 331 322
Width: 574
VWidth: 1023
Flags: MW
AnchorPoint: "above" 262 482 basechar 0
AnchorPoint: "below" 262 -168 basechar 0
AnchorPoint: "cedilla" 262 -168 basechar 0
LayerCount: 4
Back
SplineSet
341 380 m 0
 317 380 273 375 213 353 c 1
 213 0 l 1
 88 0 l 1
 88 482 l 1
 177 482 l 1
 193 450 l 1
 274 484 339 492 379 492 c 0
 561 492 566 346 566 292 c 2
 566 12 l 2
 566 -84 535 -169 406 -169 c 0
 379 -169 337 -166 271 -151 c 2
 249 -146 l 1
 272 -49 l 1
 295 -52 l 1
 357 -61 363 -62 378 -62 c 0
 435 -62 446 -30 446 12 c 2
 446 284 l 2
 446 318 442 380 341 380 c 0
EndSplineSet
Fore
SplineSet
406 291 m 2
 406 373 374 420 296 420 c 0
 259 420 216 407 168 382 c 1
 168 0 l 1
 88 0 l 1
 88 482 l 1
 144 482 l 1
 161 442 l 1
 201 464 241 479 282 487 c 0
 299 491 316 493 331 493 c 0
 425 493 480 426 485 331 c 0
 486 319 486 294 486 257 c 2
 486 -10 l 2
 486 -53 481 -82 472 -100 c 0
 446 -148 415 -169 350 -169 c 0
 328 -169 303 -166 277 -160 c 2
 242 -151 l 1
 254 -92 l 1
 292 -98 l 2
 304 -100 316 -102 326 -102 c 0
 373 -102 399 -79 405 -36 c 0
 406 -29 406 -19 406 -5 c 2
 406 291 l 2
EndSplineSet
Validated: 1
Layer: 3
SplineSet
278.809 486.328 m 0
 316.094 494.009 355.789 494.521 391.334 480.893 c 0
 426.88 467.264 456.176 438.508 470.703 403.32 c 0
 480.103 380.547 483.843 355.812 485.288 331.219 c 0
 486.733 306.623 486.328 281.961 486.328 257.324 c 2
 486.328 -7.8125 l 2
 486.328 -24.3945 486.24 -41.0371 483.921 -57.457 c 0
 481.606 -73.876 477.029 -90.0664 469.369 -104.773 c 0
 461.709 -119.479 450.978 -132.604 437.924 -142.83 c 0
 424.871 -153.057 409.59 -160.33 393.555 -164.551 c 0
 355.707 -174.514 315.613 -167.861 277.344 -159.668 c 0
 265.414 -157.113 253.534 -154.329 241.699 -151.367 c 1
 253.906 -91.7969 l 1
 266.451 -93.8369 278.965 -96.0635 291.504 -98.1445 c 0
 310.416 -101.283 329.885 -104.104 348.633 -100.098 c 0
 358.609 -97.9648 368.197 -93.8457 376.373 -87.7422 c 0
 384.547 -81.6387 391.236 -73.6055 395.959 -64.5625 c 0
 400.682 -55.5195 403.441 -45.5371 404.825 -35.4297 c 0
 406.209 -25.3223 406.25 -15.085 406.25 -4.88281 c 2
 406.25 290.527 l 2
 406.25 304.674 406.148 318.889 403.845 332.846 c 0
 401.542 346.803 397 360.473 389.648 372.559 c 0
 377.646 392.288 358.086 407.049 336.117 414.166 c 0
 314.146 421.283 290.359 421.266 267.578 417.48 c 0
 216.177 408.94 168.4 385.02 124.512 356.934 c 1
 106.445 407.715 l 1
 158.625 443.993 216.564 473.502 278.809 486.328 c 0
87.8906 482.422 m 1
 144.043 482.422 l 1
 167.969 426.27 l 1
 167.969 0 l 1
 87.8906 0 l 1
 87.8906 482.422 l 1
EndSplineSet
EndChar
StartChar: Omacron
Encoding: 332 332 285
Width: 762
VWidth: 0
Flags: HMW
LayerCount: 4
Back
SplineSet
237 771 m 1
 237 866 l 1
 539 866 l 1
 539 771 l 1
 237 771 l 1
392 706 m 3
 592 706 734 550 734 350 c 3
 734 150 592 -10 392 -10 c 3
 192 -10 50 150 50 350 c 3
 50 550 192 706 392 706 c 3
392 593 m 3
 252 593 173 470 173 350 c 3
 173 230 252 103 392 103 c 3
 532 103 611 230 611 350 c 3
 611 470 532 593 392 593 c 3
EndSplineSet
Fore
Refer: 576 772 N 1 0 0 1 381 210 2
Refer: 31 79 N 1 0 0 1 0 0 3
Validated: 1
Layer: 3
SplineSet
259.521 828.613 m 5
 620.85 828.613 l 5
 620.85 765.625 l 5
 259.521 765.625 l 5
 259.521 828.613 l 5
EndSplineSet
Refer: 31 79 N 1 0 0 1 0 0 3
EndChar
StartChar: omacron
Encoding: 333 333 286
Width: 564
VWidth: 0
Flags: HMW
LayerCount: 4
Fore
Refer: 576 772 N 1 0 0 1 280 0 2
Refer: 6 111 N 1 0 0 1 0 0 3
Layer: 3
SplineSet
122.559 650.879 m 1
 483.887 650.879 l 1
 483.887 587.891 l 1
 122.559 587.891 l 1
 122.559 650.879 l 1
EndSplineSet
Refer: 6 111 N 1 0 0 1 0 0 3
EndChar
StartChar: ohungarumlaut
Encoding: 337 337 339
Width: 564
VWidth: 0
Flags: HMW
LayerCount: 4
Back
SplineSet
290 597.200195312 m 1
 405 730.200195312 l 1
 482 665.200195312 l 1
 358 536.200195312 l 1
 290 597.200195312 l 1
129 597.200195312 m 1
 244 730.200195312 l 1
 321 665.200195312 l 1
 197 536.200195312 l 1
 129 597.200195312 l 1
282 401 m 3
 192 401 158 340 158 240 c 3
 158 140 192 82 282 82 c 3
 372 82 406 140 406 240 c 3
 406 340 372 401 282 401 c 3
282 -10 m 3
 131 -10 35 90 35 240 c 3
 35 391 131 492 282 492 c 3
 434 492 530 392 530 241 c 3
 530 91 433 -10 282 -10 c 3
EndSplineSet
Fore
Refer: 581 779 N 1 0 0 1 280 0 2
Refer: 6 111 N 1 0 0 1 0 0 3
Validated: 1
Layer: 3
SplineSet
521.973 756.348 m 29
 344.238 598.145 l 29
 383.301 549.316 l 29
 566.895 703.125 l 29
 521.973 756.348 l 29
307.617 756.348 m 29
 129.883 598.145 l 29
 168.945 549.316 l 29
 352.539 703.125 l 29
 307.617 756.348 l 29
EndSplineSet
Refer: 6 111 N 1 0 0 1 0 0 3
EndChar
StartChar: OE
Encoding: 338 338 118
Width: 975
VWidth: 1023
Flags: MW
AnchorPoint: "below" 551 0 basechar 0
AnchorPoint: "above" 551 692 basechar 0
AnchorPoint: "cedilla" 551 0 basechar 0
LayerCount: 4
Fore
SplineSet
188 332 m 0
 188 193 276 96 386 77 c 0
 402 74 424 73 451 73 c 2
 513 73 l 1
 513 621 l 1
 485 621 l 2
 445 621 414 619 393 616 c 0
 260 595 188 493 188 332 c 0
519 694 m 2
 897 694 l 1
 897 621 l 1
 596 621 l 1
 596 394 l 1
 871 394 l 1
 871 321 l 1
 596 321 l 1
 596 73 l 1
 897 73 l 1
 897 0 l 1
 475 0 l 2
 313 0 221 35 159 132 c 0
 123 188 105 258 105 342 c 0
 105 528 188 642 340 679 c 0
 381 689 441 694 519 694 c 2
EndSplineSet
Validated: 1
Layer: 3
SplineSet
339.844 679.199 m 0
 398.102 693.218 458.635 693.848 518.555 693.848 c 2
 595.703 693.848 l 1
 595.703 262.207 l 1
 595.703 0 l 1
 475.098 0 l 2
 409.793 0 342.848 2.84863 282.715 28.3203 c 0
 232.266 49.6895 188.267 86.2041 158.691 132.324 c 0
 117.938 195.875 104.24 273.629 104.98 349.121 c 0
 105.421 394.016 110.966 439.083 124.391 481.926 c 0
 137.815 524.771 159.866 565.229 190.918 597.656 c 0
 230.611 639.106 284.044 665.776 339.844 679.199 c 0
306.641 585.938 m 0
 269.555 564.434 239.554 531.421 220.215 493.164 c 0
 198.782 450.764 189.479 402.955 187.988 355.469 c 0
 186.145 296.73 196.578 236.285 227.051 186.035 c 0
 250.188 147.881 284.586 116.694 324.707 97.168 c 0
 344.191 87.6855 365.025 80.9941 386.381 77.3262 c 0
 407.738 73.6582 429.503 73.2422 451.172 73.2422 c 2
 512.695 73.2422 l 1
 512.695 258.301 l 1
 512.695 620.605 l 1
 484.863 620.605 l 2
 454.208 620.605 423.414 620.396 393.137 615.596 c 0
 362.859 610.791 333.16 601.313 306.641 585.938 c 0
545.41 320.801 m 1
 545.41 394.043 l 1
 870.605 394.043 l 1
 870.605 320.801 l 1
 545.41 320.801 l 1
545.41 0 m 1
 545.41 73.2422 l 1
 897.461 73.2422 l 1
 897.461 0 l 1
 545.41 0 l 1
545.41 620.605 m 1
 545.41 693.848 l 1
 897.461 693.848 l 1
 897.461 620.605 l 1
 545.41 620.605 l 1
EndSplineSet
EndChar
StartChar: oe
Encoding: 339 339 119
Width: 880
VWidth: 0
Flags: MW
AnchorPoint: "cedilla" 456 0 basechar 0
AnchorPoint: "below" 456 0 basechar 0
AnchorPoint: "above" 456 482 basechar 0
LayerCount: 4
Fore
SplineSet
278 421 m 0
 191 421 142 336 142 245 c 0
 142 172 169 115 212 83 c 0
 235 66 258 58 282 58 c 0
 334 58 360 75 385 102 c 0
 412 132 425 176 425 235 c 0
 425 338 373 421 278 421 c 0
740 269 m 0
 740 361 710 417 624 417 c 0
 586 417 555 402 534 370 c 0
 513 338 502 301 501 259 c 1
 740 259 l 1
 740 264 740 264 740 269 c 0
63 238 m 0
 63 384 147 489 290 489 c 0
 372 489 432 457 469 393 c 1
 510 456 568 487 645 487 c 0
 739 487 797 427 813 331 c 0
 816 313 817 285 817 246 c 2
 817 199 l 1
 499 199 l 1
 500 153 521 115 561 85 c 0
 590 63 628 53 674 53 c 0
 704 53 738 58 776 70 c 1
 789 16 l 1
 741 -2 693 -10 643 -10 c 0
 557 -10 495 18 458 78 c 1
 417 19 358 -10 281 -10 c 0
 143 -10 63 96 63 238 c 0
EndSplineSet
Validated: 1
Layer: 3
SplineSet
644.912 486.862 m 4
 778.203 486.862 806.763 367.51 811.523 337.891 c 4
 816.387 307.614 816.895 276.855 816.895 246.094 c 6
 816.895 198.73 l 5
 499.023 198.73 l 5
 501.016 134.033 554.243 52.7246 673.765 52.7246 c 4
 687.529 52.7246 720.82 53.5557 775.879 70.3125 c 5
 789.062 15.625 l 5
 749.897 0.9375 699.214 -11.2305 642.578 -11.2305 c 4
 536.567 -11.2305 483.745 35.9512 457.5 78.2715 c 5
 418.637 21.4336 357.219 -10.7432 281.424 -10.7432 c 4
 150.846 -10.7432 63.4707 85.6309 63.4707 237.428 c 4
 63.4707 392.067 154.147 489.258 290.162 489.258 c 4
 373.317 489.258 433.723 452.959 468.587 392.845 c 5
 523.213 476.73 607.075 486.862 644.912 486.862 c 4
628.179 417.357 m 4
 543.604 417.357 502.217 338.602 500.977 259.277 c 5
 740.234 259.277 l 5
 740.312 262.523 740.352 265.771 740.352 269.016 c 4
 740.352 375.244 695.483 417.357 628.179 417.357 c 4
425.305 231.59 m 4
 425.305 365.344 349.91 420.898 281.738 420.898 c 4
 197.326 420.646 141.575 345.229 141.575 245.187 c 4
 141.575 141.462 200.98 57.6162 290.088 57.6162 c 4
 362.928 57.6162 425.305 117.328 425.305 231.59 c 4
EndSplineSet
EndChar
StartChar: racute
Encoding: 341 341 290
Width: 371
VWidth: 0
Flags: HMW
LayerCount: 4
Fore
Refer: 572 769 N 1 0 0 1 197 0 2
Refer: 20 114 N 1 0 0 1 0 0 3
Validated: 1
Layer: 3
SplineSet
295.898 756.348 m 29
 118.164 598.145 l 29
 157.227 549.316 l 29
 340.82 703.125 l 29
 295.898 756.348 l 29
EndSplineSet
Refer: 20 114 N 1 0 0 1 0 0 3
EndChar
